<?xml version="1.0" encoding="utf-8"?>
<!-- Generator: Adobe Illustrator 16.0.0, SVG Export Plug-In . SVG Version: 6.00 Build 0)  -->
<!DOCTYPE svg PUBLIC "-//W3C//DTD SVG 1.1//EN" "http://www.w3.org/Graphics/SVG/1.1/DTD/svg11.dtd">
<svg version="1.1" id="Layer_1" xmlns="http://www.w3.org/2000/svg" xmlns:xlink="http://www.w3.org/1999/xlink" x="0px" y="0px"
	 width="200px" height="200px" viewBox="0 0 200 200" enable-background="new 0 0 200 200" xml:space="preserve">
<g>
	<path fill="#016064" d="M79.882,51.363c0.044,0.438,1.103,2.926,1.351,3.352c0.011,0.018,1.15,1.963,1.753,2.797
		c0.248,0.342,0.674,0.797,1.085,1.238c0.462,0.492,0.939,1.002,1.232,1.422c0.317,0.457,1.909,2.127,2.962,3.232
		c0.657,0.691,1.204,1.266,1.375,1.469c0.332,0.393,2.726,1.508,3.512,1.875l0.498,0.234c0.754,0.361,4.149,1.125,4.705,1.209
		c0.167,0.025,0.352,0.064,0.535,0.104c0.061,0.012,0.124,0.025,0.186,0.039c-0.098-0.359-0.207-0.77-0.263-1.006
		c-0.098-0.414-1.34-3.674-1.748-4.744l-0.1-0.262c-0.315-0.828-0.926-2.961-1.163-4.176c-0.12-0.611-0.36-1.295-0.591-1.955
		c-0.197-0.559-0.382-1.088-0.506-1.592c-0.117-0.477-0.344-1.064-0.563-1.633c-0.266-0.691-0.517-1.344-0.586-1.826
		c-0.029-0.205-0.139-0.359-0.329-0.611c-0.284-0.375-0.636-0.844-0.664-1.689c-0.02-0.635-1.113-3.123-1.836-4.77
		c-0.591-1.346-1.058-2.408-1.188-2.902c-0.151-0.584-0.377-1.014-0.56-1.361c-0.184-0.352-0.33-0.627-0.33-0.932
		c-0.002-0.186-0.204-1.088-0.337-1.686c-0.129-0.574-0.253-1.135-0.303-1.447c-0.111-0.695-0.508-3.838-0.266-5.332
		c0.076-0.467,0.21-1.377,0.361-2.404c0.473-3.211,0.701-4.691,0.801-4.982c0.115-0.334,0.349-0.555,0.556-0.752
		c0.165-0.156,0.32-0.303,0.415-0.502c0.324-0.684,2.973-3.699,3.634-4.135c0.042-0.027,4.27-2.781,5.236-2.889
		c0.293-0.033,0.941-0.324,1.461-0.561c0.741-0.334,1.211-0.539,1.559-0.564c0.171-0.012,0.379-0.035,0.626-0.062
		c0.577-0.064,1.366-0.15,2.359-0.18c0.313-0.008,0.618-0.031,0.913-0.055l0.317-0.021c0.3-0.182,0.778-0.469,1.145-0.676
		c0.458-0.262,0.786-0.793,0.94-1.086c0.166-0.314,0.252-1.018-0.001-2.047c-0.081-0.33-0.167-0.57-0.243-0.744
		c-1.247,0.068-2.851,0.449-3.298,0.6c-0.539,0.18-4.635,1.699-5.419,2.006c-1.019,0.398-3.23,1.494-3.576,1.945
		c-0.34,0.443-1.338,0.879-3.073,1.609c-1.003,0.424-2.041,0.861-2.75,1.26c-1.649,0.93-4.941,4.805-5.207,5.75
		c-0.086,0.305-0.193,0.641-0.306,0.996c-0.297,0.932-0.634,1.99-0.733,2.951c-0.069,0.676,0.019,1.662,0.097,2.533
		c0.079,0.885,0.148,1.65,0.07,2.129c-0.055,0.34-0.084,0.982-0.115,1.66c-0.045,1-0.092,2.033-0.238,2.572
		c-0.211,0.781-0.34,1.627-0.375,2.115c-0.098,1.367-0.237,3.164-0.444,4.945c-0.108,0.938-0.296,1.498-0.447,1.949
		c-0.135,0.402-0.232,0.693-0.232,1.135c0,0.73,0.038,2.754,0.062,4.004c0.011,0.568,0.019,0.979,0.019,1.045
		c0,0.471-0.44,0.619-0.677,0.699c-0.079,0.027-0.227,0.078-0.265,0.113c-0.328,0.346-0.682,0.512-1.041,0.494
		C79.876,51.295,79.878,51.328,79.882,51.363z"/>
	<path fill="#016064" d="M117.935,21.111l-0.322-0.557c-0.187-0.326-0.363-0.467-0.567-0.631c-0.292-0.232-0.623-0.496-0.89-1.18
		c-0.262-0.672-2.032-3.764-3.09-5.611c-0.515-0.896-0.914-1.596-1.021-1.803c-0.128-0.248-0.311-0.395-0.541-0.58
		c-0.255-0.205-0.544-0.439-0.782-0.836c-0.228-0.375-0.603-0.814-1.505-1.045c0.011,0.037,0.021,0.076,0.03,0.115
		c0.174,0.689,0.419,1.969,0.109,2.789c-0.28,0.734-0.607,1.107-1.151,1.576c-0.058,0.051-0.122,0.102-0.191,0.154
		c0.199,0.084,0.394,0.201,0.576,0.359c0.277,0.238,0.539,0.301,0.844,0.371c0.444,0.105,0.999,0.236,1.425,0.955
		c0.259,0.438,0.581,0.621,0.988,0.852c0.334,0.189,0.713,0.406,1.071,0.785c0.696,0.734,2.221,2.732,2.494,3.404
		c0.064,0.158,0.192,0.381,0.341,0.645c0.381,0.674,0.902,1.598,1.021,2.443c0.058,0.412,0.197,0.805,0.331,1.186
		c0.201,0.568,0.408,1.154,0.355,1.812c-0.091,1.148-1.993,5.141-2.523,6.168c-0.657,1.271-1.967,5.373-2.255,6.32
		c-0.135,0.441-0.457,1.311-0.799,2.23c-0.381,1.025-0.775,2.088-0.948,2.658c-0.174,0.574-0.53,1.604-0.884,2.623
		c-0.327,0.941-0.651,1.875-0.82,2.422c-0.263,0.859-1.466,3.26-2.344,5.012c-0.321,0.641-0.584,1.164-0.709,1.434
		c-0.383,0.822-1.465,3.516-1.984,4.811l-0.219,0.543c-0.181,0.451-0.705,1.471-1.312,2.65c-0.749,1.457-1.681,3.271-1.887,3.898
		c-0.151,0.463-0.236,0.908-0.283,1.268l0.396-0.029c0.501-0.033,1.678-0.107,2.146-0.375c0.471-0.271,1.889-0.896,3.028-1.398
		c0.512-0.227,0.938-0.414,1.128-0.504c0.518-0.248,2.04-1.383,2.94-2.105c0.874-0.701,3.928-3.758,4.359-4.268
		c0.381-0.451,2.532-3.342,3.45-4.578l0.443-0.594c0.18-0.24,0.501-0.756,0.812-1.256c0.602-0.965,0.886-1.408,1.076-1.582
		c0.248-0.227,0.744-0.809,0.92-1.145c0.085-0.164,0.209-0.365,0.33-0.551c-0.198-0.176-0.443-0.391-0.671-0.666
		c-0.072-0.086-0.126-0.133-0.157-0.156c-0.09,0.016-0.179,0.008-0.265-0.025c-0.15-0.059-0.264-0.186-0.305-0.342
		c-0.003-0.012-0.307-1.18-0.494-1.66c-0.045-0.115-0.125-0.268-0.213-0.441c-0.364-0.715-0.818-1.605-0.424-2.209
		c0.063-0.098,0.148-0.221,0.244-0.355c0.285-0.404,0.815-1.16,0.815-1.508l0.002-0.387c0.008-1.443,0.031-5.84-0.144-7.629
		l-0.093-0.939c-0.264-2.621-0.458-4.686-0.361-5.434l0.026-0.191c0.091-0.686,0.37-2.77,0.199-3.246
		c-0.076-0.211-0.144-0.312-0.222-0.428c-0.13-0.195-0.277-0.416-0.396-0.957C118.946,22.838,118.386,21.881,117.935,21.111z"/>
	<path fill="#016064" d="M169.76,175.164c-0.434-0.062-0.869-0.172-1.299-0.322c-0.256-0.09-0.886-0.197-2.434-0.197
		c-2.52,0-6.157,0.285-8.111,0.438c-2.35,0.186-4.735,0.273-5.975,0.309c0.172,0.631,0.408,1.518,0.512,1.977
		c0.109,0.488,0.909,2.549,1.493,4.053c0.268,0.691,0.511,1.316,0.668,1.738c0.571,1.535,0.936,2.691,0.982,3.711
		c0.024,0.529,0.168,0.518,0.389,0.529c0.078,0,0.16-0.008,0.244-0.018c0.447-0.053,2.447-0.617,3.522-0.92l0.732-0.207
		c0.855-0.238,4.256-0.99,5.895-0.99l0.493,0.016c1.281,0.051,2.207,0.086,2.614,0.137c0.121,0.016,0.235-0.002,0.248-0.008
		c-0.002-0.002,0.018-0.057,0.012-0.188c-0.036-0.748-0.067-4.895,0.033-6.379C169.89,177.211,169.882,175.928,169.76,175.164z"/>
	<path fill="#016064" d="M168.822,173.43c0.673,0.143,1.308,0.277,1.759,0.281c0.123-0.104,0.244-0.23,0.361-0.379
		c0.336-0.428,0.844-1.59,0.459-4.568c-0.106-0.824-0.226-1.629-0.342-2.412c-0.414-2.791-0.806-5.428-0.397-7.711
		c0.479-2.684,0.597-9.391,0.416-12.182c-0.181-2.789-1.616-15.611-1.934-17.723c-0.289-1.934-1.136-6.65-1.815-10.439
		c-0.312-1.744-0.584-3.256-0.736-4.137c-0.199-1.152-0.734-3.527-1.301-6.043c-0.889-3.945-1.896-8.416-2.1-10.275
		c-0.283-2.592-3.224-10.752-4.804-15.135c-0.458-1.27-0.813-2.258-0.982-2.768c-1.246-3.768-4.394-7.16-6.692-9.639
		c-0.938-1.01-1.746-1.883-2.25-2.588c-0.613-0.859-4.973-4.934-5.903-5.52c-0.381-0.24-0.951-0.605-1.64-1.049
		c-2.855-1.834-8.171-5.25-9.311-5.598c-1.021-0.311-1.543-0.85-2.003-1.324c-0.285-0.295-0.554-0.572-0.94-0.812
		c-1.027-0.641-1.347-0.68-2.201-0.707c-0.264-0.008-0.554-0.012-0.836-0.016c-1.366-0.018-1.663-0.031-1.864-0.312
		c-0.077-0.109-0.108-0.229-0.156-0.406c-0.061-0.225-0.172-0.641-0.357-0.797c-0.158-0.135-0.412-0.254-0.636-0.359
		c-0.038-0.018-0.076-0.035-0.114-0.053c-0.028,0.053-0.052,0.105-0.07,0.158c-0.209,0.584-0.724,1.193-1.141,1.541
		c-0.211,0.174-0.88,1.23-1.24,1.799c-0.157,0.248-0.3,0.473-0.41,0.641c-0.13,0.195-0.435,0.625-0.82,1.158
		c0.808,1.672,3.444,7.104,4.5,8.904c0.94,1.605,4.749,7.119,7.024,10.412c0.72,1.043,1.284,1.859,1.555,2.26
		c0.269,0.396,6.586,9.732,8.286,12.48c1.186,1.914,3.07,7.004,4.084,9.736c0.302,0.816,0.587,1.584,0.647,1.705
		c0.068,0.127,0.185,0.383,0.316,0.691c0.551,0.701,1.217,1.623,1.36,2.139c0.188,0.674,0.036,1.656-0.022,1.98
		c0.041,0.141,0.169,0.477,0.284,0.777c0.71,1.859,1.317,3.604,0.944,4.508c-0.252,0.609-0.162,1.996-0.083,3.221
		c0.052,0.789,0.101,1.537,0.076,2.17c-0.03,0.795-0.206,2.691-0.392,4.699c-0.206,2.229-0.419,4.533-0.42,5.215
		c-0.002,1.342,0.499,8.336,0.776,10.443c0.292,2.221,1.107,6.252,1.478,7.311l0.073,0.209c0.435,1.234,0.927,2.635,0.688,3.531
		c-0.172,0.645-0.178,4.361,0.302,6.469c0.294,1.289-0.083,3.182-0.448,5.012c-0.268,1.346-0.521,2.617-0.454,3.406
		c0.05,0.58,0.106,1.049,0.155,1.453c0.119,0.988,0.198,1.641,0.043,2.629c-0.113,0.715,0.255,1.92,0.58,2.982
		c0.214,0.697,0.415,1.355,0.502,1.912c0.133,0.863,0.303,1.426,0.541,1.777c1.521-0.045,4.701-0.17,6.53-0.467
		c1.771-0.289,5.44-0.467,7.824-0.467c1.256,0,2.12,0.043,2.569,0.133C168.368,173.332,168.597,173.381,168.822,173.43z"/>
	<path fill="#016064" d="M28.936,174.848c0.691-0.16,3.364-0.773,4.661-0.961c0.761-0.111,2.294-0.061,3.834,0.012
		c1.188,0.055,2.365,0.111,3.138,0.057c0.717-0.051,1.583-0.195,2.421-0.334c1.185-0.197,2.305-0.383,3.069-0.33
		c0.894,0.055,3.251,0.309,4.68,0.469c0.084-0.121,0.144-0.271,0.177-0.445c0.081-0.422,0.41-3.295,0.758-6.334
		c0.361-3.152,0.77-6.725,0.976-8.193c0.396-2.824,0.499-4.988,0.396-5.668c-0.074-0.492-0.921-2.789-1.438-4.121
		c-0.05-0.127-0.044-0.271,0.015-0.396c0.009-0.018,0.844-1.795,0.91-4.154c0.029-1.025,0.288-2.828,0.588-4.914
		c0.438-3.049,0.935-6.504,0.775-8.086c-0.358-3.557-0.407-5.607-0.159-6.648c0.099-0.412,0.332-1.068,0.627-1.9
		c0.576-1.621,1.365-3.842,1.59-5.523c0.101-0.75,0.158-1.352,0.208-1.871c0.122-1.273,0.203-2.115,0.751-3.383
		c0.616-1.422,0.854-3.234,0.771-4.289c-0.041-0.211-0.254-1.553,0.221-2.215c0.188-0.283,0.403-0.512,0.611-0.734
		c0.25-0.268,0.467-0.498,0.637-0.828c0.417-0.812,0.706-1.137,1.072-1.547l0.158-0.178c0.35-0.396,0.387-1.111,0.387-1.4
		c0-0.229,0.023-1.424,0.479-2.564c0.382-0.953,2.183-3.986,2.856-4.613c0.479-0.447,2.295-3.334,3.212-5.029
		c0.75-1.383,1.576-3.658,1.945-4.785c0.333-1.014,0.946-2.881,1.496-3.693c0.245-0.361,0.816-1.627,1.42-2.969
		c0.58-1.285,1.237-2.742,1.825-3.898c0.881-1.73,1.981-5.158,2.709-7.424c0.269-0.838,0.484-1.508,0.614-1.861
		c0.415-1.127,1.473-3.902,2.096-5.295c0.426-0.953,0.896-2.342,1.089-2.93c-0.182-0.287-0.313-0.502-0.343-0.562
		c-0.107-0.219-0.969-2.113-1.128-2.578l-0.039-0.113c-0.136-0.395-0.265-0.77-0.297-1.105c-0.034,0.02-0.067,0.039-0.102,0.061
		c-0.141,0.088-0.323,0.27-0.499,0.445c-0.347,0.346-0.74,0.738-1.222,0.848c-0.02,0.021-0.117,0.18-0.188,0.293
		c-0.294,0.475-0.739,1.191-1.935,1.592c-0.728,0.244-0.862,0.4-1.046,0.615c-0.218,0.254-0.488,0.57-1.36,0.961
		c-1.474,0.662-8.798,4.326-11.204,5.531l-0.471,0.234c-1.402,0.703-6.458,3.826-8.869,5.926c-2.521,2.197-4.068,4.188-5.34,6.869
		c-0.498,1.049-1.247,2.238-2.039,3.496c-1.665,2.641-3.552,5.635-3.653,8.209c-0.096,2.445-1.927,7.596-3.542,12.139
		c-1.029,2.895-2,5.629-2.218,6.861c-0.098,0.557-0.348,1.898-0.689,3.727c-1.422,7.631-4.381,23.512-4.521,26.275
		c-0.172,3.402-0.153,16.764-0.12,17.92c0.013,0.453-0.165,1.562-0.457,3.334c-0.329,2-0.826,5.021-0.673,5.715
		c0.206,0.934,0.091,2.889-0.011,4.613c-0.047,0.811-0.091,1.541-0.09,2.021c0.004,1.449,0.297,5.002,0.417,5.646
		C28.893,174.844,28.912,174.846,28.936,174.848z"/>
	<path fill="#016064" d="M49.825,176.564c0.033-0.357,0.108-0.762,0.185-1.113c-0.669-0.035-1.668-0.133-3.071-0.387
		c-1.322-0.24-2.326-0.029-3.306,0.234c-0.692,0.188-1.409,0.381-2.333,0.381l-0.235-0.004c-1.155-0.041-2.679-0.088-4.224-0.088
		c-2.25,0-3.796,0.102-4.595,0.299c-0.813,0.201-1.533,0.344-2.066,0.438c0.038,0.086,0.075,0.166,0.11,0.238
		c0.288,0.596,1.159,5.035,1.426,6.5c0.181,0.982,0.372,1.746,0.524,2.359c0.185,0.74,0.307,1.229,0.29,1.621
		c-0.009,0.219-0.022,0.512,0.022,0.598c0,0,0.002,0,0.003,0c0.01,0,0.04,0.006,0.091,0.006c0,0,0,0,0,0
		c0.08,0,0.18-0.014,0.296-0.041c1.104-0.25,5.312-0.852,6.936-0.885c0.696-0.012,1.745-0.066,2.767-0.119
		c1.131-0.059,2.199-0.113,2.78-0.113l0.21,0.002c0.452,0.018,1.012,0.197,1.554,0.371c0.438,0.141,0.933,0.301,1.189,0.301
		c0.072-0.068,0.087-0.477,0.097-0.748c0.015-0.396,0.033-0.889,0.158-1.381C48.898,184,49.74,177.469,49.825,176.564z"/>
	<path fill="#016064" d="M96.902,57.594c0.075,0.307,0.47,1.908,0.931,3.35c0.284,0.889,0.703,1.861,1.072,2.721
		c0.161,0.375,0.315,0.734,0.45,1.064c0.195,0.48,0.337,0.961,0.452,1.404c0.345-0.979,0.786-1.721,1.088-2.232
		c0.152-0.256,0.296-0.5,0.333-0.617c0.113-0.371,0.488-1.059,0.886-1.787c0.295-0.543,0.601-1.102,0.687-1.34
		c0.086-0.234,0.385-0.992,0.744-1.879c-0.477,0.061-1.022,0.113-1.438,0.113c-0.915,0-3.004-0.49-3.81-0.973
		c-0.304-0.184-0.938-0.441-1.603-0.688c0.057,0.23,0.109,0.449,0.154,0.637L96.902,57.594z"/>
	<path fill="#016064" d="M102.039,14.812c-0.417,0.133-1.718,0.723-2.073,0.893c-0.243,0.115-0.62,0.215-0.922,0.297
		c-0.108,0.029-0.204,0.055-0.27,0.074c-0.156,0.07-1.476,0.834-2.438,1.393c-1.371,0.793-1.989,1.148-2.154,1.221
		c-0.315,0.223-2.552,2.82-2.766,3.119l-0.105,0.166c-0.209,0.338-0.559,0.898-0.94,1.246c-0.174,0.158-0.199,0.25-0.29,0.816
		c-0.029,0.18-0.062,0.389-0.111,0.641c-0.082,0.418-0.217,1.287-0.365,2.242c-0.212,1.371-0.454,2.924-0.608,3.596
		c-0.175,0.762,0.015,2.613,0.127,3.721c0.041,0.398,0.074,0.725,0.085,0.926c0.039,0.736,0.464,2.697,0.649,3.312
		c0.09,0.301,0.292,0.785,0.47,1.211c0.177,0.424,0.343,0.824,0.414,1.062c0.039,0.133,0.371,1.016,2.594,6.342l0.039,0.092
		c0.384,0.922,0.44,1.256,0.551,1.918c0.051,0.301,0.189,0.49,0.364,0.729c0.168,0.23,0.359,0.492,0.479,0.848
		c0.112,0.328,0.163,0.582,0.213,0.832c0.045,0.229,0.089,0.453,0.197,0.752c0.063,0.176,0.153,0.438,0.255,0.734
		c0.225,0.656,0.6,1.754,0.724,1.977c0.056,0.104,0.115,0.248,0.183,0.459c0.9,0.254,2.222,0.662,2.562,0.961
		c0.167,0.143,1.163,0.561,2.157,0.738c-0.061-0.887-0.142-2.115-0.142-2.412l0.006-0.342c0.011-0.428,0.025-1.012-0.057-1.555
		c-0.113-0.744-0.304-2.328-0.333-3.018c-0.021-0.492-0.012-2.678-0.005-4.275l0.005-1.402c0-0.609-0.028-1.51-0.052-2.275
		c-0.018-0.58-0.034-1.082-0.034-1.336c0-0.555,0.026-1.982,0.104-2.604c0.081-0.648,0.41-3.465,0.424-4.385
		c0.004-0.303-0.017-0.594-0.042-0.934c-0.051-0.715-0.122-1.695-0.015-3.453c0.158-2.586,0.537-4.102,0.788-5.105
		c0.18-0.715,0.649-2.104,1.027-3.219c0.21-0.621,0.395-1.164,0.485-1.463c0.241-0.791,0.279-1.037,0.438-2.395
		c0.093-0.787,0.326-1.668,0.512-2.287h-0.007C103.426,14.691,102.314,14.725,102.039,14.812z"/>
	<path fill="#016064" d="M133.469,163.754c0-1.225-0.177-3.447-0.3-3.773c-0.034-0.055-5.925-10.457-6.763-12.262
		c-0.617-1.33-2.6-6.945-3.665-9.961c-0.346-0.979-0.583-1.65-0.623-1.75c-0.017-0.037-0.062-0.145-0.083-0.17
		c0.007,0.008-0.025-0.018-0.238-0.051c-0.469-0.066-8.689-0.41-11.533-0.41c-2.866,0-10.215-0.068-10.215-0.068
		c-0.044,0-0.087-0.006-0.128-0.018c-2.303,0.129-8.253,0.875-9.359,1.021c-0.212,0.027-0.855,0.125-1.716,0.254
		c-3.442,0.516-7.181,1.068-7.989,1.096c-1.636,0.055-3.374,0.279-3.808,0.486c-0.245,0.926-1.495,4.766-2.938,7.781
		c-1.558,3.248-6.293,11.523-6.954,12.66c-1.216,2.096-1.311,2.682-1.311,2.811c0,0.242,0.163,1.508,0.306,2.625
		c0.17,1.328,0.347,2.701,0.365,3.182c0.021,0.51,0.088,3.82,0.2,9.84c2.617-0.229,14.257-1.145,14.964-1.189
		c0.663-0.041,3.117,0.158,5.283,0.336c1.126,0.092,2.143,0.174,2.699,0.205c0.156,0.01,0.32,0.014,0.49,0.014c0,0,0.001,0,0.001,0
		c0.901,0,1.974-0.109,2.921-0.205c0.667-0.068,1.261-0.129,1.676-0.139l0.142-0.002c0.77,0,2.31,0.143,3.547,0.258
		c0.747,0.068,1.452,0.135,1.644,0.135c0.051,0,0.102,0.008,0.152,0.021c1.015,0.084,2.31,0.186,3.021,0.219
		c1.278,0.061,7.221,0.186,8.207,0.186c0.297,0,1.2-0.041,2.368-0.094c2.207-0.102,5.229-0.238,7.079-0.238
		c0.417,0,0.774,0.008,1.046,0.023c0.832,0.049,2.23,0.195,3.713,0.352c2.249,0.236,4.833,0.518,5.69,0.455
		c0.397-0.025,1.009-0.059,1.72-0.09c-0.001-1.84-0.005-8.387-0.035-9.266c-0.02-0.58,0.094-1.385,0.213-2.238
		C133.361,165.049,133.469,164.283,133.469,163.754z"/>
	<path fill="#016064" d="M144.332,138.562c0-2.387-0.232-11.311-0.511-14.428c-0.187-2.082,0.212-4.738,0.531-6.871
		c0.172-1.146,0.32-2.139,0.311-2.646c-0.028-1.561-0.361-3.223-0.578-3.959c-0.089-0.301-0.188-0.561-0.271-0.777
		c-0.195-0.516-0.365-0.959-0.04-1.303c0.163-0.174,0.29-0.41,0.29-0.498c0-0.232,0.062-0.408,0.11-0.551
		c0.04-0.117,0.062-0.182,0.062-0.264c0-0.473,0.248-1.285,0.25-1.293c0.03-0.094,0.098-0.389,0.13-0.686l-0.185-1.303
		c-0.276-0.672-0.617-1.529-0.877-2.266c-0.508-1.441-2.12-5.561-3.519-8.916c-0.944-2.266-4.171-7.02-6.527-10.49
		c-1.126-1.658-2.098-3.09-2.612-3.938c-0.773-1.275-2.63-3.898-4.425-6.434c-1.954-2.762-3.799-5.367-4.435-6.48
		c-0.954-1.672-3.118-6.246-4.059-8.252c-0.763,1.037-1.593,2.143-1.993,2.641c-0.787,0.975-2.011,2.164-3.654,3.74
		c-1.572,1.504-3.626,2.98-4.219,3.396c-0.212,0.148-0.85,0.426-2.154,0.979c-0.58,0.246-1.301,0.551-1.434,0.629
		c-0.908,0.533-1.874,0.713-2.513,0.834c-0.186,0.035-0.34,0.062-0.448,0.094c-0.278,0.082-0.735,0.123-1.359,0.123
		c-0.242,0-0.416-0.006-0.416-0.006c-0.03-0.002-0.059-0.004-0.087-0.012c-0.204-0.012-0.549-0.039-0.739-0.068l-0.115-0.016
		c-0.281-0.041-0.65-0.096-0.909-0.172c-0.067-0.02-0.309-0.076-0.649-0.154c-1.172-0.271-3.353-0.775-4.118-1.102
		c-0.896-0.381-3.377-1.586-4.111-2.146c-0.509-0.389-0.815-0.746-1.084-1.061c-0.105-0.121-0.205-0.238-0.312-0.35
		c-0.385-0.4-2.134-2.277-2.336-2.514c-0.077-0.09-0.217-0.244-0.371-0.412c-0.251-0.275-0.536-0.588-0.661-0.746
		c-0.079-0.102-0.137-0.186-0.194-0.268c-0.085-0.123-0.17-0.246-0.349-0.447c-0.084-0.096-0.241-0.264-0.427-0.463
		c-0.831-0.893-1.249-1.357-1.374-1.582c-0.062-0.111-0.323-0.518-0.623-0.986c-0.18,0.539-0.411,1.215-0.67,1.924
		c-0.189,0.516-0.456,1.131-0.753,1.814c-0.606,1.395-1.361,3.129-1.792,4.875c-0.609,2.471-1.691,5.127-2.738,7.697l-0.255,0.627
		c-0.708,1.746-1.608,3.572-2.402,5.182c-0.473,0.959-0.904,1.834-1.224,2.551c-0.177,0.396-0.456,1.176-0.779,2.076
		c-0.647,1.807-1.452,4.055-2.147,5.254c-0.176,0.303-0.367,0.639-0.568,0.992c-1.03,1.814-2.198,3.871-3.054,4.613
		c-0.839,0.729-2.158,3.314-2.462,4.035c-0.219,0.521-0.336,1.918-0.336,2.727c0,0.584-0.42,1.143-0.908,1.791
		c-0.309,0.41-0.628,0.836-0.853,1.281c-0.382,0.76-0.952,1.611-1.377,2.078c0.005,0.031,0.01,0.062,0.015,0.096l0.025,0.152
		c0.211,0.332,0.41,0.586,0.577,0.736c0.587,0.533,0.624,1.074,0.652,1.51c0.007,0.104,0.014,0.209,0.029,0.318l0.018,0.115
		c0.083,0.549,0.176,1.172-0.153,2.303c-0.062,0.211-0.143,0.438-0.234,0.686c-0.383,1.049-0.907,2.484-0.593,5.143
		c0.359,3.033,0.433,6.424,0.472,8.244l0.014,0.627c0.042,1.68-0.168,6.852-0.242,8.188c-0.023,0.428-0.159,1.693-0.345,3.447
		c-0.457,4.285-1.221,11.457-1.33,15.498l-0.049,1.832c-0.147,5.41-0.313,11.545-0.179,14.258c0.06,1.205,0.156,2.361,0.241,3.375
		c0.136,1.643,0.235,2.828,0.133,3.467c-0.093,0.59-0.243,0.877-0.342,1.066c-0.07,0.133-0.075,0.143-0.07,0.232
		c0.001,0.025,0.003,0.049,0.006,0.068c0.128,0.016,0.3,0.027,0.529,0.033l0.263,0.004c0.517,0,0.698-0.051,1.137-0.176
		c0.245-0.07,0.553-0.16,1.011-0.266c1.055-0.244,2.975-0.357,4.377-0.439c0.153-0.008,0.297-0.018,0.432-0.025
		c-0.012-0.594-0.038-1.609-0.068-2.77c-0.071-2.721-0.159-6.107-0.137-6.941c0.018-0.674-0.175-2.092-0.346-3.342
		c-0.156-1.145-0.291-2.133-0.291-2.658c0-1.178,0.761-2.398,1.433-3.479l0.093-0.148c0.643-1.033,5.776-10.449,6.699-12.285
		c0.911-1.811,2.643-6.973,2.8-7.471c0.196-0.623,0.382-1.047,1.154-1.264c0.618-0.176,2.609-0.404,4.196-0.541
		c1.197-0.104,4.446-0.582,6.819-0.932c1.062-0.156,1.99-0.293,2.566-0.373c1.618-0.221,7.522-0.785,9.515-0.975
		c0.053-0.021,0.11-0.035,0.168-0.037c0.039-0.002,4.549-0.109,6.664-0.076c1.199,0.021,5.332,0.182,8.979,0.322
		c2.663,0.104,5.18,0.201,5.479,0.201l0.422-0.004c0.453,0,1.657,0,1.972,1.24c0.226,0.881,3.319,9.637,4.046,11.357
		c0.445,1.061,2.871,5.381,4.643,8.537c0.993,1.77,1.778,3.168,1.96,3.537c0.534,1.09,0.648,1.643,0.724,3.488
		c0.053,1.336-0.179,2.865-0.347,3.984c-0.065,0.428-0.122,0.803-0.151,1.09c-0.058,0.57-0.06,4.154-0.005,9.633
		c0.698-0.021,1.423-0.035,2.095-0.035c1.007,0,1.767,0.031,2.256,0.094c0.812,0.105,2.527,0.375,3.545,0.537
		c0.073-0.236,0.168-0.549,0.286-0.963c0.142-0.496-0.015-1.918-0.167-3.293c-0.21-1.912-0.449-4.08-0.206-5.67
		c0.208-1.355,0.333-2.85,0.443-4.168c0.117-1.412,0.211-2.525,0.373-3.037c0.24-0.764,0.695-5.414,0.917-9.387
		C144.139,147.678,144.332,140.703,144.332,138.562z"/>
	<path fill="#016064" d="M58.851,191.25l0.11-0.016c0.576,0,1.716-0.086,2.819-0.17c0.684-0.051,1.366-0.102,1.925-0.133
		c1.737-0.102,6.876-0.551,8.524-0.924c0.386-0.086,0.631-0.156,0.824-0.211c0.744-0.215,0.779-0.234,3.811-0.115
		c1.36,0.055,2.741,0.02,4.192-0.014c0.97-0.025,1.971-0.049,3.017-0.049c2.101,0,3.914,0.104,5.708,0.324
		c5.191,0.639,6.85,0.566,7.41,0.51c0.245-0.023,0.588,0.002,1.044,0.043c0.754,0.062,1.874,0.129,2.825,0.02
		c0.722-0.086,1.848-0.258,3.096-0.449c1.862-0.287,3.974-0.611,5.463-0.758c2.413-0.232,5.852-0.021,8.612,0.223
		c0.745,0.064,1.391,0.096,1.972,0.096c0.824,0,1.465-0.061,2.277-0.137c0.7-0.064,1.5-0.141,2.599-0.191
		c0.753-0.037,1.382-0.082,1.954-0.123c1.965-0.141,3.528-0.178,6.201,0.193c3.872,0.537,5.439,1.074,6.372,1.48
		c0.217,0.096,0.346,0.131,0.417,0.143c0.009-0.037,0.019-0.094,0.025-0.178c0.043-0.496,0.468-4.041,0.825-5.031
		c0.157-0.439,0.213-1.166,0.271-1.936c0.045-0.598,0.092-1.215,0.192-1.775c0.14-0.773,0.494-1.418,0.753-1.887
		c0.11-0.199,0.26-0.471,0.271-0.562c-0.032-0.141-0.099-0.33-0.16-0.492c-1.627-0.281-3.448-0.57-3.968-0.588
		c-0.398-0.016-1.478,0.008-2.707,0.035c-1.246,0.027-2.652,0.059-3.7,0.059l-0.594-0.004c-1.922-0.031-7.107-0.391-9.565-0.666
		c-1.235-0.139-4.383-0.029-6.984,0.08c-1.776,0.076-3.267,0.141-3.986,0.102c-0.785-0.039-2.127-0.055-3.548-0.07
		c-1.725-0.021-3.509-0.043-4.386-0.109c-1.228-0.094-3.081-0.277-3.834-0.352l-0.113-0.012c-0.055,0-2.219-0.057-3.624-0.26
		c-0.888-0.133-2.099,0.041-3.273,0.201c-0.55,0.076-1.094,0.15-1.603,0.197c-0.932,0.086-2.962-0.145-4.919-0.365
		c-1.484-0.168-2.886-0.326-3.622-0.326l-0.123,0.002c-0.807,0.025-4.908,0.369-8.874,0.703c-3.845,0.322-7.478,0.627-8.478,0.676
		c-1.992,0.096-3.579,0.33-4.471,0.658c-0.438,0.162-1.115,0.225-1.814,0.213c0.022,0.059,0.047,0.121,0.076,0.184
		c0.288,0.637,0.546,1.244,0.546,1.244c0.026,0.061,0.04,0.125,0.04,0.191c0,0,0.057,5.744,0.086,7.398
		c0.007,0.402-0.006,0.811-0.019,1.195C58.725,190.139,58.695,191.076,58.851,191.25z"/>
	<path fill="#016064" d="M102.202,57.199c0.734-0.041,1.432-0.133,1.864-0.199c0.303-0.73,0.747-1.789,0.978-2.262
		c0.348-0.713,1.532-3.293,2.277-4.914l0.566-1.23c0.296-0.635,1.132-3.109,1.581-4.438l0.296-0.871
		c0.107-0.309,0.312-0.877,0.544-1.521c0.455-1.264,1.078-2.992,1.169-3.344c0.13-0.506,1.859-5.477,2.209-6.131
		c0.151-0.281,0.675-1.535,1.137-2.641c0.485-1.16,0.943-2.258,1.163-2.711c0.294-0.613,0.242-0.859,0.19-1.098
		c-0.015-0.07-0.027-0.135-0.036-0.199c-0.015-0.102-0.082-0.281-0.159-0.506c-0.15-0.441-0.357-1.045-0.426-1.588
		c-0.063-0.508-0.567-1.416-0.9-2.016c-0.128-0.229-0.241-0.434-0.32-0.594c-0.283-0.572-1.358-2.156-1.82-2.721
		c-0.393-0.479-1.183-0.92-1.655-1.182c-0.495-0.277-0.852-0.814-1.088-1.17c-0.063-0.098-0.116-0.18-0.16-0.232
		c-0.057-0.062-0.369-0.209-0.864-0.275c-0.335-0.045-0.602-0.215-0.859-0.377c-0.199-0.127-0.405-0.256-0.648-0.332
		c-0.355-0.113-0.943-0.092-1.601-0.045c-0.097,0.006-0.195,0.014-0.295,0.02c-0.218,0.6-0.552,1.707-0.648,3.062
		c-0.104,1.449-0.6,2.797-1.123,4.223c-0.275,0.75-0.561,1.525-0.796,2.34c-0.695,2.408-0.88,6.053-0.703,8.41
		c0.15,2.002-0.044,3.186-0.25,4.439c-0.059,0.361-0.119,0.727-0.171,1.119c-0.129,0.977-0.08,2.018-0.023,3.223
		c0.04,0.852,0.081,1.73,0.065,2.697c-0.038,2.324-0.038,4.168-0.038,5.531c0,0.576,0.113,1.34,0.224,2.078
		c0.146,0.979,0.283,1.904,0.188,2.529C101.982,54.846,102.077,56.121,102.202,57.199z"/>
</g>
</svg>
