<?xml version="1.0" encoding="utf-8"?>
<!-- Generator: Adobe Illustrator 16.0.0, SVG Export Plug-In . SVG Version: 6.00 Build 0)  -->
<!DOCTYPE svg PUBLIC "-//W3C//DTD SVG 1.1//EN" "http://www.w3.org/Graphics/SVG/1.1/DTD/svg11.dtd">
<svg version="1.1" id="Layer_1" xmlns="http://www.w3.org/2000/svg" xmlns:xlink="http://www.w3.org/1999/xlink" x="0px" y="0px"
	 width="200px" height="200px" viewBox="0 0 200 200" enable-background="new 0 0 200 200" xml:space="preserve">
<g>
	<path fill="#016064" d="M94.383,23.025c0.762,0.359,5.625,1.104,7.303,1.211c0.199,0.014,0.465,0.021,0.779,0.021
		c2.256,0,6.545-0.383,8.297-1.814c0.416-0.338,0.877-0.703,1.359-1.084c0.748-0.588,1.562-1.23,2.326-1.875
		c-2.191,0.742-5.107,1.234-9.906,1.357c-0.973,0.027-1.943,0.035-2.992,0.035c-5.701,0-9.5-1.027-11.799-1.975
		c0.096,0.117,0.184,0.221,0.254,0.287l0.34,0.322C91.256,20.385,93.68,22.701,94.383,23.025z"/>
	<path fill="#016064" d="M80.311,10.443c-0.137,0.01-0.256,0.02-0.311,0.021c-0.818,0.02-2.16,0.625-2.641,1.762
		c0.277,0.674,1.072,2.545,2.191,4.719c1.264,2.447,3.174,5.715,5.107,7.373c4.111,3.531,7.32,5.686,11.551,6.236
		c2.539,0.328,5.365,0.629,8.447,0.549c4.912-0.127,8.658-1.232,11.135-3.285c5.408-4.455,11.389-11.953,12.127-14.176
		c0.004-0.719,0-1.4-0.016-2.01c-0.033-1.441-0.152-2.189-0.242-2.393c-0.129-0.312-0.371-0.619-1.238-0.619
		c-0.756,0.018-1.416,0.246-1.48,0.27c-0.008,0.004-0.014,0.006-0.021,0.01c-0.26,0.098-0.547,0.025-0.754-0.146
		c-0.287,0.174-0.613,0.373-0.973,0.604c-0.475,0.986-3.057,6.297-3.951,7.309c-0.098,0.109-0.334,0.365-0.652,0.703
		c-0.041,0.078-0.096,0.15-0.176,0.199c-0.008,0.004-0.016,0.01-0.025,0.014c-1.857,1.963-6.027,6.225-7.211,6.787
		c-1.268,0.604-4.09,1.611-8.756,1.611c-0.318,0-0.645-0.004-0.98-0.014l-0.199-0.006c-5.061-0.152-5.711-0.172-8.895-2.467
		c-2.975-2.146-4.795-3.939-6.496-6.395c-1.447-2.082-2.586-4.762-2.82-5.334c-0.713-0.416-1.457-0.863-2.25-1.361
		C80.674,10.412,80.48,10.43,80.311,10.443z"/>
	<path fill="#016064" d="M147.875,92.408c-0.678-3.871-1.799-11.748-2.053-16.363c-0.232-4.324,0.559-6.889,0.973-7.908
		c-0.018-0.137-0.037-0.326-0.066-0.619c-0.084-0.82-0.223-2.203-0.344-3.373c-0.07-0.656-0.311-2.592-0.602-4.93
		c-0.512-4.123-1.15-9.254-1.34-11.225c-0.041-0.445-0.062-0.91-0.08-1.393c-0.014-0.541-0.006-1.111,0.01-1.693
		c-12.104-7.025-15.469-17.314-16.211-20.324c-0.162-0.67-0.256-1.664-0.297-3.127c-0.035-1.393-0.012-3.029,0.012-4.643
		c-2.367,3.512-6.918,8.713-11.102,12.186c-2.76,2.279-6.822,3.504-12.08,3.645c-0.326,0.008-0.648,0.012-0.969,0.012
		c-2.93,0-5.662-0.309-7.717-0.576c-5.09-0.66-8.748-3.496-12.354-6.596c-2.621-2.266-5.088-6.912-6.586-10.119
		c-0.145,2.908-0.406,6.637-0.791,8.672c-0.521,2.709-2.922,7.818-3.709,9.498l-0.086,0.18c-0.436,0.893-1.99,2.172-3.682,3.514
		c-0.973,0.768-1.965,1.51-2.693,2.053c-0.459,0.346-0.812,0.609-0.984,0.748c-0.562,0.455-2.369,1.637-5.367,3.508l-0.113,0.072
		c0.02,0.404,0.033,0.795,0.043,1.158c0.012,0.449,0.039,1.043,0.07,1.73c0.045,1.018,0.098,2.234,0.129,3.486
		c0.078,3.115-0.01,5.168-0.279,6.461c-0.807,3.771-1.676,5.99-2.734,6.982c-0.85,0.777-2.189,1.801-2.768,2.234
		c0.828,3.318,2.002,14.961,1.199,21.562c-0.494,4.053,0.043,13.924,0.516,22.633c0.381,7,0.709,13.047,0.457,15.064
		c-0.191,1.529-0.619,3.771-1.072,6.146c-0.857,4.496-1.924,10.094-1.682,12.609c0.273,2.924-0.227,6.797-0.949,9.369
		c1.91,0.57,8.908,2.678,12.502,3.887c4.027,1.361,9.088,3.775,11.307,6.096c2.059,2.178,4.426,6.398,4.924,7.857
		c0.402,1.197,1.445,4.309,1.627,4.855l0.189,0.312c2.18-2.623,7.322-6.016,9.801-7.428c2.682-1.512,7.533-3.191,11.855-3.305
		c0.504-0.014,0.994-0.002,1.477,0.033c4.15,0.326,12.088,2.66,14.881,5.199c0.449-0.188,1.402-0.656,2.676-1.488
		c0.947-0.611,3.125-2.17,5.23-3.678c1.844-1.318,3.75-2.684,4.912-3.473c0.732-0.494,1.633-1.156,2.621-1.883
		c2.336-1.717,5.24-3.854,7.637-5.02c2.938-1.424,9.889-3.047,12.027-3.527c-0.217-0.84-0.406-1.822-0.574-3.193
		c-0.201-1.631-1.074-4.633-2-7.812c-1.43-4.91-3.049-10.475-2.871-13.244C151.08,122.875,148.562,96.354,147.875,92.408z"/>
	<path fill="#016064" d="M135.324,187.176c-0.004,0-0.096,0-0.1,0c-1.139,0-2.381-0.445-3.91-1.402
		c-2.049-1.307-3.945-4.607-5.531-7.666c-0.086-0.166-0.174-0.32-0.262-0.473c-0.01-0.012-0.023-0.016-0.031-0.027
		c-0.035-0.049-0.049-0.102-0.07-0.154c-0.832-1.387-1.783-2.289-2.865-3.312c-0.693-0.656-1.41-1.334-2.195-2.219
		c-1.934-2.23-10.277-4.768-14.215-5.039c-0.432-0.035-0.871-0.041-1.326-0.029c-3.877,0.094-8.535,1.631-11.135,3.104
		c-3.318,1.857-8.967,5.936-9.924,7.848c-0.418,0.816-1.299,2.424-2.32,4.287c-1.771,3.232-3.977,7.254-4.311,8.166
		c-0.174,0.482-0.387,0.805-0.609,1.025c0.84,0.348,1.9,0.58,3.18,0.6l0.227,0.002c0.574,0,1.145-0.039,1.711-0.09
		c0.021-0.055,0.035-0.109,0.068-0.16l0.002,0.002c0.021-0.031,0.041-0.062,0.051-0.076c0.234-0.34,1.25-1.814,2.381-3.543
		c1.67-2.576,2.791-4.484,3.236-5.518c1.271-2.867,6.203-8.154,8.621-8.764c0.039-0.01,0.133-0.02,0.174-0.02
		c0.361,0,0.672,0.246,0.756,0.596c0.047,0.195,0.014,0.398-0.092,0.57c-0.107,0.176-0.279,0.299-0.482,0.348
		c-1.502,0.301-6.492,5.289-7.564,7.869c-0.922,2.135-3.82,6.482-5.162,8.453c0.465-0.07,0.926-0.145,1.383-0.221
		c1.475-0.242,2.867-0.471,4.246-0.506c1.322-0.037,4.035-0.246,6.908-0.467c3.547-0.273,7.57-0.582,9.963-0.645
		c1.574-0.041,2.902-0.238,4.311-0.445c1.59-0.232,3.234-0.475,5.252-0.475c1.039,0,2.086,0.062,3.199,0.191
		c3.256,0.381,5.973,0.52,8.414,0.42c-1.002-0.852-2.113-2.287-3.328-4.32l-0.094-0.156c-0.014-0.018-0.025-0.037-0.037-0.057
		c-0.207-0.371-0.08-0.83,0.287-1.043c0.422-0.221,0.855-0.061,1.051,0.289l0,0c0.004,0.008,0.01,0.014,0.014,0.021
		c0.26,0.447,0.793,1.33,1.461,2.242c0.932,1.291,1.939,2.271,2.451,2.385c0.252,0.066,0.43,0.244,0.521,0.459
		c0.711-0.082,1.408-0.178,2.088-0.305c1.939-0.359,3.137-0.832,4.135-1.799C135.678,187.152,135.502,187.172,135.324,187.176z"/>
	<path fill="#016064" d="M22.701,41.619c2.102,3.914,4.051,7.74,4.09,9.221c0.045,1.783,0.861,6.502,1.484,7.561
		c0.094,0.158,0.184,0.324,0.273,0.496c0.58,1.09,1.129,2.119,3.471,2.119l0.213-0.002c0.496-0.014,1.166-0.035,1.949-0.062
		c2.113-0.074,5.008-0.176,7.658-0.176c3.527,0,5.57,0.174,6.43,0.545c0.283,0.123,0.574,0.246,0.869,0.369
		c1.646,0.693,3.328,1.41,4.26,2.521c0.576-0.418,1.703-1.25,2.432-1.92c0.752-0.662,1.643-3.08,2.277-6.162
		c0.24-1.148,0.322-3.203,0.246-6.109c-0.031-1.188-0.082-2.346-0.125-3.332c-0.033-0.746-0.061-1.395-0.074-1.883
		c-0.062-2.377-0.377-6.17-0.613-7.377c-0.227-1.221-1.957-6.428-2.496-7.367c-0.643-1.135-1.262-2.367-1.787-3.568
		c-0.311-0.701-0.982-2.521-1.941-5.258c-2.523,0.971-6.297,2.576-6.961,3.275c-0.158,0.168-0.32,0.369-0.502,0.596
		c-1.035,1.281-2.766,3.424-8.191,5.43c-3.26,1.203-6.562,2.326-9.217,3.229c-2.377,0.809-4.254,1.445-4.809,1.709
		c-0.125,0.059-0.207,0.238-0.252,0.377c-0.346,1.057,0.096,3.488,0.906,5.004L22.701,41.619z"/>
	<path fill="#016064" d="M141.525,15.213c-1.039-0.695-2.023-1.352-2.893-1.852c-0.93-0.535-2.051-1.062-3.236-1.623
		c-1.924-0.906-3.912-1.846-5.316-2.924c-0.402-0.311-0.846-0.543-1.326-0.699c0.121,0.162,0.24,0.328,0.322,0.525
		c0.246,0.605,0.32,1.576,0.363,2.947c0.018,0.654,0.02,1.375,0.014,2.139c0.004,0.023,0,0.049,0,0.074
		c-0.006,0.811-0.02,1.67-0.033,2.555c-0.029,1.752-0.059,3.562-0.02,5.057c0.035,1.32,0.119,2.262,0.252,2.795
		c0.695,2.805,3.811,12.254,14.801,18.951c0.139-2.199,0.404-4.498,0.635-6.486c0.395-3.338,3.365-12.799,4.254-15.357l0.088-0.242
		c0.084-0.244,0.137-0.391,0.225-0.537c0.141-0.18,0.311-0.314,0.479-0.432c-0.984-0.586-1.877-1.068-2.654-1.4
		C145.504,17.867,143.391,16.457,141.525,15.213z"/>
	<path fill="#016064" d="M158.076,159.324c0.332-0.455,0.33-1.25-0.008-2.359c-0.385-1.262-0.715-2.164-1.006-2.961
		c-0.133-0.363-0.258-0.705-0.375-1.047c-0.836,0.188-2.586,0.588-4.57,1.104c-3.367,0.873-5.936,1.701-7.234,2.33
		c-2.25,1.092-5.111,3.195-7.41,4.885c-0.998,0.734-1.91,1.404-2.658,1.912c-1.164,0.787-3.102,2.174-4.975,3.516
		c-2.174,1.555-4.225,3.023-5.191,3.648c-0.959,0.611-1.748,1.068-2.377,1.373c0.449,0.459,0.885,0.875,1.312,1.277
		c0.973,0.918,1.904,1.797,2.752,3.039c3.111-2.268,9.32-6.775,11.23-8.041l1.33-0.889c2.383-1.596,5.348-3.582,7.523-4.67
		c0.242-0.133,0.607-0.074,0.848,0.127c1.873-0.904,5.182-2.443,7.309-2.5l0.418-0.008
		C156.205,160.039,157.576,160.014,158.076,159.324z"/>
	<path fill="#016064" d="M141.566,170.811l0.699-1.396c0.779-1.561,1.477-2.957,2.152-4.072c-1.52,0.938-3.15,2.029-4.57,2.98
		c-0.516,0.346-1,0.67-1.438,0.959c-1.338,0.887-5.344,3.756-11.283,8.086c0.008,0.014,0.016,0.025,0.023,0.039
		c1.561,3.049,2.93,5.158,4.094,6.324c0.451-1.982,1.365-5.682,2.059-7.734c0.115-0.316,0.41-0.52,0.736-0.52
		c0.047,0,0.17,0.018,0.215,0.029c0.428,0.162,0.633,0.584,0.508,0.977c-0.832,2.451-1.816,6.713-2.164,8.26
		c1.025,0.59,1.91,0.904,2.615,0.904c0.453-0.012,0.793-0.107,1.107-0.295c0.244-0.154,0.602-0.127,0.854,0.053
		c0.184-0.301,0.367-0.625,0.559-0.982c0.795-1.496,1.285-3.896,1.807-6.439C140.072,175.371,140.625,172.672,141.566,170.811z"/>
	<path fill="#016064" d="M165.615,66.5c0.982,0.109,1.963,0.166,2.838,0.166c2.514,0,3.4-0.461,3.527-0.732
		c0.193-0.41,0.219-1.229,0.248-2.178c0.039-1.213,0.086-2.725,0.504-4.248c0.693-2.545,2.289-8.24,3.844-13.496
		c0.441-1.488,0.809-2.658,1.105-3.605c0.703-2.242,0.994-3.172,0.971-4.137c-0.008-0.332,0.014-0.705,0.039-1.098
		c0.08-1.338,0.166-2.721-0.904-3.482c-1.584-1.123-5.467-2.889-7.553-3.66c-0.533-0.197-1.158-0.381-1.877-0.596
		c-2.049-0.607-4.854-1.439-8.426-3.361c-2.246-1.205-4.5-2.641-6.49-3.906c-0.617-0.393-1.209-0.77-1.779-1.127
		c-0.137,0.061-0.305,0.137-0.42,0.191c-0.117,0.051-0.23,0.117-0.299,0.166c-0.051,0.127-0.096,0.258-0.15,0.418
		c-0.127,0.359-0.293,0.85-0.488,1.453c-0.391,1.207-0.9,2.822-1.412,4.547c-1.281,4.273-2.109,7.539-2.271,8.961
		c-0.336,2.883-0.797,6.83-0.723,9.781c0.012,0.443,0.033,0.875,0.074,1.275c0.184,1.934,0.812,6.998,1.316,11.068
		c0.299,2.402,0.547,4.402,0.619,5.078c0.104,0.969,0.182,1.92,0.232,2.604c1.596-1.162,4.693-2.688,8.416-2.688
		c3.104,0.002,4.734,0.84,6.172,1.578C163.676,65.959,164.494,66.379,165.615,66.5z"/>
	<path fill="#016064" d="M101.797,16.822c-4.072,0-7.588-0.352-9.898-0.988c-1.242-0.342-3.076-1.008-5.58-2.27
		c0.516,0.879,1.061,1.781,1.576,2.607c0.008,0.006,0.02,0.008,0.027,0.014c0.062,0.051,0.271,0.211,0.66,0.441
		c0.441,0.266,1.201,0.67,2.334,1.092c2,0.738,5.469,1.621,10.633,1.621l0.549,0.002c0.824,0,1.6-0.016,2.33-0.035
		c7.607-0.197,10.074-1.215,12.875-2.865c0.326-0.648,0.725-1.555,1.109-2.436c0.191-0.438,0.379-0.867,0.561-1.275
		c-1.551,1.225-4.826,3.025-9.15,3.611C107.537,16.648,104.611,16.822,101.797,16.822z"/>
	<path fill="#016064" d="M71.451,177.469l0.93,1.92c0.986,2.049,1.463,5.688,1.779,8.096c0.104,0.787,0.193,1.469,0.27,1.832
		c0.051,0.246,0.184,0.49,0.359,0.729c0.23-0.102,0.512-0.094,0.73,0.043c0.045-0.072,0.104-0.189,0.17-0.365
		c0.271-0.73,1.361-2.791,2.629-5.123c-0.006-0.014-0.016-0.021-0.021-0.035c-0.045-0.07-0.383-0.906-0.732-2.793
		c-0.291-1.621-2.576-7.105-5.441-11.213c-0.949-1.379-3.146-2.812-6.223-4.09c0.512,0.641,1.039,1.516,1.621,2.771
		C68.963,172.344,70.342,175.186,71.451,177.469z"/>
	<path fill="#016064" d="M74.988,8.969c-0.781,0.281-1.621,0.787-2.512,1.32c-0.881,0.531-1.793,1.078-2.795,1.51
		c-0.578,0.25-1.988,0.879-3.744,1.664c-4.561,2.035-10.809,4.826-12.072,5.246c-0.723,0.242-1.162,0.73-1.424,1.162
		c0.025,0.066,0.047,0.125,0.078,0.213c0.424,1.193,1.713,4.822,2.143,5.787c0.525,1.191,1.119,2.377,1.717,3.43
		c0.699,1.254,2.404,6.473,2.668,7.832c0.17,0.875,0.363,2.799,0.496,4.729c2.496-1.568,4.166-2.664,4.615-3.027
		c0.193-0.156,0.572-0.439,1.059-0.803c0.721-0.541,1.686-1.264,2.637-2.012c1.92-1.488,3.1-2.629,3.236-2.945
		c2.658-5.648,3.463-8.18,3.678-9.324c0.461-2.416,0.77-7.756,0.863-10.756c0.012-0.275,0.062-0.527,0.121-0.773
		c0.002-0.012-0.002-0.021,0-0.035c0.002-0.004,0.006-0.006,0.006-0.01c0.363-1.463,1.484-2.418,2.643-2.893
		c-0.826-0.273-1.691-0.457-2.441-0.457C75.578,8.826,75.252,8.875,74.988,8.969z"/>
	<path fill="#016064" d="M51.857,159.986c1.275,0.951,4.754,2.277,7.373,3.225c0.143-0.178,0.357-0.297,0.596-0.297
		c0.037,0,0.129,0.01,0.164,0.018c0.016,0.004,0.031,0.008,0.047,0.014l0.121,0.031c3.111,0.787,10.623,3.02,13.221,6.707
		c2.953,4.246,5.307,9.74,5.695,11.812c0.094,0.498,0.182,0.904,0.262,1.236c0.266-0.484,0.529-0.967,0.791-1.441
		c0.859-1.566,1.615-2.947,2.068-3.807l-0.637-1.049c-0.027-0.043-0.047-0.092-0.059-0.141c0.002,0-1.205-3.613-1.645-4.918
		c-0.375-1.139-2.662-5.283-4.582-7.299c-1.707-1.797-6.201-4.193-10.688-5.693c-2.377-0.803-6.564-2.104-12.451-3.871
		c-0.023-0.006-0.031-0.01-0.053-0.016c-0.123,0.297-0.248,0.555-0.375,0.756C51.113,156.199,49.938,158.557,51.857,159.986z"/>
</g>
</svg>
