<?xml version="1.0" encoding="utf-8"?>
<!-- Generator: Adobe Illustrator 16.0.0, SVG Export Plug-In . SVG Version: 6.00 Build 0)  -->
<!DOCTYPE svg PUBLIC "-//W3C//DTD SVG 1.1//EN" "http://www.w3.org/Graphics/SVG/1.1/DTD/svg11.dtd">
<svg version="1.1" id="Layer_1" xmlns="http://www.w3.org/2000/svg" xmlns:xlink="http://www.w3.org/1999/xlink" x="0px" y="0px"
	 width="200px" height="200px" viewBox="0 0 200 200" enable-background="new 0 0 200 200" xml:space="preserve">
<g>
	<path fill="#016064" d="M152.014,13.729c0,1.03-0.194,3.574-0.335,5.432c-0.05,0.643-0.091,1.185-0.112,1.515
		c-0.025,0.395-0.098,1.138-0.188,2.065c-0.203,2.065-0.481,4.894-0.537,6.931c-0.049,1.788,0.187,3.524,0.375,4.919
		c0.124,0.915,0.23,1.704,0.23,2.304c0,0.542,0.085,1.574,0.188,2.659c0.157-0.464,0.375-1,0.7-1.677
		c1.102-2.293,5.213-9.505,7.574-12.792c0.589-0.821,1.105-1.527,1.547-2.131c0.859-1.176,1.562-2.136,1.76-2.544
		c-0.221-0.145-0.646-0.38-1.06-0.61c-1.354-0.751-3.62-2.007-5.653-3.74c-1.501-1.278-2.913-2.41-4.436-3.283
		C152.037,13.004,152.014,13.312,152.014,13.729z"/>
	<path fill="#016064" d="M37.742,26.446c1.271,1.649,2.472,3.206,2.927,3.88c0.157,0.232,0.361,0.522,0.598,0.859
		c1.336,1.904,3.822,5.448,4.821,8.448c0.681,2.042,1.191,3.852,1.551,5.451c0.021-0.24,0.037-0.493,0.056-0.785
		c0.066-1.035,0.158-2.451,0.585-5.267c0.633-4.17,1.253-12.821-0.438-18.792c-1.202-4.25-1.945-6.863-2.273-8.016
		c-0.678,0.519-1.374,1.124-2.026,1.692c-0.938,0.818-1.748,1.524-2.401,1.897c-0.523,0.299-1.487,0.968-2.509,1.677
		c-2.722,1.888-4.072,2.781-4.688,2.812c-0.063,0.072-0.076,0.36,0.175,1.226C34.306,21.991,36.292,24.566,37.742,26.446z"/>
	<path fill="#016064" d="M65.667,14.345c0.286,1.391,2.194,8.867,2.865,10.546c0.659,1.645,4.751,8.615,7.068,11.437
		c6.521,7.943,9.587,10.614,11.011,11.456c2.918,1.727,8.14,3.666,13.207,3.46c3.435-0.142,11.858-0.855,15.892-4.426
		c0.824-0.729,1.699-1.429,2.624-2.168c3.136-2.508,6.69-5.35,8.862-10.083c3.047-6.638,3.471-13.477,3.527-15.415
		c0.024-0.81,0.083-1.708,0.143-2.628c0.149-2.313,0.305-4.705-0.043-6.125c-0.268-1.093-0.604-1.813-0.848-2.241
		c-0.142,0.328-0.312,0.796-0.448,1.177c-0.294,0.814-0.598,1.657-0.936,2.22c-0.073,0.123-0.228,0.393-0.448,0.779
		c-1.795,3.144-7.259,12.712-10.177,15.009c-3.9,3.069-13.275,6.458-15.646,6.944c-1.717,0.352-4.155,0.25-7.247-0.296
		c-3.639-0.642-11.428-3.078-15.991-5.804c-2.606-1.558-7.448-7.139-9.517-9.522c-0.337-0.389-0.586-0.676-0.717-0.82
		c-0.445-0.487-2.696-3.018-3.26-4.96c-0.058-0.2-0.117-0.422-0.178-0.649C65.484,13.087,65.571,13.881,65.667,14.345z"/>
	<path fill="#016064" d="M165.685,187.115c-0.029-0.009-0.057-0.017-0.084-0.03c-0.07,0.044-0.148,0.077-0.237,0.081
		c-0.185,0.008-0.393,0.015-0.608,0.02c-0.102-0.008-0.221-0.033-0.307-0.096c-0.081,0.062-0.182,0.101-0.292,0.104
		c-0.115,0.003-0.312,0.015-0.578,0.034c-0.104,0.007-0.217-0.021-0.305-0.078c-0.078,0.068-0.178,0.113-0.289,0.122l-0.599,0.048
		c-0.111,0.007-0.22-0.02-0.308-0.075c-0.078,0.069-0.179,0.115-0.292,0.124l-0.6,0.049c-0.11,0.008-0.218-0.019-0.306-0.074
		c-0.078,0.069-0.18,0.115-0.292,0.124l-0.598,0.049c-0.12,0.008-0.22-0.02-0.309-0.075c-0.078,0.069-0.18,0.115-0.292,0.124
		l-0.597,0.049c-0.109,0.009-0.22-0.02-0.309-0.075c-0.078,0.069-0.18,0.114-0.292,0.123l-0.599,0.047
		c-0.109,0.015-0.22-0.02-0.309-0.077c-0.078,0.069-0.179,0.114-0.291,0.123l-0.603,0.047c-0.104,0.007-0.217-0.021-0.306-0.078
		c-0.079,0.069-0.18,0.114-0.292,0.123l-0.601,0.043c-0.012,0.001-0.023,0.001-0.035,0.001c-0.26,0-0.479-0.202-0.498-0.466
		c-0.019-0.275,0.189-0.514,0.465-0.533l0.595-0.043c0.11-0.008,0.219,0.021,0.307,0.078c0.079-0.069,0.18-0.114,0.293-0.123
		l0.597-0.045c0.111-0.017,0.22,0.02,0.309,0.077c0.078-0.069,0.179-0.115,0.291-0.123l0.599-0.047
		c0.101-0.017,0.217,0.02,0.307,0.075c0.078-0.068,0.178-0.114,0.29-0.123l0.599-0.049c0.11-0.007,0.219,0.02,0.308,0.075
		c0.078-0.069,0.179-0.115,0.291-0.124l0.6-0.049c0.11-0.008,0.218,0.019,0.306,0.074c0.078-0.069,0.18-0.115,0.292-0.124l0.6-0.049
		c0.111-0.008,0.219,0.02,0.307,0.075c0.078-0.069,0.179-0.115,0.291-0.124l0.601-0.048c0.111-0.008,0.221,0.02,0.31,0.077
		c0.079-0.069,0.181-0.115,0.294-0.123c0.287-0.02,0.5-0.033,0.623-0.036c0.151-0.001,0.221,0.033,0.308,0.096
		c0.081-0.062,0.183-0.101,0.293-0.104c0.21-0.005,0.41-0.012,0.589-0.02c0.031,0,0.059,0.012,0.089,0.017
		c-0.357-1.166-0.778-2.421-1.11-3.405l-0.292-0.868c-0.347-1.039-0.872-3.808-1.38-6.484c-0.39-2.05-0.757-3.986-1.013-4.989
		c-0.637-2.511-5.411-26.176-5.878-29.398c-0.475-3.282-1.072-11.273-1.195-14.553c-0.032-0.86-0.113-2.13-0.208-3.616
		c-0.279-4.417-0.663-10.467-0.344-13.761c0.434-4.47,0.675-13.941,0.636-17.17c-0.042-3.445,0.329-7.578,0.946-10.527
		c0.281-1.346,0.43-2.858,0.561-4.193c0.149-1.515,0.277-2.823,0.562-3.649c0.513-1.497,2.565-7.054,3.041-8.048
		c0.313-0.656-0.277-1.677-1.808-3.122c-0.196-0.186-0.462-0.42-0.777-0.699c-2.255-1.989-6.947-6.129-6.947-10.552
		c0-3.296,0.487-5.813,0.809-7.479c0-0.001,0.001-0.003,0.001-0.004c-0.011-0.357-0.108-1.334-0.212-2.375
		c-0.166-1.653-0.354-3.526-0.354-4.395c0-0.532-0.103-1.291-0.222-2.169c-0.193-1.431-0.435-3.211-0.384-5.081
		c0.057-2.073,0.337-4.922,0.541-7.002c0.09-0.911,0.162-1.642,0.187-2.031c0.021-0.333,0.063-0.879,0.112-1.527
		c0.133-1.737,0.333-4.363,0.333-5.355c0-0.667,0.056-1.123,0.122-1.435c-1.405-0.679-2.926-1.139-4.721-1.261
		c-2.649-0.18-4.813-0.562-6.723-0.899c-1.257-0.222-2.444-0.431-3.587-0.548c-1.499-0.154-3.012-0.688-4.186-1.12
		c0.308,0.652,0.569,1.535,0.569,2.706c0,0.332,0.006,0.745,0.012,1.226c0.047,3.396,0.133,9.716-1.218,15.224
		c-1.4,5.724-2.868,9.206-4.907,11.641c-1.765,2.111-6.042,5.972-7.688,7.261c-1.751,1.373-4.209,3.177-5.971,3.974
		c-1.1,0.497-7.848,2.276-14.125,2.276c-2.538,0-4.998-0.291-6.978-1.074c-6.671-2.644-7.244-3.23-10.975-7.049
		c-3.935-4.025-6.918-7.56-8.402-9.951l-0.419-0.672c-1.515-2.422-3.803-6.083-4.948-9.557c-1.174-3.562-2.684-8.857-2.87-10.344
		c-0.141-1.126-0.306-4.175-0.364-5.307c-0.978,0.015-2.64,0.092-3.679,0.141l-0.67,0.031c-1.765,0.078-10.038,1.334-11.95,2.131
		c-0.285,0.119-0.59,0.288-0.904,0.49c0.26,0.914,1.029,3.62,2.371,8.357c1.736,6.136,1.107,14.965,0.463,19.215
		c-0.42,2.772-0.51,4.164-0.575,5.18c-0.038,0.605-0.069,1.083-0.156,1.627c-0.192,1.198-0.341,1.901-0.385,2.104
		c0.096,0.924,0.117,1.744,0.043,2.426c-0.354,3.291-3.275,6.894-3.857,7.583c-1.147,1.36-3.06,3.236-3.819,3.817
		c-0.15,0.115-0.351,0.245-0.571,0.386c-1.007,0.647-1.544,1.093-1.312,1.457c0.783,1.221,1.477,10.159,1.396,11.4
		c-0.039,0.608-0.229,1.113-0.429,1.647c-0.271,0.726-0.553,1.476-0.506,2.64c0.041,1.045,0.736,8.44,1.408,15.591
		c0.697,7.418,1.418,15.088,1.524,16.848c0.217,3.527-0.518,21.484-1.152,25.581l-0.249,1.607
		c-0.854,5.493-2.628,16.924-3.236,21.938c-0.168,1.391-0.379,3.217-0.606,5.197c-0.882,7.646-1.583,13.577-1.923,14.629
		c-0.392,1.208-0.597,2.81-0.745,4.441c0.031,0.025,0.061,0.051,0.085,0.082c0.08-0.011,0.163-0.008,0.243,0.023
		c0.154,0.062,0.337,0.131,0.549,0.21c0.104,0.038,0.187,0.106,0.243,0.19c0.097-0.03,0.206-0.031,0.312,0.005l0.561,0.187
		c0.104,0.034,0.189,0.1,0.249,0.182c0.096-0.033,0.207-0.039,0.312-0.007l0.567,0.168c0.265,0.076,0.418,0.354,0.342,0.619
		c-0.063,0.219-0.263,0.361-0.48,0.361c-0.046,0-0.092-0.006-0.139-0.02l-0.581-0.172c-0.108-0.033-0.197-0.1-0.259-0.185
		c-0.103,0.036-0.213,0.038-0.322,0.004l-0.576-0.192c-0.107-0.037-0.194-0.107-0.253-0.194c-0.102,0.032-0.215,0.033-0.322-0.009
		c-0.222-0.081-0.412-0.154-0.572-0.218c-0.019-0.007-0.03-0.021-0.047-0.03c-0.175,2.207-0.18,3.383,1.361,3.736
		c1.692,0.389,6.243,0.416,10.645,0.441l2.305,0.016c4.371,0.034,40.036,0.378,44.966,0.553c2.255,0.079,5.512,0.094,8.66,0.107
		c3.589,0.017,7.299,0.032,9.467,0.146c6.376,0.336,12.092,0.521,16.987,0.552l0.961,0.003c6.87,0,19.351-0.407,24.009-0.723
		c3.797-0.259,6.849-0.738,8.673-1.025c0.586-0.092,1.05-0.165,1.38-0.206c0.174-0.021,0.357-0.04,0.547-0.059
		c0.761-0.076,1.708-0.171,2.002-0.56c0.037-0.049,0.15-0.199,0.081-0.582C165.997,188.269,165.856,187.719,165.685,187.115z
		 M44.86,187.788c-0.116-0.001-0.218-0.031-0.303-0.092c-0.082,0.065-0.184,0.104-0.296,0.108l-0.605,0.015
		c-0.125-0.006-0.218-0.033-0.303-0.095c-0.083,0.064-0.187,0.104-0.3,0.105l-0.604,0.006c-0.154-0.004-0.217-0.036-0.301-0.099
		c-0.084,0.062-0.188,0.1-0.3,0.1c-0.001,0-0.002,0-0.002,0l-0.608-0.007c-0.114-0.002-0.218-0.043-0.301-0.108
		c-0.086,0.062-0.168,0.09-0.307,0.093c-0.208-0.007-0.412-0.017-0.609-0.027c-0.115-0.006-0.219-0.051-0.299-0.12
		c-0.089,0.056-0.196,0.087-0.308,0.078c-0.217-0.017-0.424-0.038-0.621-0.062c-0.115-0.015-0.218-0.067-0.294-0.145
		c-0.097,0.054-0.212,0.071-0.327,0.053c-0.219-0.04-0.421-0.085-0.606-0.136l0.248-0.969l0.021,0.006
		c0.153,0.041,0.328,0.08,0.518,0.114c0.104,0.02,0.195,0.069,0.266,0.141c0.087-0.049,0.192-0.073,0.299-0.057
		c0.182,0.022,0.373,0.042,0.572,0.057c0.111,0.009,0.211,0.053,0.289,0.12c0.085-0.055,0.191-0.088,0.298-0.078
		c0.191,0.011,0.388,0.019,0.588,0.025c0.111,0.004,0.213,0.044,0.294,0.108c0.085-0.06,0.18-0.094,0.3-0.093l0.593,0.007
		c0.111,0.001,0.214,0.037,0.296,0.099c0.083-0.062,0.186-0.099,0.297-0.1l0.596-0.006c0.123,0.01,0.216,0.034,0.3,0.095
		c0.082-0.064,0.185-0.104,0.297-0.105l0.596-0.015c0.107-0.006,0.218,0.031,0.303,0.092c0.082-0.065,0.184-0.104,0.296-0.108
		l0.576-0.019l0.055,0.999L44.86,187.788z M102.967,188.149l-0.601-0.024c-0.113-0.006-0.215-0.047-0.296-0.114
		c-0.085,0.059-0.178,0.092-0.304,0.087l-0.603-0.03c-0.112-0.006-0.215-0.049-0.295-0.115c-0.086,0.058-0.181,0.097-0.305,0.083
		L99.963,188c-0.113-0.007-0.215-0.051-0.294-0.119c-0.088,0.059-0.196,0.093-0.308,0.08l-0.601-0.042
		c-0.112-0.009-0.213-0.053-0.292-0.121c-0.088,0.057-0.202,0.084-0.308,0.076l-0.603-0.05c-0.112-0.01-0.213-0.056-0.29-0.126
		c-0.09,0.055-0.199,0.081-0.31,0.072l-0.533-0.052c-0.123-0.012-0.238-0.068-0.325-0.151c-0.092,0.064-0.21,0.101-0.326,0.091
		l-0.591-0.04c-0.111-0.007-0.212-0.049-0.292-0.115c-0.085,0.057-0.193,0.095-0.301,0.083l-0.595-0.024
		c-0.112-0.005-0.215-0.045-0.296-0.111c-0.086,0.06-0.196,0.088-0.303,0.09l-0.597-0.019c-0.111-0.003-0.214-0.043-0.296-0.108
		c-0.084,0.06-0.161,0.097-0.301,0.092l-0.599-0.015c-0.112-0.003-0.215-0.042-0.297-0.106c-0.082,0.059-0.184,0.094-0.292,0.094
		c-0.002,0-0.005,0-0.008,0l-0.565-0.01c-0.119-0.003-0.23-0.046-0.318-0.117c-0.085,0.067-0.191,0.106-0.308,0.106
		c-0.002,0-0.005,0-0.008,0l-0.599-0.009c-0.112-0.002-0.216-0.04-0.299-0.104c-0.084,0.061-0.154,0.086-0.301,0.095l-0.597-0.007
		c-0.112-0.001-0.216-0.039-0.299-0.103c-0.084,0.061-0.184,0.1-0.299,0.097l-0.59-0.005c-0.114-0.001-0.221-0.041-0.306-0.106
		c-0.085,0.064-0.197,0.102-0.306,0.101l-0.597-0.004c-0.113-0.001-0.217-0.038-0.301-0.102c-0.083,0.062-0.186,0.098-0.297,0.098
		c-0.001,0-0.002,0-0.003,0l-0.599-0.003c-0.112-0.001-0.216-0.038-0.3-0.101c-0.083,0.062-0.186,0.098-0.297,0.098l-0.599-0.002
		c-0.113-0.001-0.218-0.039-0.302-0.103c-0.084,0.062-0.188,0.1-0.3,0.1l-0.6-0.001c-0.112,0-0.216-0.037-0.3-0.1
		c-0.085,0.062-0.206,0.126-0.303,0.1l-0.597-0.001c-0.112,0-0.217-0.037-0.301-0.101c-0.083,0.062-0.187,0.1-0.299,0.1h-0.6
		c-0.112,0-0.216-0.037-0.3-0.1c-0.082,0.062-0.185,0.099-0.297,0.1l-0.604,0.001c-0.112,0-0.216-0.037-0.3-0.1
		c-0.083,0.062-0.186,0.099-0.297,0.1l-0.603,0.001c-0.112,0-0.216-0.037-0.299-0.1c-0.083,0.062-0.187,0.1-0.299,0.101
		l-0.602,0.002c0,0-0.001,0-0.002,0c-0.112,0-0.216-0.037-0.3-0.1c-0.084,0.063-0.188,0.102-0.302,0.102l-0.598,0.002
		c-0.091,0.033-0.218-0.037-0.302-0.1c-0.084,0.063-0.188,0.101-0.301,0.101l-0.597,0.002c-0.109-0.023-0.216-0.035-0.3-0.098
		c-0.083,0.062-0.187,0.1-0.298,0.101l-0.599,0.003c-0.148-0.029-0.218-0.035-0.301-0.099c-0.083,0.062-0.187,0.1-0.298,0.101
		l-0.598,0.003c-0.001,0-0.002,0-0.003,0c-0.111,0-0.214-0.036-0.297-0.098c-0.084,0.063-0.188,0.101-0.301,0.102l-0.599,0.003
		c-0.001,0-0.002,0-0.003,0c-0.112,0-0.215-0.037-0.299-0.099c-0.082,0.062-0.185,0.1-0.296,0.101l-0.6,0.004c0,0-0.001,0-0.002,0
		c-0.112,0-0.216-0.037-0.3-0.1c-0.083,0.064-0.187,0.103-0.299,0.104l-0.6,0.004c0,0-0.001,0-0.002,0
		c-0.112,0-0.216-0.037-0.299-0.099c-0.083,0.063-0.187,0.102-0.299,0.103l-0.6,0.004c0,0-0.001,0-0.002,0
		c-0.112,0-0.216-0.037-0.299-0.099c-0.083,0.063-0.187,0.102-0.299,0.103l-0.597,0.004c0,0-0.001,0-0.002,0
		c-0.112,0-0.217-0.037-0.301-0.1c-0.083,0.063-0.187,0.103-0.3,0.104l-0.597,0.004c0,0-0.001,0-0.002,0
		c-0.112,0-0.216-0.037-0.3-0.099c-0.083,0.063-0.187,0.103-0.3,0.104l-0.597,0.004c-0.117-0.033-0.219-0.036-0.304-0.1
		c-0.084,0.064-0.188,0.103-0.303,0.104l-0.597,0.005c-0.104-0.014-0.218-0.035-0.303-0.099c-0.083,0.064-0.188,0.102-0.301,0.103
		l-0.597,0.005c-0.149-0.022-0.217-0.035-0.302-0.098c-0.083,0.063-0.188,0.102-0.301,0.103l-0.597,0.005
		c-0.14-0.004-0.218-0.035-0.302-0.098c-0.084,0.063-0.188,0.102-0.302,0.103l-0.599,0.004c-0.133-0.011-0.218-0.035-0.301-0.099
		c-0.083,0.063-0.186,0.102-0.298,0.103l-0.585,0.004c0,0-0.001,0-0.002,0c-0.114,0-0.222-0.038-0.308-0.103
		c-0.083,0.065-0.188,0.105-0.304,0.106l-0.579,0.004c-0.103-0.043-0.227-0.038-0.314-0.105c-0.085,0.068-0.192,0.108-0.31,0.109
		l-0.6,0.003c-0.096,0.021-0.218-0.037-0.302-0.1c-0.084,0.063-0.188,0.102-0.302,0.102H53.24c-0.002,0-0.004,0-0.005,0
		c-0.111,0-0.215-0.036-0.298-0.099c-0.08,0.063-0.182,0.102-0.293,0.104l-0.598,0.01c-0.107,0.01-0.217-0.032-0.301-0.093
		c-0.081,0.062-0.182,0.102-0.293,0.105l-0.6,0.017c-0.112-0.001-0.217-0.03-0.303-0.091c-0.082,0.065-0.185,0.105-0.298,0.109
		l-0.598,0.02c-0.101-0.002-0.216-0.03-0.302-0.089c-0.081,0.066-0.185,0.107-0.297,0.111l-0.598,0.022
		c-0.138-0.001-0.22-0.03-0.305-0.089c-0.081,0.064-0.183,0.105-0.294,0.11l-0.599,0.023c-0.138,0.001-0.219-0.029-0.304-0.089
		c-0.081,0.065-0.183,0.106-0.295,0.111l-0.602,0.022c-0.293-0.015-0.508-0.207-0.518-0.482c-0.009-0.276,0.207-0.508,0.482-0.518
		l0.598-0.022c0.129-0.005,0.218,0.029,0.304,0.089c0.081-0.065,0.183-0.106,0.295-0.111l0.599-0.023
		c0.129-0.006,0.219,0.03,0.305,0.089c0.081-0.064,0.183-0.105,0.294-0.11l0.602-0.022c0.106-0.008,0.217,0.03,0.303,0.089
		c0.081-0.066,0.185-0.107,0.298-0.111l0.602-0.02c0.113-0.008,0.217,0.03,0.303,0.091c0.082-0.065,0.185-0.105,0.298-0.109
		l0.6-0.017c0.11,0.007,0.22,0.031,0.306,0.093c0.082-0.063,0.186-0.104,0.298-0.105l0.585-0.01
		c0.101,0.014,0.226,0.037,0.313,0.103c0.084-0.066,0.189-0.106,0.305-0.107h0.605c0.112,0,0.216,0.037,0.299,0.1
		c0.083-0.063,0.187-0.101,0.299-0.102l0.602-0.003c0,0,0.001,0,0.002,0c0.112,0,0.216,0.037,0.3,0.1
		c0.081-0.064,0.184-0.103,0.297-0.104l0.599-0.004c0.094-0.016,0.218,0.036,0.303,0.099c0.082-0.063,0.185-0.102,0.298-0.103
		l0.598-0.004c0.085-0.008,0.218,0.035,0.303,0.099c0.083-0.064,0.188-0.102,0.3-0.103l0.601-0.004c0,0,0.001,0,0.002,0
		c0.111,0,0.214,0.036,0.297,0.098c0.083-0.063,0.187-0.102,0.299-0.103l0.603-0.005c0,0,0.001,0,0.002,0
		c0.111,0,0.214,0.036,0.297,0.098c0.082-0.063,0.186-0.102,0.298-0.103l0.603-0.005c0,0,0.001,0,0.002,0
		c0.111,0,0.215,0.036,0.298,0.099c0.083-0.063,0.186-0.102,0.298-0.103l0.603-0.005c0,0,0.001,0,0.002,0
		c0.111,0,0.215,0.036,0.298,0.099c0.083-0.064,0.187-0.102,0.299-0.103l0.599-0.004c0.089-0.021,0.217,0.035,0.302,0.098
		c0.083-0.063,0.187-0.102,0.299-0.103l0.598-0.004c0.08-0.012,0.218,0.035,0.303,0.099c0.083-0.064,0.187-0.102,0.299-0.103
		l0.598-0.004c0.127-0.004,0.217,0.035,0.303,0.098c0.083-0.063,0.187-0.101,0.299-0.102l0.598-0.004
		c0.117,0.004,0.218,0.035,0.303,0.098c0.083-0.063,0.187-0.101,0.299-0.102l0.598-0.004c0.107-0.017,0.219,0.035,0.303,0.099
		c0.083-0.063,0.188-0.102,0.3-0.103l0.598-0.004c0.136-0.005,0.218,0.036,0.304,0.099c0.083-0.062,0.187-0.1,0.298-0.101l0.6-0.003
		c0.001,0,0.002,0,0.003,0c0.111,0,0.214,0.036,0.297,0.098c0.084-0.063,0.188-0.101,0.3-0.102l0.598-0.003
		c0.119-0.042,0.217,0.036,0.301,0.099c0.083-0.062,0.187-0.1,0.298-0.101l0.599-0.003c0.001,0,0.002,0,0.003,0
		c0.111,0,0.214,0.036,0.297,0.098c0.083-0.062,0.187-0.1,0.298-0.101l0.603-0.002c0.112,0,0.216,0.037,0.299,0.1
		c0.083-0.062,0.187-0.1,0.298-0.101l0.604-0.002c0.112,0,0.216,0.037,0.3,0.1c0.083-0.063,0.187-0.101,0.3-0.102l0.602-0.002
		c0,0,0.001,0,0.002,0c0.112,0,0.216,0.037,0.299,0.1c0.084-0.063,0.188-0.101,0.301-0.101l0.597-0.001
		c0.084,0.021,0.218,0.036,0.303,0.1c0.084-0.062,0.188-0.1,0.3-0.1l0.6-0.001c0,0,0.001,0,0.002,0c0.112,0,0.216,0.037,0.3,0.1
		c0.083-0.062,0.187-0.1,0.299-0.1h0.6c0.112,0,0.217,0.037,0.301,0.101c0.083-0.062,0.187-0.1,0.299-0.1l0.603,0.001
		c0.111,0.001,0.214,0.038,0.297,0.1c0.084-0.062,0.188-0.1,0.3-0.1l0.6,0.001c0.113,0,0.219,0.038,0.303,0.102
		c0.083-0.062,0.186-0.099,0.298-0.099c0.001,0,0.002,0,0.002,0l0.598,0.002c0.113,0,0.218,0.037,0.302,0.101
		c0.083-0.062,0.186-0.098,0.297-0.098c0.001,0,0.002,0,0.002,0l0.601,0.003c0.112,0.001,0.216,0.038,0.3,0.102
		c0.083-0.062,0.186-0.098,0.297-0.098c0.001,0,0.002,0,0.002,0l0.603,0.004c0.113,0.001,0.217,0.04,0.3,0.104
		c0.083-0.062,0.167-0.097,0.3-0.098l0.598,0.005c0.113,0.001,0.217,0.039,0.301,0.103c0.085-0.062,0.224-0.102,0.301-0.097
		l0.603,0.007c0.112,0.002,0.215,0.04,0.298,0.104c0.084-0.061,0.167-0.086,0.3-0.095l0.601,0.009
		c0.114,0.002,0.219,0.042,0.302,0.107c0.082-0.063,0.161-0.094,0.3-0.098l0.598,0.011c0.113,0.002,0.218,0.041,0.301,0.106
		c0.085-0.061,0.188-0.1,0.304-0.094l0.601,0.015c0.112,0.003,0.216,0.043,0.298,0.108c0.085-0.061,0.195-0.093,0.303-0.092
		l0.603,0.019c0.112,0.004,0.215,0.045,0.297,0.111c0.086-0.06,0.192-0.087,0.304-0.09l0.604,0.026
		c0.113,0.005,0.217,0.048,0.298,0.115c0.087-0.058,0.194-0.096,0.307-0.083c0.22,0.013,0.423,0.026,0.606,0.04
		c0.119,0.01,0.225,0.059,0.305,0.134c0.085-0.059,0.191-0.084,0.305-0.077l0.064,0.007l0.53,0.051
		c0.111,0.011,0.21,0.057,0.287,0.126c0.09-0.054,0.198-0.077,0.307-0.072l0.593,0.05c0.111,0.009,0.211,0.053,0.289,0.12
		c0.087-0.057,0.203-0.086,0.305-0.077l0.597,0.042c0.111,0.008,0.212,0.052,0.291,0.119c0.087-0.057,0.186-0.091,0.305-0.08
		l0.594,0.035c0.112,0.006,0.214,0.049,0.294,0.115c0.086-0.058,0.189-0.099,0.304-0.083l0.595,0.029
		c0.112,0.005,0.215,0.046,0.295,0.113c0.086-0.058,0.195-0.087,0.303-0.087l0.572,0.023l0.005,0.501L102.967,188.149z
		 M112.571,188.461c-0.006,0-0.013,0-0.02,0l-0.599-0.023c-0.112-0.005-0.215-0.046-0.296-0.111
		c-0.085,0.059-0.174,0.084-0.303,0.088l-0.602-0.026c-0.111-0.005-0.213-0.046-0.294-0.111c-0.085,0.059-0.188,0.088-0.302,0.087
		l-0.596-0.022c-0.113-0.004-0.216-0.045-0.297-0.11c-0.085,0.06-0.186,0.095-0.301,0.09l-0.6-0.018
		c-0.111-0.004-0.213-0.043-0.295-0.107c-0.085,0.062-0.196,0.088-0.304,0.093l-0.596-0.016c-0.113-0.003-0.218-0.043-0.3-0.108
		c-0.086,0.061-0.188,0.097-0.304,0.092l-0.597-0.016c-0.113-0.003-0.216-0.043-0.298-0.107c-0.085,0.06-0.163,0.087-0.302,0.092
		l-0.582-0.017c-0.115-0.003-0.223-0.046-0.308-0.114c-0.086,0.063-0.194,0.098-0.31,0.097l-0.563-0.019
		c-0.276-0.01-0.512-0.241-0.502-0.518c0.009-0.275,0.228-0.472,0.497-0.483l0.598,0.02c0.113,0.004,0.216,0.044,0.298,0.109
		c0.084-0.06,0.186-0.095,0.301-0.092l0.597,0.017c0.112,0.003,0.215,0.043,0.297,0.107c0.085-0.06,0.178-0.101,0.301-0.092
		l0.603,0.016c0.112,0.004,0.215,0.044,0.297,0.108c0.085-0.06,0.175-0.091,0.301-0.092l0.602,0.016
		c0.111,0.004,0.213,0.043,0.295,0.107c0.085-0.062,0.188-0.089,0.304-0.093l0.6,0.018c0.113,0.004,0.217,0.044,0.299,0.11
		c0.086-0.06,0.192-0.083,0.303-0.09l0.602,0.022c0.113,0.005,0.216,0.046,0.297,0.112c0.085-0.058,0.176-0.098,0.305-0.086
		l0.596,0.024c0.112,0.005,0.215,0.046,0.296,0.111c0.085-0.059,0.175-0.089,0.303-0.088l0.599,0.023
		c0.275,0.011,0.491,0.243,0.48,0.52C113.061,188.25,112.839,188.461,112.571,188.461z M116.167,188.579c-0.005,0-0.01,0-0.015,0
		l-0.599-0.018c-0.112-0.004-0.215-0.044-0.297-0.108c-0.085,0.061-0.188,0.095-0.302,0.091l-0.603-0.02
		c-0.112-0.004-0.215-0.045-0.296-0.11c-0.087,0.06-0.174,0.095-0.307,0.09l-0.539-0.02l-0.04-0.502l0.075-0.498l0.543,0.02
		c0.111,0.005,0.214,0.046,0.294,0.11c0.087-0.06,0.193-0.089,0.305-0.09l0.597,0.02c0.112,0.004,0.215,0.044,0.297,0.108
		c0.085-0.061,0.188-0.096,0.302-0.091l0.599,0.018c0.276,0.008,0.493,0.238,0.485,0.515
		C116.659,188.365,116.437,188.579,116.167,188.579z M123.356,188.703l-0.601-0.004c-0.112-0.001-0.217-0.039-0.3-0.104
		c-0.083,0.062-0.193,0.093-0.301,0.098l-0.6-0.006c-0.113-0.001-0.217-0.039-0.3-0.104c-0.084,0.062-0.213,0.1-0.301,0.096
		l-0.601-0.009c-0.112-0.002-0.216-0.041-0.299-0.104c-0.084,0.061-0.198,0.104-0.302,0.094l-0.6-0.012
		c-0.112-0.002-0.215-0.041-0.297-0.104c-0.084,0.062-0.198,0.108-0.303,0.095l-0.603-0.014c-0.112-0.003-0.215-0.042-0.297-0.107
		c-0.085,0.062-0.191,0.092-0.304,0.093l-0.568-0.015l-0.017-0.501l0.041-0.499l0.573,0.015c0.111,0.004,0.213,0.043,0.295,0.107
		c0.084-0.061,0.162-0.097,0.302-0.093l0.597,0.014c0.112,0.002,0.215,0.041,0.297,0.104c0.084-0.061,0.2-0.083,0.303-0.095
		l0.6,0.012c0.112,0.002,0.215,0.041,0.297,0.104c0.083-0.06,0.138-0.083,0.3-0.094l0.599,0.009c0.112,0.002,0.215,0.04,0.298,0.104
		c0.084-0.062,0.166-0.102,0.299-0.096l0.6,0.006c0.112,0.001,0.217,0.039,0.299,0.104c0.084-0.062,0.195-0.1,0.302-0.098
		l0.594,0.004L123.356,188.703z M138.971,188.412l-0.598,0.017c-0.113-0.002-0.218-0.031-0.303-0.092
		c-0.082,0.065-0.186,0.105-0.299,0.108l-0.598,0.017c-0.115-0.001-0.218-0.031-0.304-0.092c-0.082,0.065-0.187,0.105-0.3,0.108
		l-0.598,0.017c-0.116-0.001-0.217-0.03-0.303-0.091c-0.081,0.064-0.184,0.104-0.295,0.107l-0.588,0.015
		c-0.155,0.022-0.224-0.033-0.311-0.096c-0.083,0.067-0.188,0.109-0.303,0.113l-0.588,0.015c-0.097,0.022-0.222-0.032-0.311-0.096
		c-0.083,0.067-0.188,0.109-0.304,0.112l-0.599,0.015c-0.148,0.001-0.219-0.032-0.303-0.093c-0.083,0.065-0.187,0.105-0.3,0.107
		l-0.598,0.014c-0.156,0-0.218-0.032-0.303-0.093c-0.082,0.064-0.185,0.104-0.298,0.107l-0.567,0.012
		c-0.115-0.007-0.232-0.037-0.323-0.104c-0.084,0.071-0.192,0.115-0.312,0.117l-0.6,0.012c-0.112-0.014-0.219-0.034-0.303-0.095
		c-0.083,0.064-0.186,0.104-0.298,0.105l-0.559,0.009c-0.003,0-0.006,0-0.008,0c-0.118,0-0.231-0.041-0.321-0.109
		c-0.086,0.072-0.195,0.116-0.316,0.118l-0.562,0.007c-0.154-0.016-0.234-0.041-0.326-0.11c-0.087,0.071-0.197,0.114-0.317,0.115
		l-0.524,0.001c-0.127,0-0.251-0.047-0.348-0.125c-0.088,0.077-0.204,0.124-0.33,0.124l-0.603-0.002
		c-0.275-0.001-0.498-0.227-0.497-0.503c0.001-0.274,0.225-0.497,0.5-0.497c0.001,0,0.002,0,0.003,0l0.597,0.002
		c0.116,0,0.223,0.04,0.308,0.106c0.077-0.066,0.177-0.105,0.292-0.105l0.597-0.001c0.137,0.026,0.22,0.036,0.304,0.101
		c0.079-0.065,0.181-0.104,0.295-0.105l0.599-0.007c0.139,0.009,0.221,0.036,0.306,0.1c0.079-0.065,0.18-0.105,0.294-0.107
		l0.044-0.001l0.555-0.009c0.134-0.016,0.218,0.033,0.303,0.095c0.082-0.064,0.186-0.104,0.298-0.105l0.6-0.012
		c0.004,0,0.007,0,0.01,0c0.11,0,0.213,0.036,0.295,0.097c0.08-0.066,0.181-0.106,0.295-0.108l0.035-0.001l0.563-0.012
		c0.104-0.011,0.217,0.032,0.302,0.093c0.082-0.064,0.185-0.104,0.297-0.107l0.604-0.014c0.122,0.006,0.216,0.032,0.3,0.093
		c0.082-0.064,0.185-0.104,0.297-0.107l0.601-0.015c0.118-0.01,0.217,0.032,0.303,0.093c0.081-0.065,0.183-0.105,0.296-0.108
		l0.598-0.016c0.119,0.006,0.22,0.031,0.306,0.093c0.081-0.065,0.184-0.106,0.297-0.109l0.599-0.016
		c0.108,0.002,0.217,0.03,0.303,0.091c0.081-0.064,0.184-0.104,0.295-0.107l0.604-0.017c0.104,0.002,0.216,0.032,0.301,0.092
		c0.082-0.064,0.185-0.104,0.297-0.108l0.604-0.017c0.1-0.007,0.216,0.032,0.3,0.092c0.082-0.065,0.184-0.104,0.296-0.108
		l0.604-0.017c0.282,0.022,0.505,0.212,0.512,0.488C139.466,188.176,139.247,188.405,138.971,188.412z M140.171,188.378
		l-0.581,0.016l-0.032-0.499l0.003-0.5l0.585-0.017c0.005,0,0.009,0,0.013,0c0.271,0,0.493,0.216,0.5,0.487
		C140.665,188.142,140.446,188.371,140.171,188.378z M141.37,188.345l-0.58,0.016l-0.032-0.499l0.004-0.5l0.583-0.017
		c0.005,0,0.009,0,0.013,0c0.271,0,0.493,0.216,0.5,0.487C141.864,188.108,141.646,188.338,141.37,188.345z M142.571,188.311
		l-0.563,0.016l-0.05-0.499l0.021-0.501l0.567-0.016c0.005,0,0.009,0,0.013,0c0.271,0,0.493,0.216,0.5,0.487
		C143.065,188.074,142.847,188.304,142.571,188.311z M146.17,188.215l-0.602,0.015c-0.12-0.004-0.218-0.032-0.302-0.093
		c-0.081,0.064-0.184,0.104-0.295,0.107l-0.6,0.017c-0.115-0.002-0.218-0.031-0.304-0.092c-0.082,0.065-0.186,0.105-0.298,0.108
		l-0.563,0.016l-0.05-0.499l0.021-0.501l0.567-0.016c0.142-0.006,0.217,0.032,0.302,0.092c0.081-0.065,0.184-0.104,0.296-0.108
		l0.6-0.017c0.117,0,0.219,0.031,0.305,0.093c0.082-0.064,0.185-0.104,0.298-0.107l0.6-0.015c0.005,0,0.009,0,0.013,0
		c0.271,0,0.493,0.216,0.5,0.487C146.664,187.979,146.445,188.208,146.17,188.215z M153.994,187.97
		c-0.104,0.008-0.22-0.023-0.308-0.081c-0.079,0.068-0.181,0.112-0.294,0.119l-0.603,0.035c-0.123,0.014-0.22-0.025-0.307-0.084
		c-0.081,0.067-0.184,0.11-0.298,0.115l-0.601,0.028c-0.129,0.019-0.222-0.028-0.308-0.088c-0.081,0.066-0.184,0.107-0.297,0.112
		c-0.214,0.008-0.419,0.013-0.61,0.016c-0.104-0.008-0.221-0.034-0.306-0.099c-0.083,0.063-0.188,0.102-0.3,0.103l-0.598,0.006
		c-0.003,0-0.005,0-0.007,0c-0.11,0-0.212-0.035-0.295-0.096c-0.081,0.063-0.184,0.103-0.295,0.104l-0.603,0.012
		c-0.101,0.013-0.217-0.033-0.301-0.094c-0.082,0.064-0.186,0.104-0.299,0.106l-0.511,0.012l-0.1-0.498l0.076-0.502l0.515-0.012
		c0.11-0.002,0.218,0.034,0.302,0.094c0.082-0.064,0.187-0.104,0.3-0.106l0.599-0.012c0.158,0.012,0.221,0.034,0.306,0.096
		c0.082-0.064,0.187-0.103,0.299-0.104l0.605-0.006c0.125,0.012,0.217,0.035,0.301,0.099c0.082-0.062,0.184-0.101,0.295-0.103
		c0.186-0.003,0.383-0.008,0.589-0.016c0.105,0.001,0.218,0.029,0.304,0.089c0.08-0.065,0.182-0.106,0.293-0.111l0.599-0.028
		c0.105-0.021,0.217,0.026,0.303,0.084c0.08-0.066,0.182-0.109,0.294-0.115l0.595-0.035c0.126-0.008,0.221,0.024,0.307,0.081
		c0.079-0.068,0.181-0.112,0.293-0.119l0.55-0.037l0.115,0.995L153.994,187.97z"/>
</g>
</svg>
