<?xml version="1.0" encoding="utf-8"?>
<!-- Generator: Adobe Illustrator 16.0.0, SVG Export Plug-In . SVG Version: 6.00 Build 0)  -->
<!DOCTYPE svg PUBLIC "-//W3C//DTD SVG 1.1//EN" "http://www.w3.org/Graphics/SVG/1.1/DTD/svg11.dtd">
<svg version="1.1" id="Layer_1" xmlns="http://www.w3.org/2000/svg" xmlns:xlink="http://www.w3.org/1999/xlink" x="0px" y="0px"
	 width="200px" height="200px" viewBox="0 0 200 200" enable-background="new 0 0 200 200" xml:space="preserve">
<path fill="#FFFFFF" d="M152.014,13.729c0,1.03-0.193,3.574-0.334,5.432c-0.051,0.643-0.092,1.185-0.113,1.515
	c-0.024,0.395-0.098,1.138-0.188,2.065c-0.203,2.065-0.48,4.894-0.537,6.931c-0.049,1.788,0.188,3.524,0.375,4.919
	c0.124,0.915,0.23,1.704,0.23,2.304c0,0.542,0.085,1.574,0.188,2.659c0.157-0.464,0.375-1,0.7-1.677
	c1.103-2.293,5.213-9.505,7.574-12.792c0.589-0.821,1.104-1.527,1.547-2.131c0.858-1.176,1.562-2.136,1.76-2.544
	c-0.221-0.145-0.646-0.38-1.06-0.61c-1.354-0.751-3.62-2.007-5.653-3.74c-1.501-1.278-2.913-2.41-4.437-3.283
	C152.037,13.004,152.014,13.312,152.014,13.729z"/>
<path fill="#FFFFFF" d="M37.742,26.446c1.271,1.649,2.472,3.206,2.927,3.88c0.157,0.232,0.361,0.522,0.598,0.859
	c1.336,1.904,3.822,5.448,4.821,8.448c0.681,2.042,1.191,3.852,1.551,5.451c0.021-0.24,0.037-0.493,0.056-0.785
	c0.066-1.035,0.158-2.451,0.585-5.267c0.633-4.17,1.253-12.821-0.438-18.792c-1.202-4.25-1.945-6.863-2.273-8.016
	c-0.678,0.519-1.374,1.124-2.026,1.692c-0.938,0.818-1.748,1.524-2.401,1.897c-0.523,0.299-1.487,0.968-2.509,1.677
	c-2.722,1.888-4.072,2.781-4.688,2.812c-0.063,0.072-0.076,0.36,0.175,1.226C34.306,21.991,36.292,24.566,37.742,26.446z"/>
<path fill="#FFFFFF" d="M65.667,14.345c0.286,1.391,2.194,8.867,2.865,10.546c0.659,1.645,4.751,8.615,7.068,11.437
	c6.521,7.943,9.587,10.614,11.011,11.456c2.918,1.727,8.14,3.666,13.207,3.46c3.435-0.142,11.858-0.855,15.892-4.426
	c0.824-0.729,1.699-1.429,2.624-2.168c3.137-2.508,6.689-5.35,8.861-10.083c3.048-6.638,3.472-13.477,3.527-15.415
	c0.024-0.81,0.084-1.708,0.144-2.628c0.149-2.313,0.305-4.705-0.043-6.125c-0.269-1.093-0.604-1.813-0.849-2.241
	c-0.142,0.328-0.312,0.796-0.447,1.177c-0.295,0.814-0.598,1.657-0.937,2.22c-0.073,0.123-0.228,0.393-0.448,0.779
	c-1.795,3.144-7.259,12.712-10.177,15.009c-3.899,3.069-13.274,6.458-15.646,6.944c-1.717,0.352-4.155,0.25-7.248-0.296
	c-3.639-0.642-11.428-3.078-15.991-5.804c-2.606-1.558-7.448-7.139-9.517-9.522c-0.337-0.389-0.586-0.676-0.717-0.82
	c-0.445-0.487-2.696-3.018-3.26-4.96c-0.058-0.2-0.117-0.422-0.178-0.649C65.484,13.087,65.571,13.881,65.667,14.345z"/>
<path fill="#FFFFFF" d="M165.686,187.115c-0.029-0.01-0.058-0.018-0.084-0.03c-0.07,0.044-0.148,0.077-0.238,0.081
	c-0.184,0.008-0.393,0.016-0.607,0.02c-0.102-0.008-0.221-0.033-0.307-0.096c-0.081,0.062-0.182,0.102-0.292,0.104
	c-0.115,0.004-0.312,0.016-0.578,0.035c-0.104,0.006-0.218-0.021-0.306-0.078c-0.078,0.067-0.178,0.113-0.289,0.121l-0.599,0.049
	c-0.11,0.007-0.22-0.021-0.308-0.075c-0.078,0.069-0.18,0.114-0.292,0.124l-0.601,0.049c-0.109,0.008-0.218-0.02-0.306-0.074
	c-0.078,0.069-0.18,0.115-0.292,0.124l-0.598,0.05c-0.12,0.008-0.221-0.021-0.309-0.076c-0.078,0.069-0.181,0.115-0.293,0.125
	l-0.597,0.049c-0.108,0.009-0.22-0.021-0.31-0.075c-0.078,0.069-0.18,0.114-0.291,0.123l-0.6,0.047
	c-0.109,0.015-0.22-0.021-0.309-0.077c-0.078,0.069-0.18,0.114-0.291,0.123l-0.604,0.047c-0.104,0.008-0.217-0.021-0.306-0.078
	c-0.079,0.069-0.181,0.114-0.292,0.123l-0.602,0.043c-0.012,0.002-0.022,0.002-0.035,0.002c-0.26,0-0.479-0.203-0.498-0.467
	c-0.019-0.275,0.189-0.514,0.466-0.533l0.595-0.043c0.11-0.008,0.219,0.021,0.307,0.078c0.08-0.068,0.181-0.113,0.293-0.123
	l0.598-0.045c0.111-0.017,0.22,0.02,0.309,0.077c0.078-0.069,0.18-0.114,0.291-0.123l0.6-0.047c0.101-0.017,0.217,0.021,0.307,0.075
	c0.078-0.068,0.178-0.114,0.29-0.123l0.599-0.049c0.11-0.008,0.219,0.02,0.309,0.074c0.078-0.068,0.179-0.115,0.291-0.123l0.6-0.049
	c0.11-0.009,0.219,0.019,0.307,0.073c0.078-0.069,0.18-0.114,0.291-0.124l0.601-0.049c0.11-0.008,0.219,0.02,0.308,0.075
	c0.077-0.069,0.178-0.115,0.29-0.124l0.601-0.049c0.111-0.008,0.222,0.021,0.311,0.078c0.079-0.069,0.182-0.115,0.294-0.123
	c0.287-0.021,0.5-0.033,0.623-0.037c0.151,0,0.222,0.033,0.308,0.097c0.082-0.062,0.184-0.101,0.293-0.104
	c0.211-0.004,0.41-0.012,0.59-0.02c0.031,0,0.059,0.012,0.089,0.018c-0.356-1.166-0.778-2.422-1.11-3.406l-0.292-0.867
	c-0.347-1.039-0.872-3.809-1.38-6.484c-0.391-2.05-0.757-3.986-1.014-4.988c-0.637-2.512-5.41-26.177-5.877-29.398
	c-0.476-3.282-1.072-11.273-1.195-14.553c-0.032-0.86-0.113-2.131-0.208-3.616c-0.278-4.417-0.663-10.468-0.345-13.761
	c0.435-4.471,0.676-13.941,0.637-17.17c-0.042-3.445,0.329-7.578,0.945-10.527c0.281-1.346,0.431-2.858,0.562-4.193
	c0.149-1.515,0.277-2.823,0.562-3.649c0.514-1.497,2.565-7.054,3.041-8.048c0.313-0.656-0.276-1.677-1.808-3.122
	c-0.196-0.186-0.462-0.42-0.776-0.699c-2.256-1.989-6.947-6.129-6.947-10.552c0-3.296,0.486-5.813,0.809-7.479
	c0-0.001,0.002-0.003,0.002-0.004c-0.012-0.357-0.109-1.334-0.213-2.375c-0.166-1.653-0.354-3.526-0.354-4.395
	c0-0.532-0.104-1.291-0.223-2.169c-0.192-1.431-0.435-3.211-0.384-5.081c0.058-2.073,0.337-4.922,0.541-7.002
	c0.091-0.911,0.162-1.642,0.187-2.031c0.021-0.333,0.063-0.879,0.113-1.527c0.133-1.737,0.332-4.363,0.332-5.355
	c0-0.667,0.057-1.123,0.122-1.435c-1.405-0.679-2.926-1.139-4.721-1.261c-2.649-0.18-4.813-0.562-6.724-0.899
	c-1.256-0.222-2.443-0.431-3.586-0.548c-1.5-0.154-3.013-0.688-4.187-1.12c0.308,0.652,0.569,1.535,0.569,2.706
	c0,0.332,0.006,0.745,0.012,1.226c0.047,3.396,0.133,9.716-1.219,15.224c-1.399,5.724-2.867,9.206-4.906,11.641
	c-1.766,2.111-6.042,5.972-7.688,7.261c-1.752,1.373-4.209,3.177-5.972,3.974c-1.1,0.497-7.848,2.276-14.125,2.276
	c-2.538,0-4.998-0.291-6.978-1.074c-6.671-2.644-7.244-3.23-10.975-7.049c-3.935-4.025-6.918-7.56-8.402-9.951l-0.419-0.672
	c-1.515-2.422-3.803-6.083-4.948-9.557c-1.174-3.562-2.684-8.857-2.87-10.344c-0.141-1.126-0.306-4.175-0.364-5.307
	c-0.978,0.015-2.64,0.092-3.679,0.141l-0.67,0.031c-1.765,0.078-10.038,1.334-11.95,2.131c-0.285,0.119-0.59,0.288-0.904,0.49
	c0.26,0.914,1.029,3.62,2.371,8.357c1.736,6.136,1.107,14.965,0.463,19.215c-0.42,2.772-0.51,4.164-0.575,5.18
	c-0.038,0.605-0.069,1.083-0.156,1.627c-0.192,1.198-0.341,1.901-0.385,2.104c0.096,0.924,0.117,1.744,0.043,2.426
	c-0.354,3.291-3.275,6.894-3.857,7.583c-1.147,1.36-3.06,3.236-3.819,3.817c-0.15,0.115-0.351,0.245-0.571,0.386
	c-1.007,0.647-1.544,1.093-1.312,1.457c0.783,1.221,1.477,10.159,1.396,11.4c-0.039,0.608-0.229,1.113-0.429,1.647
	c-0.271,0.726-0.553,1.476-0.506,2.64c0.041,1.045,0.736,8.44,1.408,15.591c0.697,7.418,1.418,15.088,1.524,16.848
	c0.217,3.527-0.518,21.484-1.152,25.582l-0.249,1.606c-0.854,5.493-2.628,16.924-3.236,21.938c-0.168,1.391-0.379,3.217-0.606,5.196
	c-0.882,7.646-1.583,13.577-1.923,14.63c-0.392,1.207-0.597,2.809-0.745,4.44c0.031,0.024,0.061,0.051,0.085,0.082
	c0.08-0.011,0.163-0.009,0.243,0.022c0.154,0.062,0.337,0.131,0.549,0.211c0.104,0.037,0.187,0.105,0.243,0.189
	c0.097-0.03,0.206-0.031,0.312,0.005l0.561,0.187c0.104,0.035,0.189,0.101,0.249,0.183c0.096-0.033,0.207-0.039,0.312-0.007
	l0.567,0.168c0.265,0.076,0.418,0.354,0.342,0.619c-0.063,0.219-0.263,0.361-0.48,0.361c-0.046,0-0.092-0.007-0.139-0.021
	l-0.581-0.172c-0.108-0.033-0.197-0.101-0.259-0.185c-0.103,0.035-0.213,0.037-0.322,0.004l-0.576-0.192
	c-0.107-0.037-0.194-0.107-0.253-0.194c-0.102,0.032-0.215,0.033-0.322-0.009c-0.222-0.081-0.412-0.154-0.572-0.218
	c-0.019-0.008-0.03-0.021-0.047-0.03c-0.175,2.207-0.18,3.383,1.361,3.735c1.692,0.39,6.243,0.416,10.645,0.441l2.305,0.016
	c4.371,0.035,40.036,0.379,44.966,0.554c2.255,0.079,5.512,0.094,8.66,0.106c3.59,0.018,7.299,0.032,9.467,0.146
	c6.377,0.336,12.092,0.521,16.987,0.552l0.961,0.003c6.87,0,19.351-0.406,24.009-0.723c3.797-0.26,6.85-0.738,8.674-1.025
	c0.586-0.092,1.049-0.164,1.379-0.205c0.175-0.021,0.357-0.041,0.547-0.06c0.762-0.076,1.709-0.171,2.003-0.56
	c0.036-0.049,0.149-0.199,0.081-0.582C165.997,188.27,165.855,187.719,165.686,187.115z M44.86,187.788
	c-0.116-0.001-0.218-0.031-0.303-0.093c-0.082,0.065-0.184,0.104-0.296,0.109l-0.605,0.014c-0.125-0.006-0.218-0.032-0.303-0.094
	c-0.083,0.063-0.187,0.104-0.3,0.104l-0.604,0.006c-0.154-0.004-0.217-0.036-0.301-0.099c-0.084,0.062-0.188,0.1-0.3,0.1
	c-0.001,0-0.002,0-0.002,0l-0.608-0.007c-0.114-0.002-0.218-0.043-0.301-0.108c-0.086,0.062-0.168,0.09-0.307,0.094
	c-0.208-0.008-0.412-0.018-0.609-0.027c-0.115-0.006-0.219-0.051-0.299-0.12c-0.089,0.056-0.196,0.087-0.308,0.078
	c-0.217-0.017-0.424-0.038-0.621-0.062c-0.115-0.016-0.218-0.067-0.294-0.146c-0.097,0.054-0.212,0.071-0.327,0.053
	c-0.219-0.04-0.421-0.085-0.606-0.136l0.248-0.969l0.021,0.006c0.153,0.041,0.328,0.08,0.518,0.113
	c0.104,0.021,0.195,0.069,0.266,0.142c0.087-0.049,0.192-0.073,0.299-0.058c0.182,0.022,0.373,0.043,0.572,0.058
	c0.111,0.009,0.211,0.053,0.289,0.12c0.085-0.055,0.191-0.088,0.298-0.078c0.191,0.011,0.388,0.02,0.588,0.025
	c0.111,0.004,0.213,0.043,0.294,0.107c0.085-0.061,0.18-0.094,0.3-0.093l0.593,0.007c0.111,0.001,0.214,0.037,0.296,0.1
	c0.083-0.062,0.186-0.1,0.297-0.101l0.596-0.006c0.123,0.01,0.216,0.034,0.3,0.095c0.082-0.064,0.185-0.104,0.297-0.105l0.596-0.014
	c0.107-0.007,0.218,0.03,0.303,0.092c0.082-0.065,0.184-0.104,0.296-0.108l0.576-0.019l0.055,0.998L44.86,187.788z M102.967,188.148
	l-0.601-0.023c-0.113-0.006-0.216-0.047-0.296-0.114c-0.086,0.06-0.178,0.093-0.305,0.087l-0.603-0.029
	c-0.112-0.006-0.215-0.049-0.295-0.115c-0.086,0.058-0.181,0.097-0.306,0.083l-0.6-0.036c-0.113-0.007-0.215-0.051-0.294-0.119
	c-0.088,0.059-0.196,0.094-0.308,0.08l-0.601-0.042c-0.112-0.009-0.213-0.053-0.292-0.121c-0.088,0.058-0.202,0.084-0.308,0.076
	l-0.603-0.05c-0.112-0.01-0.213-0.057-0.29-0.126c-0.09,0.055-0.199,0.081-0.31,0.071l-0.533-0.052
	c-0.123-0.012-0.238-0.067-0.325-0.151c-0.092,0.064-0.21,0.102-0.326,0.092l-0.591-0.04c-0.111-0.007-0.212-0.05-0.292-0.115
	c-0.085,0.058-0.193,0.095-0.301,0.083l-0.595-0.023c-0.112-0.006-0.215-0.045-0.296-0.111c-0.086,0.06-0.196,0.088-0.303,0.09
	l-0.597-0.02c-0.111-0.002-0.214-0.043-0.296-0.107c-0.084,0.061-0.161,0.097-0.301,0.092l-0.599-0.015
	c-0.112-0.003-0.215-0.042-0.297-0.106c-0.082,0.059-0.184,0.094-0.292,0.094c-0.002,0-0.005,0-0.008,0l-0.565-0.01
	c-0.119-0.003-0.23-0.046-0.318-0.117c-0.085,0.067-0.191,0.106-0.308,0.106c-0.002,0-0.005,0-0.008,0l-0.599-0.009
	c-0.112-0.002-0.216-0.04-0.299-0.104c-0.084,0.062-0.154,0.087-0.301,0.095l-0.597-0.006c-0.112-0.002-0.216-0.039-0.299-0.104
	c-0.084,0.061-0.184,0.1-0.299,0.097l-0.59-0.005c-0.114-0.001-0.221-0.041-0.306-0.105c-0.085,0.063-0.197,0.102-0.306,0.101
	l-0.597-0.004c-0.113-0.001-0.217-0.038-0.301-0.103c-0.083,0.062-0.186,0.099-0.297,0.099c-0.001,0-0.002,0-0.003,0l-0.599-0.003
	c-0.112-0.002-0.216-0.038-0.3-0.102c-0.083,0.062-0.186,0.098-0.297,0.098l-0.599-0.002c-0.113,0-0.218-0.039-0.302-0.103
	c-0.084,0.062-0.188,0.101-0.3,0.101l-0.6-0.002c-0.112,0-0.216-0.037-0.3-0.1c-0.085,0.062-0.206,0.126-0.303,0.1h-0.597
	c-0.112,0-0.217-0.037-0.301-0.102c-0.083,0.062-0.187,0.1-0.299,0.1h-0.6c-0.112,0-0.216-0.037-0.3-0.1
	c-0.082,0.062-0.185,0.1-0.297,0.1l-0.604,0.002c-0.112,0-0.216-0.037-0.3-0.101c-0.083,0.062-0.186,0.099-0.297,0.101h-0.603
	c-0.112,0-0.216-0.037-0.299-0.1c-0.083,0.062-0.187,0.1-0.299,0.102l-0.602,0.002c0,0-0.001,0-0.002,0
	c-0.112,0-0.216-0.037-0.3-0.101c-0.084,0.063-0.188,0.103-0.302,0.103l-0.598,0.002c-0.091,0.033-0.218-0.037-0.302-0.101
	c-0.084,0.063-0.188,0.101-0.301,0.101l-0.597,0.003c-0.109-0.023-0.216-0.035-0.3-0.099c-0.083,0.062-0.187,0.101-0.298,0.102
	l-0.599,0.003c-0.148-0.029-0.218-0.035-0.301-0.099c-0.083,0.062-0.187,0.1-0.298,0.101l-0.598,0.003c-0.001,0-0.002,0-0.003,0
	c-0.111,0-0.214-0.036-0.297-0.098c-0.084,0.062-0.188,0.101-0.301,0.102l-0.599,0.003c-0.001,0-0.002,0-0.003,0
	c-0.112,0-0.215-0.036-0.299-0.099c-0.082,0.062-0.185,0.1-0.296,0.101l-0.6,0.005c0,0-0.001,0-0.002,0
	c-0.112,0-0.216-0.037-0.3-0.101c-0.083,0.063-0.187,0.103-0.299,0.104l-0.6,0.004c0,0-0.001,0-0.002,0
	c-0.112,0-0.216-0.037-0.299-0.1c-0.083,0.062-0.187,0.102-0.299,0.104l-0.6,0.004c0,0-0.001,0-0.002,0
	c-0.112,0-0.216-0.037-0.299-0.1c-0.083,0.063-0.187,0.103-0.299,0.104l-0.597,0.004c0,0-0.001,0-0.002,0
	c-0.112,0-0.217-0.037-0.301-0.1c-0.083,0.062-0.187,0.103-0.3,0.104l-0.597,0.004c0,0-0.001,0-0.002,0
	c-0.112,0-0.216-0.037-0.3-0.1c-0.083,0.063-0.187,0.104-0.3,0.104l-0.597,0.005c-0.117-0.033-0.219-0.037-0.304-0.101
	c-0.084,0.063-0.188,0.103-0.303,0.104l-0.597,0.004c-0.104-0.014-0.218-0.035-0.303-0.099c-0.083,0.063-0.188,0.103-0.301,0.103
	l-0.597,0.006c-0.149-0.022-0.217-0.035-0.302-0.098c-0.083,0.062-0.188,0.102-0.301,0.103l-0.597,0.005
	c-0.14-0.004-0.218-0.035-0.302-0.098c-0.084,0.062-0.188,0.102-0.302,0.103l-0.599,0.004c-0.133-0.011-0.218-0.034-0.301-0.099
	c-0.083,0.062-0.186,0.102-0.298,0.103l-0.585,0.005c0,0-0.001,0-0.002,0c-0.114,0-0.222-0.039-0.308-0.104
	c-0.083,0.064-0.188,0.105-0.304,0.105l-0.579,0.004c-0.103-0.043-0.227-0.037-0.314-0.104c-0.085,0.067-0.192,0.108-0.31,0.108
	l-0.6,0.004c-0.096,0.021-0.218-0.037-0.302-0.1c-0.084,0.062-0.188,0.102-0.302,0.102h-0.57c-0.002,0-0.004,0-0.005,0
	c-0.111,0-0.215-0.036-0.298-0.1c-0.08,0.063-0.182,0.103-0.293,0.104l-0.598,0.01c-0.107,0.011-0.217-0.032-0.301-0.093
	c-0.081,0.062-0.182,0.102-0.293,0.105l-0.6,0.017c-0.112-0.001-0.217-0.03-0.303-0.091c-0.082,0.064-0.185,0.104-0.298,0.108
	l-0.598,0.021c-0.101-0.002-0.216-0.03-0.302-0.09c-0.081,0.066-0.185,0.107-0.297,0.111l-0.598,0.022
	c-0.138-0.001-0.22-0.03-0.305-0.089c-0.081,0.063-0.183,0.104-0.294,0.109l-0.599,0.023c-0.138,0.001-0.219-0.029-0.304-0.09
	c-0.081,0.065-0.183,0.106-0.295,0.111l-0.602,0.022c-0.293-0.015-0.508-0.207-0.518-0.482c-0.009-0.276,0.207-0.508,0.482-0.518
	l0.598-0.022c0.129-0.005,0.218,0.029,0.304,0.09c0.081-0.065,0.183-0.106,0.295-0.111l0.599-0.023
	c0.129-0.006,0.219,0.03,0.305,0.09c0.081-0.064,0.183-0.105,0.294-0.11l0.602-0.022c0.106-0.008,0.217,0.03,0.303,0.09
	c0.081-0.066,0.185-0.107,0.298-0.111l0.602-0.021c0.113-0.008,0.217,0.03,0.303,0.091c0.082-0.064,0.185-0.104,0.298-0.108
	l0.6-0.017c0.11,0.006,0.22,0.03,0.306,0.092c0.082-0.062,0.186-0.104,0.298-0.104l0.585-0.01c0.101,0.014,0.226,0.037,0.313,0.103
	c0.084-0.065,0.189-0.105,0.305-0.106h0.605c0.112,0,0.216,0.036,0.299,0.1c0.083-0.063,0.187-0.101,0.299-0.103l0.602-0.002
	c0,0,0.001,0,0.002,0c0.112,0,0.216,0.037,0.3,0.1c0.081-0.064,0.184-0.104,0.297-0.104l0.599-0.004
	c0.094-0.017,0.218,0.035,0.303,0.099c0.082-0.063,0.185-0.103,0.298-0.103l0.598-0.005c0.085-0.008,0.218,0.035,0.303,0.099
	c0.083-0.063,0.188-0.102,0.3-0.103l0.601-0.004c0,0,0.001,0,0.002,0c0.111,0,0.214,0.036,0.297,0.099
	c0.083-0.063,0.187-0.103,0.299-0.104l0.603-0.005c0,0,0.001,0,0.002,0c0.111,0,0.214,0.036,0.297,0.098
	c0.082-0.063,0.186-0.102,0.298-0.103l0.603-0.006c0,0,0.001,0,0.002,0c0.111,0,0.215,0.037,0.298,0.1
	c0.083-0.062,0.186-0.102,0.298-0.104l0.603-0.004c0,0,0.001,0,0.002,0c0.111,0,0.215,0.035,0.298,0.099
	c0.083-0.064,0.187-0.103,0.299-0.103l0.599-0.005c0.089-0.021,0.217,0.035,0.302,0.099c0.083-0.063,0.187-0.103,0.299-0.104
	l0.598-0.004c0.08-0.012,0.218,0.035,0.303,0.1c0.083-0.064,0.187-0.103,0.299-0.104l0.598-0.004
	c0.127-0.004,0.217,0.035,0.303,0.098c0.083-0.062,0.187-0.101,0.299-0.102l0.598-0.004c0.117,0.004,0.218,0.035,0.303,0.098
	c0.083-0.062,0.187-0.102,0.299-0.102l0.598-0.004c0.107-0.018,0.219,0.035,0.303,0.099c0.083-0.063,0.188-0.103,0.3-0.103
	l0.598-0.005c0.136-0.005,0.218,0.036,0.304,0.099c0.083-0.062,0.187-0.1,0.298-0.101l0.6-0.003c0.001,0,0.002,0,0.003,0
	c0.111,0,0.214,0.036,0.297,0.098c0.084-0.062,0.188-0.101,0.3-0.102l0.598-0.003c0.119-0.042,0.217,0.036,0.301,0.099
	c0.083-0.062,0.187-0.1,0.298-0.101l0.599-0.003c0.001,0,0.002,0,0.003,0c0.111,0,0.214,0.035,0.297,0.098
	c0.083-0.062,0.187-0.1,0.298-0.101l0.603-0.003c0.112,0,0.216,0.037,0.299,0.101c0.083-0.062,0.187-0.101,0.298-0.101l0.604-0.002
	c0.112,0,0.216,0.037,0.3,0.1c0.083-0.062,0.187-0.102,0.3-0.102l0.602-0.002c0,0,0.001,0,0.002,0c0.112,0,0.216,0.037,0.299,0.1
	c0.084-0.062,0.188-0.102,0.301-0.102h0.597c0.084,0.021,0.218,0.035,0.303,0.1c0.084-0.062,0.188-0.1,0.3-0.1l0.6-0.002
	c0,0,0.001,0,0.002,0c0.112,0,0.216,0.037,0.3,0.101c0.083-0.062,0.187-0.101,0.299-0.101h0.6c0.112,0,0.217,0.037,0.301,0.102
	c0.083-0.062,0.187-0.1,0.299-0.1h0.603c0.111,0.002,0.214,0.039,0.297,0.101c0.084-0.062,0.188-0.101,0.3-0.101l0.6,0.002
	c0.113,0,0.219,0.037,0.303,0.102c0.083-0.062,0.186-0.1,0.298-0.1c0.001,0,0.002,0,0.002,0l0.598,0.002
	c0.113,0,0.218,0.037,0.302,0.102c0.083-0.062,0.186-0.098,0.297-0.098c0.001,0,0.002,0,0.002,0l0.601,0.003
	c0.112,0.001,0.216,0.038,0.3,0.103c0.083-0.062,0.186-0.099,0.297-0.099c0.001,0,0.002,0,0.002,0l0.603,0.004
	c0.113,0.001,0.217,0.04,0.3,0.104c0.083-0.062,0.167-0.098,0.3-0.099l0.598,0.005c0.113,0.002,0.217,0.039,0.301,0.104
	c0.085-0.062,0.224-0.102,0.301-0.098l0.603,0.008c0.112,0.002,0.215,0.039,0.298,0.104c0.084-0.061,0.167-0.086,0.3-0.095
	l0.601,0.009c0.114,0.002,0.219,0.042,0.302,0.107c0.082-0.063,0.161-0.094,0.3-0.099l0.598,0.011
	c0.113,0.002,0.218,0.041,0.301,0.106c0.085-0.062,0.188-0.101,0.304-0.094l0.601,0.015c0.112,0.003,0.216,0.043,0.298,0.108
	c0.085-0.062,0.195-0.093,0.303-0.093l0.603,0.02c0.112,0.004,0.215,0.045,0.297,0.111c0.086-0.061,0.192-0.088,0.304-0.09
	l0.604,0.025c0.113,0.005,0.217,0.049,0.298,0.115c0.087-0.059,0.194-0.096,0.307-0.083c0.22,0.013,0.423,0.026,0.606,0.04
	c0.119,0.01,0.225,0.059,0.305,0.134c0.085-0.06,0.191-0.084,0.305-0.077l0.064,0.008l0.53,0.051
	c0.111,0.011,0.21,0.057,0.287,0.125c0.09-0.053,0.198-0.076,0.307-0.071l0.593,0.05c0.111,0.01,0.211,0.053,0.289,0.12
	c0.087-0.058,0.203-0.086,0.305-0.077l0.597,0.042c0.111,0.009,0.212,0.052,0.291,0.119c0.087-0.058,0.186-0.091,0.305-0.08
	l0.594,0.035c0.112,0.006,0.215,0.049,0.295,0.114c0.086-0.057,0.188-0.098,0.304-0.082l0.595,0.029
	c0.112,0.004,0.215,0.045,0.295,0.112c0.086-0.058,0.195-0.087,0.303-0.087l0.572,0.023l0.006,0.5L102.967,188.148z M112.57,188.461
	c-0.006,0-0.012,0-0.02,0l-0.599-0.023c-0.112-0.004-0.216-0.045-0.296-0.11c-0.086,0.06-0.174,0.084-0.303,0.088l-0.603-0.026
	c-0.11-0.005-0.213-0.046-0.294-0.111c-0.085,0.06-0.188,0.089-0.303,0.088l-0.596-0.022c-0.113-0.004-0.216-0.045-0.297-0.11
	c-0.084,0.061-0.186,0.096-0.301,0.091l-0.6-0.019c-0.111-0.004-0.213-0.043-0.295-0.106c-0.086,0.062-0.196,0.088-0.305,0.093
	l-0.596-0.016c-0.113-0.004-0.218-0.043-0.3-0.108c-0.087,0.062-0.188,0.097-0.304,0.092l-0.598-0.016
	c-0.113-0.003-0.216-0.043-0.298-0.107c-0.085,0.06-0.163,0.087-0.302,0.093l-0.582-0.018c-0.115-0.003-0.223-0.046-0.309-0.113
	c-0.086,0.062-0.193,0.098-0.31,0.096l-0.563-0.019c-0.275-0.01-0.512-0.241-0.502-0.518c0.01-0.275,0.229-0.472,0.498-0.483
	l0.598,0.02c0.113,0.005,0.216,0.045,0.298,0.109c0.084-0.06,0.187-0.095,0.301-0.092l0.597,0.018
	c0.112,0.002,0.215,0.043,0.297,0.106c0.086-0.06,0.179-0.101,0.301-0.092l0.604,0.016c0.112,0.005,0.215,0.044,0.297,0.108
	c0.086-0.061,0.176-0.092,0.301-0.092l0.603,0.016c0.11,0.004,0.213,0.043,0.295,0.107c0.085-0.062,0.188-0.09,0.304-0.094
	l0.601,0.019c0.112,0.004,0.217,0.044,0.299,0.11c0.086-0.061,0.192-0.084,0.303-0.091l0.603,0.022
	c0.113,0.005,0.216,0.046,0.297,0.111c0.085-0.058,0.176-0.098,0.305-0.086l0.596,0.024c0.112,0.005,0.215,0.046,0.297,0.11
	c0.084-0.059,0.174-0.088,0.303-0.088l0.599,0.023c0.275,0.012,0.491,0.243,0.479,0.52
	C113.061,188.25,112.839,188.461,112.57,188.461z M116.167,188.579c-0.005,0-0.01,0-0.015,0l-0.6-0.019
	c-0.111-0.004-0.215-0.043-0.297-0.107c-0.085,0.061-0.188,0.095-0.302,0.091l-0.603-0.021c-0.113-0.004-0.215-0.045-0.297-0.109
	c-0.087,0.061-0.174,0.095-0.307,0.09l-0.539-0.02l-0.04-0.502l0.075-0.498l0.543,0.02c0.111,0.005,0.214,0.046,0.294,0.109
	c0.087-0.059,0.192-0.088,0.306-0.09l0.596,0.021c0.113,0.004,0.216,0.044,0.297,0.108c0.086-0.062,0.188-0.096,0.303-0.092
	l0.6,0.019c0.275,0.008,0.492,0.237,0.484,0.515C116.659,188.365,116.438,188.579,116.167,188.579z M123.355,188.703l-0.601-0.004
	c-0.112-0.001-0.217-0.039-0.3-0.104c-0.083,0.062-0.193,0.092-0.301,0.098l-0.6-0.006c-0.113-0.002-0.218-0.039-0.301-0.104
	c-0.084,0.062-0.213,0.101-0.301,0.097l-0.602-0.01c-0.111-0.002-0.215-0.041-0.299-0.104c-0.084,0.061-0.197,0.104-0.302,0.094
	l-0.601-0.012c-0.111-0.002-0.215-0.041-0.297-0.104c-0.084,0.062-0.197,0.108-0.303,0.095l-0.603-0.014
	c-0.112-0.003-0.216-0.042-0.298-0.107c-0.084,0.062-0.19,0.092-0.303,0.094l-0.568-0.016l-0.018-0.501l0.041-0.499l0.573,0.016
	c0.11,0.004,0.213,0.043,0.295,0.106c0.084-0.061,0.162-0.097,0.302-0.093l0.598,0.014c0.111,0.002,0.215,0.041,0.297,0.104
	c0.084-0.062,0.199-0.083,0.303-0.095l0.6,0.012c0.112,0.002,0.215,0.041,0.297,0.104c0.084-0.06,0.139-0.082,0.301-0.094
	l0.599,0.01c0.112,0.002,0.216,0.039,0.298,0.104c0.084-0.062,0.166-0.102,0.299-0.096l0.601,0.006c0.112,0,0.217,0.039,0.299,0.104
	c0.084-0.062,0.195-0.1,0.302-0.098l0.594,0.004L123.355,188.703z M138.971,188.412l-0.598,0.018
	c-0.113-0.003-0.219-0.031-0.303-0.093c-0.082,0.065-0.187,0.104-0.299,0.108l-0.599,0.017c-0.114-0.001-0.218-0.03-0.304-0.092
	c-0.082,0.065-0.188,0.104-0.301,0.108l-0.598,0.017c-0.115-0.001-0.217-0.03-0.303-0.091c-0.081,0.063-0.184,0.104-0.295,0.106
	l-0.588,0.015c-0.155,0.022-0.225-0.032-0.311-0.096c-0.084,0.067-0.188,0.109-0.304,0.113l-0.588,0.016
	c-0.097,0.021-0.222-0.033-0.312-0.097c-0.082,0.067-0.188,0.108-0.304,0.112l-0.599,0.015c-0.148,0.001-0.219-0.032-0.303-0.093
	c-0.084,0.064-0.188,0.105-0.301,0.107l-0.598,0.014c-0.156,0-0.218-0.032-0.303-0.094c-0.082,0.064-0.186,0.104-0.299,0.107
	L130,188.643c-0.115-0.007-0.232-0.037-0.323-0.104c-0.084,0.07-0.192,0.115-0.312,0.117l-0.6,0.012
	c-0.113-0.014-0.22-0.034-0.304-0.095c-0.083,0.063-0.187,0.104-0.298,0.104l-0.559,0.01c-0.004,0-0.006,0-0.008,0
	c-0.119,0-0.231-0.041-0.322-0.109c-0.086,0.072-0.194,0.115-0.315,0.117l-0.562,0.008c-0.154-0.016-0.234-0.041-0.326-0.11
	c-0.088,0.071-0.197,0.114-0.317,0.115l-0.524,0.001c-0.127,0-0.25-0.047-0.348-0.125c-0.088,0.077-0.203,0.124-0.33,0.124
	l-0.603-0.002c-0.275-0.001-0.498-0.228-0.497-0.503c0.001-0.273,0.225-0.497,0.5-0.497c0.001,0,0.002,0,0.003,0l0.597,0.002
	c0.116,0,0.223,0.04,0.309,0.106c0.076-0.066,0.177-0.105,0.291-0.105l0.598-0.001c0.137,0.026,0.221,0.036,0.305,0.101
	c0.078-0.064,0.18-0.104,0.295-0.104l0.598-0.007c0.14,0.009,0.222,0.035,0.307,0.1c0.079-0.064,0.18-0.105,0.294-0.107h0.044
	l0.555-0.01c0.135-0.016,0.219,0.033,0.304,0.096c0.081-0.064,0.186-0.104,0.298-0.105l0.6-0.012c0.004,0,0.008,0,0.01,0
	c0.11,0,0.213,0.035,0.295,0.097c0.08-0.065,0.182-0.106,0.295-0.108h0.035l0.563-0.013c0.104-0.011,0.218,0.032,0.302,0.093
	c0.082-0.063,0.186-0.104,0.297-0.106l0.604-0.015c0.122,0.006,0.216,0.033,0.3,0.094c0.082-0.064,0.186-0.104,0.297-0.107
	l0.602-0.015c0.117-0.011,0.217,0.032,0.303,0.093c0.081-0.064,0.184-0.105,0.296-0.107l0.599-0.017
	c0.119,0.006,0.219,0.031,0.306,0.093c0.081-0.064,0.184-0.105,0.297-0.108l0.599-0.017c0.108,0.002,0.217,0.03,0.303,0.092
	c0.082-0.064,0.185-0.104,0.295-0.107l0.604-0.018c0.104,0.002,0.216,0.033,0.302,0.093c0.082-0.064,0.185-0.104,0.297-0.108
	l0.604-0.017c0.1-0.007,0.216,0.032,0.3,0.092c0.082-0.065,0.185-0.104,0.296-0.108l0.604-0.017
	c0.282,0.022,0.505,0.212,0.512,0.487C139.466,188.176,139.247,188.404,138.971,188.412z M140.171,188.378l-0.581,0.017l-0.031-0.5
	l0.002-0.5l0.586-0.017c0.004,0,0.009,0,0.013,0c0.271,0,0.493,0.216,0.5,0.487C140.665,188.143,140.445,188.371,140.171,188.378z
	 M141.37,188.346l-0.58,0.016l-0.032-0.5l0.004-0.5l0.584-0.016c0.004,0,0.008,0,0.012,0c0.271,0,0.494,0.215,0.5,0.486
	C141.863,188.107,141.646,188.338,141.37,188.346z M142.57,188.311l-0.562,0.017l-0.05-0.499l0.021-0.501l0.567-0.017
	c0.005,0,0.009,0,0.013,0c0.271,0,0.493,0.217,0.5,0.487C143.064,188.074,142.848,188.305,142.57,188.311z M146.17,188.215
	l-0.602,0.016c-0.12-0.004-0.219-0.032-0.303-0.094c-0.08,0.064-0.184,0.104-0.295,0.107l-0.6,0.017
	c-0.115-0.002-0.219-0.03-0.305-0.092c-0.082,0.065-0.186,0.104-0.297,0.108l-0.563,0.016l-0.05-0.499l0.021-0.501l0.567-0.016
	c0.142-0.006,0.217,0.031,0.302,0.092c0.081-0.064,0.185-0.104,0.296-0.108l0.6-0.017c0.117,0,0.22,0.031,0.306,0.093
	c0.082-0.063,0.185-0.104,0.298-0.106l0.6-0.016c0.006,0,0.01,0,0.014,0c0.271,0,0.492,0.217,0.5,0.487
	C146.664,187.979,146.445,188.208,146.17,188.215z M153.994,187.971c-0.104,0.008-0.221-0.023-0.309-0.082
	c-0.078,0.068-0.181,0.112-0.293,0.119l-0.604,0.035c-0.123,0.014-0.221-0.025-0.307-0.084c-0.082,0.066-0.185,0.109-0.299,0.115
	l-0.601,0.027c-0.129,0.02-0.222-0.027-0.308-0.088c-0.082,0.066-0.185,0.107-0.297,0.112c-0.215,0.008-0.42,0.013-0.61,0.017
	c-0.104-0.009-0.222-0.035-0.306-0.1c-0.084,0.062-0.188,0.102-0.301,0.104l-0.598,0.006c-0.003,0-0.005,0-0.007,0
	c-0.11,0-0.212-0.035-0.296-0.096c-0.08,0.062-0.184,0.103-0.295,0.104l-0.603,0.012c-0.101,0.014-0.217-0.033-0.301-0.094
	c-0.082,0.064-0.187,0.104-0.3,0.105l-0.51,0.013l-0.101-0.498l0.076-0.502l0.515-0.013c0.11-0.002,0.219,0.034,0.303,0.094
	c0.082-0.063,0.187-0.104,0.299-0.105l0.6-0.012c0.158,0.012,0.221,0.033,0.307,0.096c0.082-0.064,0.187-0.104,0.299-0.104
	l0.604-0.006c0.125,0.012,0.218,0.035,0.302,0.099c0.082-0.062,0.184-0.101,0.295-0.103c0.186-0.004,0.383-0.009,0.588-0.017
	c0.105,0.001,0.219,0.029,0.305,0.089c0.08-0.064,0.182-0.105,0.293-0.111l0.599-0.027c0.105-0.021,0.218,0.025,0.304,0.084
	c0.08-0.066,0.182-0.109,0.293-0.115l0.596-0.035c0.126-0.008,0.221,0.024,0.307,0.081c0.079-0.067,0.182-0.112,0.293-0.118
	l0.551-0.037l0.114,0.994L153.994,187.971z"/>
</svg>
