<?xml version="1.0" encoding="utf-8"?>
<!-- Generator: Adobe Illustrator 16.0.0, SVG Export Plug-In . SVG Version: 6.00 Build 0)  -->
<!DOCTYPE svg PUBLIC "-//W3C//DTD SVG 1.1//EN" "http://www.w3.org/Graphics/SVG/1.1/DTD/svg11.dtd">
<svg version="1.1" id="Layer_1" xmlns="http://www.w3.org/2000/svg" xmlns:xlink="http://www.w3.org/1999/xlink" x="0px" y="0px"
	 width="200px" height="200px" viewBox="0 0 200 200" enable-background="new 0 0 200 200" xml:space="preserve">
<path fill="#FFFFFF" d="M70.598,14.841c0.18,3.868,5.919,29.308,17.426,34.682c10.749,5.022,20.753,2.18,26.76-7.603
	c5.557-9.05,12.427-26.961,10.901-33.845C125.428,8.031,125.174,8,124.95,8c-0.287,0-0.468,0.048-0.591,0.132
	c0.037,0.261,0.328,2.907-1.543,9.555l-0.185,0.658c-2.25,8.048-9.096,32.516-23.356,32.519c-0.02,0-0.038,0-0.058,0
	C84.77,50.796,80.401,40.418,77.51,33.551l-0.139-0.33c-2.243-5.322-7.179-20.143-4.784-24.244c-0.14-0.021-0.287-0.035-0.453-0.035
	c-0.337,0-0.734,0.051-1.186,0.143C70.834,9.725,70.467,12.045,70.598,14.841z"/>
<path fill="#FFFFFF" d="M62.971,66.621c2.346-3.226,5.057-9.231,5.46-14.011c0.35-4.146-0.884-18.213-1.637-23.364
	c-0.671-4.583-2.07-16.262-2.371-18.782c-0.615,0.108-1.511,0.405-1.511,0.925c0,0.5,0.477,3.421,0.981,6.513
	c0.642,3.932,1.44,8.824,1.726,11.539c0.098,0.926,0.245,2.15,0.414,3.557c0.749,6.238,1.88,15.666,1.19,19.285
	c-0.81,4.255-4.466,12.959-7.106,14.854c-2.399,1.72-3.545,2.602-3.38,3.838c0.015,0.107,0.034,0.276,0.055,0.476
	C58.116,70.814,61.11,69.18,62.971,66.621z"/>
<path fill="#FFFFFF" d="M112.208,187.562c-5.51,0-11.892-0.172-17.401-0.321c-4.342-0.116-8.093-0.214-10.046-0.19
	c-5.519,0.082-17.919,0.004-20.236-0.08c-1.8-0.068-5.376-0.601-6.787-0.818c-0.279,1.646-0.476,3.238-0.071,3.724
	c0.05,0.06,0.126,0.121,0.314,0.121c0.703,0,1.947,0.087,3.522,0.196c3.456,0.24,8.98,0.63,14.5,0.472
	c0.537-0.015,1.098-0.021,1.679-0.021c3.597,0,7.922,0.261,12.931,0.562c6.183,0.372,13.192,0.795,20.366,0.795
	c14.717,0,24.028-0.104,29.263-1.54l0.37-0.1c1.582-0.414,2.726-0.715,2.666-4.075c-0.004-0.205-0.012-0.459-0.021-0.748
	c-2.656,0.243-14.748,1.335-23.143,1.843C117.919,187.512,115.189,187.562,112.208,187.562z"/>
<path fill="#FFFFFF" d="M113.436,24.151c-7.596,3.286-15.998,4.217-23.447,2.593c-7.551-1.645-13.359-9.603-14.791-13.497
	c-0.151-0.412-0.286-0.802-0.412-1.168c-0.478-1.384-0.8-2.22-1.292-2.68c-0.13,0.186-0.236,0.417-0.319,0.691
	c1.35,7.153,8.207,15.63,17.376,17.464c9.116,1.821,19.73-0.645,23.891-3.128c4.025-2.402,7.033-6.526,7.436-7.093
	c0.596-2.126,0.961-3.821,1.184-5.149C121.674,16.027,118.775,21.84,113.436,24.151z"/>
<path fill="#FFFFFF" d="M97.256,29.179c-2.316,0-4.654-0.194-6.903-0.644C81.948,26.854,75.4,19.828,72.964,13.08
	c0.3,5.135,2.846,13.863,5.328,19.752l0.139,0.331c2.789,6.624,7.004,16.636,20.791,16.7c0.017,0,0.036,0,0.053,0
	c12.607,0.001,19.272-20.841,21.894-30.013c-1.377,1.612-3.562,3.852-6.216,5.436C111.688,27.234,104.585,29.179,97.256,29.179z"/>
<path fill="#FFFFFF" d="M130.641,57.161c2.545,6.742,8.049,12.076,9.767,13.256c1.274,0.875,2.278,1.33,2.819,1.542
	c-0.002-0.151-0.006-0.294-0.009-0.422c-0.008-0.348-0.013-0.602-0.013-0.755c0-0.673-0.696-1.296-2.359-2.526
	c-0.9-0.665-8.826-6.813-10.088-17.848c-1.142-9.99-0.636-19.78,0.372-25.052c0.949-4.966,2.629-12.21,3.086-13.811
	c0.173-0.607,0.194-1.032,0.062-1.262c-0.112-0.193-0.389-0.34-0.873-0.461c-0.107-0.026-0.25-0.062-0.407-0.099
	c-0.61,2.793-2.72,12.561-3.358,17.244C128.836,32.837,128.195,50.684,130.641,57.161z"/>
<path fill="#FFFFFF" d="M65.416,10.338c0.298,2.5,1.697,14.188,2.368,18.764c0.759,5.188,1.999,19.385,1.644,23.593
	c-0.422,5.014-3.161,11.097-5.647,14.515c-2.187,3.007-5.695,4.765-6.88,5.298c0.336,3.472,0.977,11.272,0.933,13.707
	c-0.012,0.64,0.153,2.963,0.382,6.178c0.782,10.993,2.408,33.866,1.379,49.815c-0.95,14.717-0.999,26.224-1.028,33.097
	c-0.012,2.766-0.02,4.764-0.085,5.869c-0.071,1.208-0.315,2.57-0.552,3.889c-0.006,0.035-0.012,0.07-0.019,0.104
	c1.403,0.217,4.933,0.74,6.652,0.804c2.309,0.086,14.677,0.163,20.185,0.081c1.97-0.028,5.734,0.073,10.087,0.191
	c8.472,0.229,19.017,0.514,25.22,0.14c8.436-0.51,20.619-1.611,23.163-1.845c-0.104-2.47-0.327-6.53-0.561-10.781
	c-0.378-6.899-0.771-14.032-0.771-16.262c0-1.545-0.152-6.11-0.33-11.396c-0.285-8.457-0.639-18.982-0.549-22.598
	c0.143-5.691,1.523-32.867,1.979-40.007c0.291-4.558,0.293-8.214,0.261-10.464c-0.416-0.136-1.685-0.606-3.405-1.789
	c-2.096-1.44-7.558-6.896-10.135-13.727c-2.502-6.632-1.87-24.74-1.059-30.681c0.646-4.728,2.767-14.556,3.375-17.339
	c-1.66-0.385-4.113-0.938-5.278-1.199c1.192,7.442-5.583,25.15-11.106,34.147c-4.209,6.853-10.505,10.465-17.579,10.466
	c-3.357,0-6.889-0.813-10.457-2.48C74.897,44.494,69.71,17.235,69.601,14.888c-0.115-2.471,0.136-4.544,0.292-5.545
	C69.18,9.523,66.602,10.124,65.416,10.338z"/>
</svg>
