<?xml version="1.0" encoding="utf-8"?>
<!-- Generator: Adobe Illustrator 16.0.0, SVG Export Plug-In . SVG Version: 6.00 Build 0)  -->
<!DOCTYPE svg PUBLIC "-//W3C//DTD SVG 1.1//EN" "http://www.w3.org/Graphics/SVG/1.1/DTD/svg11.dtd">
<svg version="1.1" id="Layer_1" xmlns="http://www.w3.org/2000/svg" xmlns:xlink="http://www.w3.org/1999/xlink" x="0px" y="0px"
	 width="200px" height="200px" viewBox="0 0 200 200" enable-background="new 0 0 200 200" xml:space="preserve">
<path fill="#FFFFFF" d="M84.211,11.816c2.424,1.014,5.665,2.358,5.923,2.441l0.276,0.056c1.406,0.294,3.068,0.645,3.446,0.746
	c0.471,0.125,2.784,0.503,2.974,0.519c0.32-0.032,5.807-1,6.121-1.063c0.148-0.03,0.74-0.079,2.27-0.201
	c1.285-0.103,2.741-0.219,3.18-0.28c0.814-0.112,1.22-0.191,1.947-0.529c0.602-0.278,2.76-1.527,3.609-2.024
	c0.005-0.049,0.009-0.1,0.012-0.152c0.03-0.558,0.227-0.839,0.586-0.839c0.57,0,0.58,0.638,0.59,1.256
	c0.006,0.383,0.387,0.856,0.754,1.314c0.468,0.581,0.951,1.181,0.898,1.867c-0.1,1.27-0.305,2.925-0.716,3.602
	c-0.116,0.19-0.28,0.64-0.47,1.161c-0.35,0.955-0.826,2.263-1.541,3.491c-1.133,1.955-4.698,5.883-8.18,7.872
	c-1.566,0.898-3.508,1.373-5.612,1.373c-1.438,0-2.962-0.23-4.076-0.616c-1.805-0.623-4.912-2.758-6.258-3.956
	c-1.321-1.176-3.972-4.671-4.914-6.324c-0.928-1.633-2.033-4.746-2.326-5.896c-0.348-1.356,0.258-4.097,0.744-6.041l0.062-0.25
	c0.044-0.181,0.076-0.338,0.103-0.475c-0.451,0.068-1.005,0.176-1.303,0.288c-0.546,0.206-2.175,0.696-2.851,0.804
	c-0.436,0.07-0.623,0.185-0.734,0.254c-0.014,0.008-0.106,0.062-0.121,0.069c-0.052,0.025-0.098,0.096-0.13,0.2
	c-0.071,0.241-0.437,2.373-0.355,3.004c0.039,0.307,0.17,0.941,0.308,1.612c0.235,1.15,0.391,1.932,0.411,2.296
	c0.058,0.582,2.173,6.48,3.458,8.349c1.301,1.892,5.197,6.299,8.308,7.917c3.456,1.799,6.021,2.539,7.168,2.625
	c0.325,0.024,0.883,0.058,1.603,0.058c2.158,0,6.26-0.315,9.485-2.427c2.886-1.889,5.097-3.866,6.396-5.718
	c0.175-0.25,0.478-0.635,0.818-1.07c0.642-0.818,1.521-1.939,1.747-2.446c0.195-0.44,0.521-1.338,0.806-2.13
	c0.246-0.681,0.458-1.27,0.565-1.506c0.197-0.423,0.904-3,0.793-5.093c-0.116-2.174-0.717-5.168-0.852-5.534
	c-0.007-0.006-0.015-0.012-0.021-0.019c-0.055-0.018-0.168-0.035-0.254-0.047c-0.193-0.029-0.435-0.065-0.709-0.164
	c-0.225-0.081-0.564-0.084-0.957-0.089c-0.504-0.005-1.076-0.012-1.68-0.178c-1.244-0.341-2.072-0.417-2.668-0.261
	c-0.637,0.168-2.359,0.792-4.726,1.712c-1.569,0.612-6.988,2.046-10.366,2.046l-0.241-0.002c-3.354-0.071-6.754-1.151-8.206-1.613
	c-1.77-0.562-3.477-1.841-4.233-2.532c-0.011-0.009-0.022-0.018-0.033-0.027c-0.006-0.005-0.063-0.062-0.082-0.08
	c-0.188,0.608-0.539,1.74-0.702,2.437C84.242,11.667,84.227,11.739,84.211,11.816z"/>
<path fill="#FFFFFF" d="M197.639,31.508l-0.791-0.178c-0.084,0.256-0.334,0.436-0.621,0.436c-0.045,0-0.145-0.015-0.188-0.027
	c-0.313-0.111-0.493-0.397-0.47-0.689c-1.096-0.232-2.045-0.41-2.891-0.542c-1.045-0.164-2.845-0.518-4.75-0.893
	c-1.851-0.364-3.765-0.741-5.074-0.959c-1.449-0.242-7.662-2-13.67-3.7c-4.733-1.34-9.629-2.725-10.164-2.777
	c-0.762-0.073-1.789-0.407-2.693-0.702c-0.6-0.195-1.219-0.396-1.498-0.426h-0.13c-0.037,0.047-0.128,0.336-0.207,0.591
	c-0.087,0.277-0.193,0.617-0.353,1.025c-0.541,1.395-1.092,5.179-1.092,6.5c0,0.991-0.188,6.138-0.336,10.274l-0.146,4.112
	c-0.115,3.351,0.131,5.646,0.597,8.476c0.446,2.713,2.346,10.31,2.714,11.343c0.389,1.086,0.525,1.133,1.042,1.158
	c0.743,0.036,1.317,0.103,1.394,0.606c0.026,0.175-0.006,0.498-0.521,0.685c-0.069,0.025-0.14,0.046-0.208,0.064
	c0.184,0.178,0.65,0.418,1.389,0.628c0.357-0.049,0.989,0.04,1.867,0.164c0.604,0.085,1.316,0.186,2.077,0.26
	c1.694,0.166,3.642,0.313,5.24,0.434c1.323,0.101,2.411,0.183,2.934,0.244c1.455,0.169,9.507,1.601,14.192,2.479l0.033-0.17
	c0.065-0.343,0.438-0.593,0.781-0.521c0.164,0.031,0.313,0.129,0.412,0.274c0.1,0.147,0.137,0.324,0.104,0.499l-0.031,0.164
	c0.877,0.168,1.516,0.297,1.781,0.359c0.248,0.059,0.462,0.089,0.635,0.089c0.406,0,0.464-0.126,0.617-0.463l0.078-0.167
	c0.205-0.409,0.387-1.002,0.662-1.9l0.074-0.238c0.18-0.586,1.473-6.279,2.612-11.301c0.872-3.84,1.713-7.549,2.088-9.115
	l0.095-0.396c0.871-3.639,3.521-14.715,3.601-15.221C198.779,31.93,198.382,31.673,197.639,31.508z M186.923,68.601
	c-0.062,0.307-0.334,0.53-0.647,0.53c-0.022,0-0.076-0.004-0.1-0.007c-0.205-0.042-0.359-0.146-0.455-0.294
	c-0.097-0.148-0.13-0.326-0.092-0.499l0.188-0.939c0.072-0.346,0.453-0.594,0.789-0.515c0.16,0.031,0.31,0.13,0.408,0.276
	c0.098,0.146,0.135,0.323,0.101,0.497L186.923,68.601z M187.629,65.13l-0.195,0.946c-0.062,0.305-0.334,0.527-0.646,0.527
	c-0.046,0-0.125-0.009-0.17-0.022c-0.139-0.027-0.288-0.129-0.385-0.278c-0.096-0.149-0.129-0.326-0.09-0.5l0.193-0.942
	c0.072-0.343,0.428-0.579,0.777-0.515c0.177,0.037,0.326,0.138,0.422,0.286C187.632,64.781,187.666,64.957,187.629,65.13z
	 M188.168,62.608l-0.206,0.95c-0.063,0.301-0.336,0.521-0.646,0.521c-0.039,0-0.109-0.008-0.146-0.017
	c-0.352-0.077-0.577-0.43-0.5-0.786l0.205-0.944c0.07-0.341,0.445-0.584,0.79-0.505c0.166,0.034,0.315,0.137,0.412,0.287
	C188.171,62.262,188.203,62.437,188.168,62.608z M188.727,60.098l-0.213,0.945c-0.07,0.304-0.334,0.517-0.646,0.517
	c-0.044,0-0.123-0.01-0.166-0.021c-0.151-0.033-0.301-0.137-0.395-0.288c-0.095-0.15-0.125-0.329-0.084-0.501l0.213-0.939
	c0.076-0.339,0.453-0.576,0.795-0.497C188.579,59.391,188.803,59.744,188.727,60.098z M189.318,57.601l-0.229,0.936
	c-0.074,0.302-0.338,0.509-0.645,0.509c-0.039,0-0.114-0.009-0.152-0.018c-0.35-0.083-0.57-0.437-0.491-0.79l0.234-0.955
	c0.087-0.335,0.472-0.56,0.804-0.479C189.186,56.888,189.404,57.246,189.318,57.601z M189.973,55.126l-0.252,0.932
	c-0.078,0.288-0.341,0.489-0.639,0.489c-0.053,0-0.143-0.015-0.193-0.03c-0.145-0.037-0.289-0.146-0.377-0.3
	c-0.089-0.153-0.113-0.332-0.066-0.503l0.252-0.934c0.087-0.326,0.475-0.546,0.801-0.468c0.182,0.049,0.322,0.159,0.411,0.312
	C189.997,54.777,190.02,54.956,189.973,55.126z M190.664,52.648l-0.262,0.931c-0.079,0.283-0.34,0.481-0.635,0.481
	c-0.047,0-0.14-0.013-0.186-0.026c-0.348-0.1-0.551-0.465-0.453-0.814l0.264-0.933c0.094-0.327,0.485-0.549,0.812-0.457
	c0.174,0.049,0.316,0.161,0.4,0.317C190.691,52.301,190.712,52.479,190.664,52.648z M191.375,50.183l-0.266,0.92
	c-0.082,0.281-0.342,0.477-0.635,0.477c-0.056,0-0.156-0.016-0.207-0.034c-0.146-0.042-0.287-0.154-0.373-0.309
	c-0.084-0.155-0.104-0.334-0.054-0.504l0.267-0.926c0.1-0.331,0.488-0.543,0.812-0.454c0.178,0.051,0.323,0.168,0.406,0.324
	C191.41,49.834,191.427,50.014,191.375,50.183z M192.104,47.695l-0.273,0.933c-0.087,0.287-0.342,0.476-0.637,0.476
	c-0.057,0-0.159-0.018-0.213-0.037c-0.14-0.04-0.279-0.151-0.365-0.306c-0.086-0.155-0.105-0.333-0.055-0.503l0.271-0.929
	c0.092-0.322,0.486-0.539,0.814-0.451C191.998,46.979,192.201,47.345,192.104,47.695z M192.829,45.223l-0.274,0.931
	c-0.08,0.279-0.342,0.475-0.634,0.475c-0.049,0-0.142-0.014-0.188-0.027c-0.344-0.103-0.545-0.469-0.446-0.816l0.274-0.933
	c0.092-0.325,0.492-0.546,0.825-0.446C192.727,44.506,192.93,44.873,192.829,45.223z M193.551,42.751l-0.27,0.925
	c-0.084,0.286-0.34,0.477-0.635,0.477c-0.061,0-0.162-0.017-0.219-0.038c-0.13-0.034-0.273-0.146-0.359-0.3
	c-0.086-0.156-0.106-0.335-0.057-0.507l0.271-0.928c0.091-0.318,0.477-0.542,0.8-0.457c0.189,0.055,0.328,0.167,0.413,0.32
	C193.582,42.399,193.602,42.58,193.551,42.751z M194.26,40.264l-0.261,0.929c-0.086,0.292-0.341,0.483-0.638,0.483
	c-0.045,0-0.133-0.012-0.176-0.024c-0.351-0.099-0.557-0.463-0.461-0.812l0.264-0.936c0.093-0.327,0.486-0.546,0.812-0.458
	c0.174,0.049,0.315,0.161,0.402,0.316C194.289,39.917,194.309,40.095,194.26,40.264z M194.909,37.74l-0.093,0.397
	c-0.037,0.16-0.08,0.343-0.131,0.548c-0.078,0.296-0.342,0.499-0.642,0.499c-0.038,0-0.116-0.009-0.153-0.017
	c-0.181-0.045-0.326-0.153-0.416-0.306c-0.091-0.153-0.117-0.332-0.07-0.503c0.049-0.189,0.089-0.36,0.123-0.511l0.098-0.417
	c0.078-0.333,0.449-0.564,0.788-0.493C194.779,37.031,194.994,37.389,194.909,37.74z M195.58,35.28
	c-0.092,0.31-0.182,0.617-0.268,0.925c-0.08,0.283-0.34,0.481-0.637,0.481c-0.049,0-0.141-0.014-0.188-0.027
	c-0.342-0.099-0.545-0.463-0.449-0.811c0.089-0.315,0.179-0.63,0.271-0.94c0.104-0.333,0.494-0.537,0.819-0.446
	C195.48,34.566,195.68,34.933,195.58,35.28z M196.339,32.847l-0.293,0.909c-0.075,0.265-0.336,0.46-0.628,0.46
	c-0.044,0-0.137-0.013-0.18-0.024c-0.364-0.116-0.559-0.485-0.453-0.83l0.299-0.93c0.113-0.331,0.514-0.531,0.835-0.426
	c0.171,0.057,0.31,0.177,0.388,0.337C196.385,32.501,196.396,32.681,196.339,32.847z"/>
<path fill="#FFFFFF" d="M16.24,74.495c0.003,0,0.006,0,0.009,0c0.386,0,0.657,0.231,0.712,0.544c0.981-0.334,1.582-0.3,2.142-0.286
	c0.194,0.006,0.388,0.011,0.596,0.001c0.642-0.031,3.514-0.621,5.229-0.974l1.095-0.224c0.817-0.164,1.724-0.211,2.684-0.262
	c0.781-0.041,1.589-0.083,2.469-0.188c1.977-0.237,3.723-0.478,5.065-1.014c0.416-0.166,0.906-0.319,1.457-0.491
	c1.32-0.41,2.964-0.921,4.746-2.007c2.317-1.411,3.93-5.485,4.278-7.353c0.363-1.952,0.764-9.623,0.877-11.928
	c0.195-3.935,0.284-7.176,0.081-10.207c-0.2-3.007-1.167-7.611-1.433-8.596c-0.267-0.995-2.474-6.647-2.661-7.032
	c-0.039-0.072-0.226-0.262-0.337-0.375c-0.031-0.032-0.062-0.064-0.093-0.096c-1.835,0.697-3.298,1.514-4.843,2.375
	c-2.585,1.44-10.433,4.792-11.693,5.264c-1.273,0.478-16.75,5.75-18.761,6.293c-0.688,0.187-1.684,0.601-2.899,1.204
	c0.003,0.003,0.005,0.006,0.007,0.009c0.104,0.144,0.145,0.319,0.115,0.494c-0.028,0.174-0.124,0.327-0.268,0.43
	c-0.085,0.06-0.28,0.124-0.385,0.124c-0.212,0-0.412-0.103-0.536-0.275c-0.043-0.06-0.084-0.115-0.124-0.167
	c-0.967,0.516-1.759,0.978-2.101,1.186c-0.583,0.354-0.63,0.383-0.223,1.811c0.174,0.607,0.781,2.252,1.425,3.994
	c0.839,2.271,1.789,4.844,2.196,6.226c0.371,1.256,1.35,3.906,2.295,6.469c0.872,2.365,1.696,4.598,1.935,5.451
	c0.331,1.187,1.24,3.729,2.562,7.16c0.587,1.528,0.819,2.44,0.994,3.903c0.035,0.288,0.073,0.446,0.102,0.53
	c0.057-0.016,0.125-0.038,0.183-0.057c0.09-0.03,0.188-0.061,0.294-0.091c0.482-0.134,1.302-0.451,2.17-0.787l0.081-0.032
	c-0.009-0.096-0.018-0.199-0.028-0.31c-0.019-0.166,0.031-0.337,0.142-0.475C15.905,74.601,16.063,74.514,16.24,74.495z
	 M4.845,42.045l-0.072-0.281c-0.048-0.193-0.108-0.385-0.184-0.575c-0.064-0.166-0.061-0.346,0.011-0.507
	c0.07-0.162,0.2-0.286,0.365-0.35c0.058-0.022,0.178-0.045,0.239-0.045c0.273,0,0.515,0.164,0.615,0.418
	c0.096,0.246,0.174,0.491,0.235,0.735l0.068,0.267C6.213,42.061,6,42.421,5.648,42.512c-0.041,0.011-0.124,0.022-0.166,0.022
	C5.186,42.534,4.923,42.333,4.845,42.045z M5.594,44.544c-0.102-0.315-0.201-0.629-0.294-0.93c-0.104-0.35,0.093-0.718,0.436-0.826
	c0.318-0.102,0.729,0.113,0.829,0.438c0.091,0.294,0.187,0.602,0.287,0.913c0.055,0.161,0.041,0.346-0.039,0.504
	c-0.079,0.155-0.214,0.271-0.379,0.328c-0.052,0.018-0.154,0.032-0.209,0.032C5.935,45.002,5.681,44.818,5.594,44.544z
	 M6.442,47.014c-0.108-0.296-0.22-0.606-0.331-0.925c-0.12-0.342,0.062-0.72,0.404-0.841c0.054-0.019,0.163-0.039,0.221-0.039
	c0.276,0,0.526,0.176,0.622,0.438c0.11,0.319,0.218,0.622,0.322,0.905c0.062,0.159,0.057,0.339-0.017,0.501
	c-0.072,0.16-0.208,0.287-0.373,0.348c-0.056,0.021-0.17,0.041-0.229,0.041C6.787,47.442,6.538,47.27,6.442,47.014z M7.443,49.405
	c-0.132-0.324-0.241-0.579-0.314-0.728l-0.055-0.112c-0.08-0.167-0.088-0.347-0.028-0.514c0.061-0.167,0.183-0.301,0.344-0.375
	c0.066-0.031,0.205-0.062,0.278-0.062c0.253,0,0.488,0.148,0.598,0.377l0.05,0.104c0.082,0.167,0.205,0.449,0.355,0.819
	c0.065,0.166,0.064,0.344-0.004,0.506c-0.068,0.164-0.197,0.29-0.363,0.356c-0.059,0.023-0.182,0.047-0.245,0.047
	C7.784,49.823,7.543,49.659,7.443,49.405z M8.353,51.798L8.021,50.9c-0.126-0.345,0.048-0.725,0.386-0.852
	c0.057-0.021,0.172-0.042,0.232-0.042c0.271,0,0.521,0.171,0.618,0.425l0.339,0.917c0.061,0.164,0.053,0.344-0.021,0.505
	c-0.075,0.161-0.208,0.283-0.374,0.343c-0.055,0.02-0.168,0.041-0.226,0.041C8.695,52.237,8.445,52.061,8.353,51.798z M9.214,54.224
	l-0.319-0.912c-0.118-0.349,0.065-0.725,0.407-0.843c0.053-0.018,0.161-0.036,0.217-0.036c0.28,0,0.531,0.178,0.624,0.442
	l0.319,0.914c0.059,0.167,0.048,0.348-0.029,0.507c-0.077,0.159-0.212,0.278-0.38,0.336c-0.052,0.018-0.159,0.037-0.215,0.037
	C9.556,54.669,9.305,54.49,9.214,54.224z M10.031,56.661l-0.302-0.918c-0.114-0.344,0.073-0.719,0.417-0.835
	c0.052-0.017,0.155-0.034,0.209-0.034c0.287,0,0.539,0.182,0.629,0.453l0.304,0.923c0.055,0.171,0.038,0.356-0.044,0.512
	c-0.082,0.157-0.221,0.272-0.391,0.324c-0.047,0.014-0.146,0.031-0.195,0.031C10.373,57.116,10.121,56.933,10.031,56.661z
	 M10.764,59.096c-0.07-0.272-0.158-0.579-0.258-0.915c-0.05-0.163-0.031-0.349,0.053-0.503c0.085-0.157,0.228-0.271,0.399-0.319
	c0.33-0.093,0.727,0.128,0.817,0.458c0.102,0.34,0.191,0.661,0.266,0.938c0.046,0.172,0.022,0.351-0.067,0.504
	c-0.089,0.153-0.232,0.261-0.403,0.306c-0.041,0.011-0.125,0.021-0.168,0.021C11.104,59.587,10.841,59.385,10.764,59.096z
	 M11.226,61.563l-0.154-0.897c-0.059-0.369,0.188-0.726,0.538-0.786c0.341-0.062,0.698,0.178,0.758,0.515l0.163,0.956
	c0.029,0.173-0.011,0.35-0.114,0.494c-0.102,0.142-0.253,0.237-0.426,0.267c-0.028,0.005-0.084,0.01-0.112,0.01
	C11.55,62.121,11.275,61.886,11.226,61.563z M11.738,64.138c-0.075-0.315-0.146-0.639-0.212-0.96
	c-0.068-0.365,0.165-0.711,0.519-0.782c0.337-0.067,0.704,0.175,0.776,0.511c0.063,0.315,0.132,0.625,0.203,0.931
	c0.084,0.353-0.136,0.709-0.489,0.794c-0.038,0.009-0.113,0.017-0.153,0.017C12.072,64.648,11.808,64.438,11.738,64.138z
	 M12.546,66.712c-0.125-0.289-0.247-0.612-0.363-0.965c-0.111-0.352,0.08-0.724,0.424-0.835c0.05-0.016,0.154-0.033,0.206-0.033
	c0.285,0,0.537,0.183,0.627,0.456c0.103,0.312,0.209,0.596,0.317,0.846c0.145,0.336-0.003,0.715-0.333,0.867
	c-0.065,0.03-0.201,0.059-0.272,0.059C12.89,67.106,12.651,66.952,12.546,66.712z M13.744,69.028
	c-0.145-0.298-0.288-0.582-0.43-0.852c-0.165-0.323-0.041-0.721,0.275-0.89c0.072-0.039,0.229-0.077,0.311-0.077
	c0.25,0,0.476,0.138,0.589,0.359c0.145,0.276,0.294,0.572,0.441,0.876c0.078,0.164,0.087,0.345,0.027,0.512
	c-0.06,0.166-0.181,0.298-0.34,0.374c-0.066,0.031-0.209,0.063-0.282,0.063C14.084,69.395,13.856,69.254,13.744,69.028z
	 M14.771,71.339c-0.115-0.285-0.238-0.58-0.368-0.879c-0.144-0.338,0.013-0.726,0.346-0.869c0.062-0.027,0.193-0.054,0.261-0.054
	c0.267,0,0.505,0.158,0.608,0.402c0.133,0.305,0.26,0.61,0.378,0.902c0.066,0.163,0.065,0.342-0.003,0.504
	c-0.068,0.164-0.197,0.29-0.361,0.356c-0.06,0.024-0.184,0.047-0.248,0.047C15.113,71.75,14.873,71.589,14.771,71.339z M15.47,73.65
	c-0.024-0.166-0.05-0.318-0.075-0.459c-0.021-0.105-0.056-0.242-0.102-0.398c-0.104-0.35,0.098-0.718,0.447-0.821
	c0.325-0.098,0.73,0.125,0.822,0.455c0.059,0.199,0.104,0.379,0.132,0.529c0.028,0.15,0.057,0.321,0.083,0.5
	c0.053,0.359-0.195,0.696-0.555,0.75l-0.1,0.008C15.794,74.213,15.519,73.977,15.47,73.65z"/>
<path fill="#FFFFFF" d="M48.353,22.58c-0.506,0.112-1.08,0.238-1.752,0.394c-0.731,0.169-1.429,0.359-2.113,0.575
	c0.059,0.076,0.122,0.159,0.189,0.25c0.755,1.022,2.107,4.198,2.893,6.794c0.814,2.686,1.792,8.923,1.833,12.938
	c0.029,2.883-0.252,6.471-0.609,11.014c-0.139,1.775-0.29,3.695-0.438,5.771c-0.48,6.765-3.914,9.737-5.042,10.713
	c-0.112,0.097-0.196,0.167-0.241,0.216c-0.17,0.184-0.352,0.326-0.523,0.458c-0.327,0.25-0.431,0.343-0.431,0.612
	c0,0.334-0.06,0.992-0.136,1.826c-0.108,1.185-0.243,2.659-0.267,3.857c-0.041,2.096-0.331,6.786-0.524,9.446
	c-0.127,1.749-0.236,5-0.333,7.87c-0.055,1.639-0.104,3.115-0.148,4.032c-0.061,1.247-0.07,5.431-0.081,9.862
	c-0.01,4.394-0.021,8.937-0.081,11.14l-0.079,2.885c-0.14,5.004-0.329,11.856-0.362,14.979c-0.018,1.588,0.022,4.686,0.064,7.963
	c0.06,4.612,0.126,9.84,0.056,12.291c-0.066,2.282-0.271,6.955-0.471,11.475c-0.164,3.726-0.319,7.252-0.375,8.974
	c-0.037,1.179-0.067,2.463-0.097,3.726c-0.025,1.118-0.051,2.219-0.082,3.217l0.191-0.002c0.365,0,0.662,0.297,0.662,0.662
	c0,0.364-0.297,0.66-0.661,0.66c-0.084,0-0.163,0-0.237,0c-0.041,1.002-0.087,1.727-0.141,2.204
	c-0.137,1.195-0.111,1.199,0.527,1.281l0.129,0.019c0.37,0.051,0.568,0.055,1.227,0.073c0.831,0.022,2.378,0.065,5.856,0.244
	c1.774,0.091,4.202,0.137,7.216,0.137c6.739,0,14.449-0.229,16.651-0.299c6.948-0.221,28.322-0.851,35.154-0.851
	c0.382,0,0.722,0.002,1.013,0.006c2.853,0.039,9.926,0.223,16.769,0.398c7.244,0.188,14.088,0.365,15.625,0.365
	c3.099,0,18.899-0.57,19.892-0.719c0.7-0.104,0.7-0.151,0.7-0.954c0-0.31,0.004-1.312,0.011-2.581v-0.111l-0.22-0.009
	c-0.364-0.017-0.648-0.321-0.637-0.684c0.02-0.373,0.293-0.64,0.651-0.64l0.212,0.01l0.003-0.825
	c0.009-1.915,0.019-3.902,0.019-4.981c0-1.141-0.08-4.25-0.157-7.256c-0.082-3.167-0.166-6.441-0.166-7.717
	c0-1.135-0.033-2.27-0.07-3.502c-0.042-1.453-0.091-3.1-0.091-5.031c0-1.611-0.219-8.941-0.449-16.699
	c-0.275-9.275-0.561-18.867-0.516-20.106c0.056-1.591-0.219-11.589-0.401-18.205c-0.077-2.772-0.14-5.068-0.163-6.158
	c-0.078-3.751-0.322-20.138-0.281-21.718c0.028-1.124,0.267-3.345,0.545-4.768c-0.91-0.699-2.902-2.383-3.535-4.147
	c-0.766-2.137-3.322-14.601-3.449-16.434c-0.111-1.588,0.338-14.827,0.479-18.847l0.004-0.122c0.041-1.201,1.127-5.954,1.683-7.372
	c0.187-0.472,0.132-0.615,0.131-0.616c-0.019-0.003-0.142-0.016-0.2-0.022c-0.257-0.034-1.576-0.284-2.867-0.528
	c-1.015-0.192-2.011-0.381-2.401-0.451c-0.318-0.058-0.505-0.062-0.636-0.066c-0.301-0.007-0.508-0.032-0.838-0.326
	c-0.179-0.159-0.259-0.19-0.494-0.285c-0.127-0.051-0.282-0.113-0.488-0.209c-0.303-0.141-1.245-0.412-2.475-0.712
	c-0.027,0-0.055-0.003-0.08-0.008c-1.178-0.225-1.963-0.41-2.399-0.564c-0.88-0.312-4.339-1.097-7.685-1.856
	c-3.836-0.87-7.459-1.692-8.215-2.016c-0.947-0.405-2.746-1.27-3.812-1.788c0.203,1.311,0.402,3.022,0.49,3.77l0.037,0.319
	c0.08,0.647-0.332,4.046-0.971,5.666c-0.262,0.667-0.494,1.357-0.701,1.975c-0.287,0.852-0.515,1.525-0.738,1.938
	c-0.402,0.741-2.299,3.111-2.698,3.583c-0.115,0.135-0.269,0.331-0.445,0.559c-0.553,0.711-1.312,1.686-1.973,2.18
	c-0.333,0.249-0.948,0.759-1.604,1.303c-0.992,0.823-2.019,1.674-2.447,1.941c-1.895,1.182-4.176,1.974-6.784,2.355
	c-1.757,0.257-2.959,0.367-4.023,0.367c-1.914,0-3.506-0.362-5.325-1.21c-0.397-0.186-0.78-0.36-1.153-0.529
	c-2.449-1.113-4.563-2.074-7.082-4.686l-0.088-0.092c-2.771-2.874-3.606-3.742-4.704-5.77c-1.068-1.977-2.686-6.283-3.02-7.823
	c-0.071-0.33-0.151-0.662-0.232-0.996c-0.281-1.166-0.571-2.371-0.557-3.645c0.008-0.692,0.08-1.223,0.17-1.649
	c-0.074,0.021-0.151,0.04-0.232,0.058c-0.339,0.076-0.967,0.569-1.472,0.966c-0.383,0.302-0.746,0.586-1.078,0.785
	c-0.275,0.165-0.469,0.384-0.694,0.639c-0.343,0.388-0.732,0.828-1.467,1.126c-0.542,0.221-1.083,0.238-1.736,0.238h-0.361
	c-0.788,0-1.739,0.024-3.056,0.311c-2.84,0.616-9.817,3.796-12.564,5.151C51.668,21.847,50.766,22.046,48.353,22.58z
	 M157.01,184.963l0.992,0.035c0.18,0.008,0.341,0.083,0.461,0.212c0.121,0.131,0.184,0.3,0.176,0.478
	c-0.011,0.347-0.307,0.633-0.66,0.633l-0.994-0.035c-0.174-0.006-0.338-0.081-0.459-0.211c-0.121-0.131-0.184-0.299-0.176-0.475
	C156.365,185.245,156.654,184.967,157.01,184.963z M154.423,184.868l0.999,0.034c0.178,0.007,0.342,0.082,0.462,0.212
	c0.121,0.131,0.183,0.3,0.175,0.478c-0.014,0.354-0.304,0.633-0.66,0.633l-0.99-0.035c-0.361-0.013-0.646-0.315-0.637-0.679
	C153.783,185.137,154.059,184.868,154.423,184.868z M151.85,184.777l0.994,0.033c0.176,0.006,0.34,0.082,0.461,0.211
	c0.12,0.129,0.184,0.299,0.176,0.476c-0.016,0.358-0.306,0.636-0.66,0.636l-0.989-0.033c-0.36-0.013-0.647-0.315-0.64-0.677
	C151.207,185.057,151.495,184.777,151.85,184.777z M149.273,184.689l0.955,0.031c0.183,0.006,0.358,0.088,0.483,0.223
	c0.12,0.131,0.181,0.297,0.172,0.469c-0.012,0.355-0.288,0.632-0.642,0.632l-0.988-0.032c-0.171-0.004-0.335-0.076-0.457-0.205
	c-0.123-0.129-0.188-0.297-0.184-0.475C148.626,184.977,148.922,184.689,149.273,184.689z M146.7,184.605l0.987,0.031
	c0.362,0.014,0.649,0.317,0.64,0.68c-0.017,0.363-0.308,0.643-0.662,0.643l-0.988-0.029c-0.172-0.005-0.337-0.078-0.459-0.207
	c-0.12-0.127-0.186-0.301-0.18-0.476C146.047,184.889,146.338,184.605,146.7,184.605z M144.039,184.541l1.064,0.018
	c0.36,0.008,0.649,0.312,0.645,0.676c-0.012,0.365-0.303,0.646-0.662,0.646l-0.984-0.025c-0.363-0.012-0.65-0.314-0.644-0.676
	C143.467,184.859,143.706,184.598,144.039,184.541z M141.544,184.498l0.97,0.007c0.18,0.002,0.346,0.073,0.471,0.2
	c0.123,0.126,0.188,0.293,0.187,0.47c0,0.356-0.297,0.652-0.662,0.652c-0.001,0-0.003,0-0.004,0l-0.966-0.009
	c-0.365-0.004-0.659-0.303-0.657-0.664C140.882,184.794,141.18,184.498,141.544,184.498z M138.497,184.688
	c0.125-0.127,0.292-0.195,0.469-0.195l0.966-0.001c0.365,0,0.662,0.296,0.662,0.659c0,0.365-0.296,0.662-0.66,0.662l-0.966,0.002
	l0,0c-0.364,0-0.661-0.297-0.661-0.662C138.305,184.98,138.372,184.814,138.497,184.688z M135.954,184.861
	c0.062-0.213,0.257-0.361,0.479-0.361l0.918-0.002c0.365,0,0.664,0.296,0.664,0.659c0.002,0.169-0.068,0.341-0.191,0.466
	c-0.125,0.127-0.291,0.195-0.469,0.195l-0.916,0.005h-0.002c-0.221,0-0.414-0.144-0.479-0.354l-0.049-0.16
	c-0.028-0.092-0.029-0.189-0.002-0.283L135.954,184.861z M133.798,184.52l0.927-0.006c0.375,0,0.688,0.303,0.688,0.659
	c0.003,0.147-0.046,0.302-0.139,0.42c-0.116,0.149-0.293,0.238-0.484,0.242l-0.977,0.006h-0.002c-0.362,0-0.66-0.295-0.662-0.655
	C133.146,184.827,133.438,184.527,133.798,184.52z M130.771,184.95c0.045-0.234,0.248-0.404,0.485-0.406l0.935-0.009l0,0
	c0.375,0,0.666,0.295,0.666,0.656c0.004,0.359-0.289,0.66-0.652,0.664l-0.936,0.01c-0.002,0-0.004,0-0.006,0
	c-0.236,0-0.44-0.166-0.49-0.398l-0.032-0.16c-0.013-0.063-0.015-0.131-0.001-0.195L130.771,184.95z M128.164,185.044
	c0.016-0.262,0.23-0.467,0.493-0.47l0.954-0.012c0.369,0,0.666,0.293,0.67,0.652c0.004,0.361-0.287,0.661-0.648,0.669l-0.958,0.013
	c-0.002,0-0.004,0-0.006,0c-0.258,0-0.476-0.197-0.498-0.455l-0.015-0.161L128.164,185.044z M125.598,184.811
	c0.121-0.127,0.293-0.201,0.469-0.203l0.938-0.014c0.019-0.002,0.038-0.003,0.054-0.003c0.346,0,0.64,0.302,0.644,0.656
	c0.004,0.356-0.284,0.658-0.642,0.67l-0.979,0.013c-0.002,0-0.004,0-0.006,0c-0.361,0-0.658-0.294-0.662-0.652
	C125.409,185.111,125.475,184.938,125.598,184.811z M123.023,184.846c0.123-0.127,0.289-0.197,0.465-0.199l0.965-0.017
	c0.001,0,0.002,0,0.002,0c0.37,0,0.665,0.3,0.669,0.653c0.004,0.173-0.062,0.341-0.187,0.468c-0.123,0.128-0.289,0.199-0.467,0.201
	l-0.963,0.015c-0.003,0-0.005,0-0.008,0h-0.004c-0.359,0-0.656-0.292-0.66-0.65C122.833,185.143,122.898,184.975,123.023,184.846z
	 M120.445,184.891c0.123-0.129,0.289-0.199,0.467-0.201l0.963-0.017c0.415,0.052,0.665,0.32,0.672,0.646
	c0.01,0.359-0.277,0.664-0.641,0.677l-0.975,0.017c-0.004,0-0.007,0-0.01,0h-0.004c-0.359,0-0.654-0.293-0.659-0.652
	C120.256,185.186,120.322,185.018,120.445,184.891z M117.865,184.938c0.121-0.127,0.287-0.199,0.463-0.203l0.967-0.02
	c0.374,0,0.67,0.293,0.674,0.652c0.006,0.167-0.062,0.342-0.185,0.469s-0.296,0.2-0.474,0.2l-0.957,0.021c-0.002,0-0.006,0-0.01,0
	c-0.363,0-0.654-0.285-0.662-0.648C117.677,185.23,117.742,185.064,117.865,184.938z M115.75,184.785l0.967-0.02
	c0.4,0.027,0.664,0.297,0.676,0.639c0.008,0.371-0.283,0.675-0.647,0.683l-0.966,0.021c-0.004,0-0.008,0-0.012,0h-0.004
	c-0.355,0-0.652-0.289-0.66-0.646C115.096,185.098,115.385,184.793,115.75,184.785z M113.17,184.843l0.967-0.022l0,0
	c0.375,0,0.67,0.294,0.674,0.652c0.006,0.168-0.062,0.342-0.185,0.469s-0.295,0.201-0.472,0.201l-0.954,0.022
	c-0.005,0-0.009,0-0.013,0h-0.004c-0.355,0-0.652-0.289-0.66-0.646C112.518,185.154,112.807,184.852,113.17,184.843z
	 M110.592,184.908l0.965-0.023l0,0c0.377,0,0.668,0.282,0.678,0.643c0.012,0.361-0.275,0.666-0.639,0.68l-0.973,0.023
	c-0.004,0-0.008,0-0.014,0h-0.002c-0.357,0-0.654-0.289-0.662-0.646C109.939,185.218,110.23,184.916,110.592,184.908z
	 M107.552,185.166c0.123-0.129,0.29-0.2,0.468-0.202l0.963-0.021c0.399,0.033,0.666,0.311,0.675,0.645
	c0.004,0.18-0.062,0.348-0.185,0.475s-0.287,0.199-0.463,0.203l-0.969,0.021c-0.003,0-0.007,0-0.01,0h-0.002
	c-0.358,0-0.655-0.292-0.661-0.649C107.365,185.457,107.432,185.291,107.552,185.166z M104.977,185.21
	c0.125-0.127,0.291-0.196,0.469-0.196l0.957-0.02c0.377,0.004,0.666,0.288,0.674,0.646c0.005,0.176-0.061,0.346-0.186,0.474
	c-0.123,0.129-0.289,0.2-0.467,0.202l-0.964,0.018c-0.003,0-0.006,0-0.009,0h-0.004c-0.356,0-0.652-0.29-0.66-0.646
	C104.784,185.511,104.854,185.337,104.977,185.21z M102.396,185.257c0.125-0.127,0.293-0.196,0.47-0.196l0.958-0.019
	c0.381,0,0.664,0.278,0.673,0.647c0.002,0.18-0.063,0.346-0.185,0.472c-0.125,0.128-0.291,0.2-0.47,0.202l-0.962,0.018
	c-0.003,0-0.006,0-0.009,0h-0.003c-0.355,0-0.652-0.29-0.661-0.646C102.205,185.559,102.273,185.384,102.396,185.257z
	 M99.815,185.309c0.124-0.129,0.29-0.199,0.467-0.201l0.963-0.02l0,0c0.373,0,0.667,0.292,0.673,0.651
	c0.006,0.167-0.059,0.335-0.18,0.464c-0.121,0.128-0.291,0.203-0.467,0.207l-0.97,0.018c-0.003,0-0.006,0-0.009,0h-0.002
	c-0.356,0-0.653-0.289-0.661-0.646C99.625,185.604,99.691,185.436,99.815,185.309z M97.698,185.152l0.969-0.019h0.001
	c0.379,0,0.665,0.284,0.673,0.647c0.004,0.369-0.289,0.67-0.653,0.674l-0.96,0.02c-0.003,0-0.007,0-0.01,0h-0.003
	c-0.361,0-0.657-0.293-0.661-0.651C97.044,185.464,97.334,185.161,97.698,185.152z M94.656,185.41
	c0.121-0.127,0.283-0.199,0.458-0.205l0.974-0.02c0.043-0.004,0.086,0.004,0.129,0.015c0.396,0.096,0.542,0.391,0.545,0.634
	c0.003,0.18-0.063,0.348-0.188,0.475c-0.123,0.125-0.289,0.196-0.465,0.198l-0.961,0.021c-0.003,0-0.007,0-0.01,0h-0.003
	c-0.36,0-0.657-0.293-0.661-0.65C94.468,185.708,94.532,185.539,94.656,185.41z M92.541,185.264l0.966-0.021
	c0.377,0.004,0.667,0.285,0.677,0.644c0.003,0.183-0.064,0.351-0.188,0.479c-0.124,0.126-0.289,0.197-0.465,0.199l-0.96,0.021
	c-0.004,0-0.008,0-0.012,0h-0.005c-0.358,0-0.648-0.279-0.66-0.639C91.889,185.573,92.18,185.271,92.541,185.264z M89.494,185.541
	c0.123-0.13,0.288-0.204,0.466-0.208l0.964-0.026c0.389,0.008,0.671,0.285,0.679,0.646c0.006,0.168-0.056,0.336-0.177,0.466
	c-0.121,0.13-0.286,0.205-0.463,0.211l-0.969,0.026c-0.004,0-0.009,0-0.014,0h-0.005c-0.356,0-0.646-0.279-0.661-0.637
	C89.31,185.835,89.374,185.669,89.494,185.541z M86.911,185.634c0.121-0.131,0.286-0.206,0.464-0.212l0.965-0.035c0,0,0,0,0.001,0
	c0.379,0,0.667,0.277,0.683,0.631c0.007,0.183-0.056,0.352-0.177,0.48c-0.121,0.129-0.284,0.204-0.46,0.21l-0.965,0.036
	c-0.006,0-0.012,0-0.019,0h-0.007c-0.353,0-0.643-0.276-0.661-0.629C86.729,185.932,86.792,185.764,86.911,185.634z M84.314,185.787
	c0.114-0.133,0.279-0.219,0.454-0.23c0.297-0.021,0.625-0.041,0.982-0.06h0.001c0.387,0,0.673,0.269,0.693,0.622
	c0.011,0.176-0.048,0.346-0.167,0.479c-0.118,0.133-0.28,0.211-0.457,0.221c-0.349,0.019-0.668,0.037-0.956,0.058
	c-0.012,0.001-0.023,0.001-0.035,0.001h-0.012c-0.346,0-0.635-0.271-0.659-0.615C84.146,186.092,84.2,185.922,84.314,185.787z
	 M81.747,185.998c0.117-0.134,0.278-0.214,0.456-0.227c0.364-0.021,0.683-0.045,0.954-0.067c0.001,0,0.003,0,0.005,0
	c0.397,0,0.684,0.269,0.709,0.608c0.015,0.172-0.041,0.345-0.156,0.479c-0.114,0.135-0.274,0.217-0.451,0.229
	c-0.277,0.023-0.606,0.049-0.979,0.071c-0.011,0.001-0.021,0.001-0.032,0.001h-0.01c-0.35,0-0.639-0.273-0.659-0.621
	C81.573,186.302,81.63,186.131,81.747,185.998z M79.631,185.902l0.971-0.045c0.414,0.024,0.675,0.285,0.69,0.634
	c0.008,0.175-0.053,0.344-0.173,0.474c-0.119,0.131-0.282,0.207-0.458,0.215l-0.966,0.045c-0.007,0-0.015,0-0.023,0h-0.007
	c-0.356,0-0.646-0.277-0.66-0.635C78.988,186.23,79.27,185.922,79.631,185.902z M77.057,186.001l0.971-0.034l0,0
	c0.373,0,0.67,0.285,0.683,0.637c0.01,0.369-0.268,0.668-0.633,0.686l-0.972,0.034c-0.006,0-0.012,0-0.018,0h-0.006
	c-0.354,0-0.644-0.277-0.66-0.632C76.41,186.325,76.694,186.018,77.057,186.001z M74.482,186.085l0.968-0.03h0.001
	c0.372,0,0.667,0.284,0.682,0.635c0.006,0.181-0.057,0.349-0.177,0.478c-0.121,0.129-0.285,0.204-0.461,0.21l-0.968,0.032
	c-0.005,0-0.011,0-0.017,0h-0.006c-0.356,0-0.646-0.28-0.66-0.638C73.835,186.4,74.122,186.098,74.482,186.085z M41.971,187.203
	l-0.979-0.02c-0.359-0.004-0.652-0.305-0.648-0.668c0.004-0.361,0.301-0.654,0.661-0.654l0.979,0.02
	c0.178,0.004,0.343,0.077,0.465,0.205c0.122,0.128,0.187,0.296,0.182,0.473C42.629,186.908,42.333,187.203,41.971,187.203z
	 M44.547,187.305h-0.01c-0.344-0.021-0.662-0.035-0.978-0.051c-0.178-0.006-0.342-0.081-0.462-0.21
	c-0.121-0.13-0.184-0.299-0.177-0.476c0.019-0.35,0.286-0.612,0.636-0.635c0.38,0.014,0.709,0.027,1.033,0.049
	c0.364,0.027,0.639,0.341,0.619,0.695C45.185,187.031,44.896,187.305,44.547,187.305z M47.114,187.527l-0.2-0.018l-0.829-0.089
	c-0.168-0.015-0.328-0.098-0.44-0.233c-0.114-0.138-0.167-0.31-0.15-0.485c0.039-0.347,0.323-0.599,0.661-0.599l1.027,0.104
	c0.172,0.017,0.331,0.103,0.443,0.239c0.112,0.138,0.163,0.311,0.145,0.486C47.736,187.271,47.454,187.527,47.114,187.527z
	 M49.678,187.752c-0.016,0-0.033-0.001-0.051-0.003c-0.325-0.022-0.647-0.048-0.966-0.074c-0.36-0.03-0.631-0.349-0.605-0.707
	c0.03-0.348,0.317-0.612,0.655-0.612c0.376,0.029,0.694,0.055,1.013,0.076c0.368,0.027,0.641,0.346,0.614,0.707
	C50.31,187.484,50.02,187.752,49.678,187.752z M52.251,187.887h-0.006c-0.343-0.011-0.668-0.023-0.992-0.041
	c-0.36-0.016-0.644-0.322-0.629-0.687c0.018-0.357,0.306-0.634,0.656-0.634c0.354,0.016,0.672,0.027,0.992,0.039
	c0.36,0.012,0.647,0.315,0.64,0.678C52.894,187.609,52.604,187.887,52.251,187.887z M71.903,186.161l0.969-0.028
	c0.404,0.021,0.671,0.293,0.679,0.646c0.006,0.168-0.056,0.337-0.177,0.466c-0.121,0.13-0.285,0.205-0.462,0.211l-0.969,0.028
	c-0.005,0-0.01,0-0.015,0h-0.005c-0.356,0-0.646-0.279-0.661-0.637C71.255,186.477,71.542,186.173,71.903,186.161z M68.86,186.439
	c0.121-0.129,0.286-0.205,0.463-0.211l0.972-0.024c0.397,0.021,0.665,0.29,0.678,0.638c0.006,0.374-0.283,0.678-0.645,0.686
	l-0.966,0.024c-0.004,0-0.009,0-0.013,0h-0.004c-0.362,0-0.652-0.282-0.661-0.646C68.677,186.738,68.739,186.57,68.86,186.439z
	 M66.748,186.296l0.967-0.022c0.381-0.023,0.671,0.287,0.677,0.646c0.004,0.173-0.06,0.342-0.182,0.47
	c-0.122,0.129-0.287,0.201-0.464,0.205l-0.965,0.024c-0.004,0-0.008,0-0.013,0h-0.004c-0.361,0-0.651-0.283-0.661-0.646
	C66.097,186.605,66.386,186.305,66.748,186.296z M63.704,186.564c0.122-0.129,0.287-0.201,0.465-0.205l0.964-0.024
	c0.378,0.009,0.666,0.289,0.679,0.64c0.006,0.373-0.283,0.676-0.645,0.684l-0.969,0.023c-0.004,0-0.008,0-0.012,0h-0.003
	c-0.356,0-0.652-0.289-0.661-0.646C63.517,186.861,63.582,186.693,63.704,186.564z M61.576,186.421l0.978-0.022h0.001
	c0.391,0,0.669,0.278,0.675,0.649c0.006,0.165-0.057,0.334-0.178,0.463c-0.121,0.128-0.291,0.204-0.468,0.208l-0.967,0.023
	c-0.004,0-0.008,0-0.012,0h-0.003c-0.36,0-0.657-0.291-0.661-0.649C60.93,186.743,61.215,186.438,61.576,186.421z M59.004,186.486
	l0.966-0.026l0,0c0.377,0,0.67,0.283,0.68,0.646c0.008,0.362-0.28,0.666-0.642,0.679l-0.971,0.024c-0.004,0-0.009,0-0.013,0H59.02
	c-0.361,0-0.651-0.283-0.661-0.645C58.353,186.796,58.642,186.494,59.004,186.486z M56.409,186.564l0.976-0.033l0,0
	c0.368,0,0.672,0.295,0.68,0.645c0.007,0.167-0.056,0.338-0.179,0.469c-0.119,0.127-0.281,0.201-0.455,0.209l-0.97,0.035
	c-0.007,0-0.014,0-0.021,0h-0.005c-0.353,0-0.644-0.277-0.662-0.631C55.763,186.889,56.047,186.582,56.409,186.564z M54.822,186.6
	c0.364,0,0.661,0.295,0.665,0.654c0,0.371-0.296,0.668-0.66,0.668l-0.441,0.002c-0.001,0-0.003,0-0.004,0l-0.525-0.002
	c-0.372-0.008-0.663-0.311-0.657-0.672c0.004-0.357,0.3-0.65,0.661-0.65l0.525,0.002L54.822,186.6z"/>
<path fill="#FFFFFF" d="M83.933,15.389c0.001,0.005,0.001,0.01,0.002,0.015c0.132,0.942,2.036,5.392,3.562,7.595
	c1.399,2.022,3.294,3.885,5.793,5.695c1.275,0.922,3.766,2.074,5.869,2.39c0.331,0.05,0.69,0.076,1.069,0.076
	c1.995,0,3.961-0.691,4.179-0.771c0.583-0.211,1.491-0.845,3.309-2.185c2.06-1.52,4.306-4.279,4.734-4.817
	c0.856-1.077,1.801-3.503,2.007-4.093c0.178-0.507,0.449-1.201,0.678-1.632c0.102-0.19,0.211-1.027,0.277-1.528
	c0.029-0.226,0.059-0.441,0.086-0.626c0.079-0.515,0.02-0.755-0.025-0.931l-0.029-0.131c-0.012,0.013-0.041-0.032-0.09-0.094
	c-1.059,0.677-2.271,1.434-2.836,1.671c-0.365,0.153-1.615,0.608-2.545,0.693l-0.34,0.03c-0.74,0.064-1.662,0.145-2.142,0.218
	c-0.315,0.048-1.231,0.154-2.109,0.256c-0.72,0.083-1.414,0.164-1.72,0.206c-0.673,0.091-2.354,0.378-2.812,0.46
	c-0.519,0.093-4.307,0.473-6.346,0.473l-0.169-0.001c-0.919-0.01-7.239-1.491-7.51-1.59C86.633,16.697,85.735,16.268,83.933,15.389z
	"/>
<path fill="#FFFFFF" d="M114.184,12.708c-1.015,0.619-3.295,1.97-4.24,2.223c-0.9,0.241-3.727,0.517-5.596,0.699
	c-0.578,0.056-1.043,0.101-1.285,0.13c-0.422,0.05-1.475,0.237-2.589,0.436c-1.467,0.261-2.984,0.532-3.516,0.57
	c-0.012,0.001-0.105,0.004-0.117,0.004c-0.92,0-4.029-0.659-6.636-1.233l-0.386-0.084c-0.631-0.137-3.154-1.226-5.801-2.389
	c-0.04,0.307-0.069,0.604-0.09,0.895c1.441,0.742,2.989,1.516,3.222,1.589c0.377,0.106,6.177,1.509,7.276,1.563
	c1.144,0.058,5.522-0.289,6.384-0.457c0.862-0.167,7.316-1.084,8.238-1.084c0.833,0,2.193-0.316,3.042-0.704
	c0.642-0.294,1.882-1.054,2.563-1.479c-0.178-0.241-0.327-0.45-0.422-0.604C114.214,12.756,114.199,12.731,114.184,12.708z"/>
</svg>
