<?xml version="1.0" encoding="utf-8"?>
<!-- Generator: Adobe Illustrator 16.0.0, SVG Export Plug-In . SVG Version: 6.00 Build 0)  -->
<!DOCTYPE svg PUBLIC "-//W3C//DTD SVG 1.1//EN" "http://www.w3.org/Graphics/SVG/1.1/DTD/svg11.dtd">
<svg version="1.1" id="Layer_1" xmlns="http://www.w3.org/2000/svg" xmlns:xlink="http://www.w3.org/1999/xlink" x="0px" y="0px"
	 width="200px" height="200px" viewBox="0 0 200 200" enable-background="new 0 0 200 200" xml:space="preserve">
<g>
	<path fill="#016064" d="M40.335,19.767c0.542,0.686,2.043,2.674,3.845,5.847c1.741,3.071,6.343,12.108,9.647,18.668
		c0.275-2.463,0.704-7.184,0.542-11.587c-0.211-5.868-1.496-14.024-2.146-17.517l-0.73-3.916c-1.604,0.532-3.76,1.423-5.186,2.555
		C44.693,15.1,41.865,18.113,40.335,19.767z"/>
	<path fill="#016064" d="M38.92,22.638c1.038,1.202,12.929,21.434,14.349,26.898c1.264,4.863,1.234,8.011-0.096,10.206
		c-1.134,1.872-1.593,2.913-1.312,4.129c0.013,0.057,0.033,0.181,0.055,0.335c0.232-0.174,0.684-0.615,1.428-1.746
		c1.86-2.821,3.925-9.071,1.546-13.833c-0.327-0.653-0.697-1.391-1.088-2.17c-0.108-0.088-0.173-0.215-0.18-0.359
		c-3.313-6.592-8.455-16.717-10.312-19.991c-1.642-2.891-3.063-4.821-3.663-5.596l-0.3,0.325c-0.134,0.143-0.264,0.269-0.383,0.384
		C38.367,21.8,38.275,21.889,38.92,22.638z"/>
	<path fill="#016064" d="M101.286,60.884c1.009-0.507,6.258-3.333,11.031-9.441c5.303-6.791,11.813-17.611,14.403-26.478
		c1.659-5.684,2.441-10.99,2.583-14.146c-0.112,0.118-0.228,0.239-0.34,0.357c-0.755,0.796-1.787,1.886-2.943,2.784
		c-2.003,1.561-5.938,2.967-10.796,3.858c-2.368,0.437-5.779,0.655-9.822,0.655c-4.354,0-9.438-0.252-14.745-0.755
		c-9.905-0.94-15.137-4.086-16.52-5.618c-0.637-0.702-1.505-1.208-2.016-1.469c-0.567,2.439-0.702,13.989,3.75,21.481
		C81.487,41.557,92.222,57.789,101.286,60.884z"/>
	<path fill="#016064" d="M149.166,187.195c-0.08,0.047-0.174,0.062-0.271,0.068l-0.54-0.025c-0.099-0.004-0.189-0.037-0.265-0.09
		c-0.081,0.047-0.177,0.08-0.273,0.066l-0.536-0.021c-0.099-0.006-0.189-0.037-0.266-0.09c-0.078,0.045-0.156,0.066-0.27,0.066
		l-0.54-0.021c-0.099-0.006-0.189-0.037-0.265-0.09c-0.08,0.047-0.161,0.08-0.274,0.066l-0.534-0.02
		c-0.1-0.004-0.19-0.037-0.267-0.09c-0.08,0.047-0.164,0.08-0.275,0.068l-0.533-0.021c-0.1-0.004-0.19-0.035-0.267-0.088
		c-0.079,0.045-0.161,0.066-0.272,0.068l-0.536-0.021c-0.099-0.004-0.189-0.035-0.265-0.088c-0.078,0.045-0.155,0.064-0.27,0.068
		l-0.52-0.02c-0.102-0.004-0.197-0.037-0.276-0.094c-0.082,0.051-0.161,0.074-0.282,0.074l-0.535-0.018
		c-0.099-0.004-0.19-0.035-0.267-0.088c-0.078,0.045-0.152,0.064-0.271,0.068l-0.538-0.018c-0.099-0.004-0.19-0.035-0.267-0.088
		c-0.077,0.047-0.148,0.068-0.268,0.07l-0.541-0.018c-0.099-0.004-0.19-0.035-0.267-0.088c-0.077,0.047-0.148,0.068-0.269,0.07
		l-0.537-0.016c-0.1-0.002-0.191-0.033-0.268-0.086c-0.078,0.047-0.145,0.07-0.271,0.07l-0.537-0.014
		c-0.099-0.004-0.19-0.035-0.267-0.086c-0.078,0.047-0.169,0.074-0.267,0.07l-0.541-0.014c-0.099-0.004-0.19-0.035-0.267-0.086
		c-0.08,0.047-0.156,0.068-0.273,0.072l-0.535-0.014c-0.1-0.002-0.191-0.033-0.268-0.084c-0.079,0.047-0.178,0.068-0.27,0.072
		l-0.536-0.012c-0.099-0.002-0.19-0.033-0.267-0.084c-0.078,0.047-0.213,0.064-0.268,0.072l-0.538-0.01
		c-0.1-0.002-0.192-0.033-0.27-0.084c-0.078,0.049-0.195,0.076-0.27,0.074l-0.537-0.01c-0.099-0.002-0.189-0.031-0.267-0.082
		c-0.079,0.051-0.178,0.07-0.273,0.076l-0.53-0.008l0.006-0.668l-0.003,0.168l0.006-0.5l-0.003,0.332l0.006-0.332l0.54,0.008
		c0.098,0.002,0.188,0.031,0.264,0.082c0.079-0.049,0.214-0.068,0.271-0.076l0.537,0.01c0.1,0.002,0.192,0.031,0.27,0.084
		c0.078-0.049,0.199-0.068,0.27-0.074l0.538,0.01c0.101,0.002,0.192,0.031,0.27,0.084c0.079-0.049,0.162-0.074,0.271-0.072
		l0.536,0.012c0.1,0.002,0.191,0.033,0.268,0.084c0.079-0.047,0.173-0.074,0.27-0.072l0.541,0.014
		c0.099,0.002,0.19,0.033,0.267,0.086c0.079-0.049,0.144-0.076,0.273-0.072l0.535,0.014c0.101,0.002,0.192,0.033,0.27,0.086
		c0.078-0.047,0.148-0.07,0.27-0.07l0.537,0.014c0.1,0.004,0.191,0.035,0.268,0.088c0.078-0.049,0.148-0.064,0.271-0.072
		l0.537,0.016c0.1,0.004,0.192,0.035,0.27,0.088c0.078-0.047,0.153-0.066,0.271-0.07l0.535,0.018
		c0.101,0.002,0.192,0.035,0.27,0.088c0.078-0.047,0.151-0.072,0.271-0.07l0.538,0.018c0.099,0.004,0.19,0.035,0.267,0.088
		c0.078-0.045,0.15-0.068,0.271-0.068l0.541,0.018c0.099,0.004,0.19,0.037,0.266,0.09c0.077-0.047,0.167-0.07,0.271-0.07
		l0.021,0.002l0.515,0.018c0.1,0.004,0.19,0.035,0.267,0.088c0.079-0.047,0.174-0.066,0.271-0.068l0.538,0.021
		c0.099,0.004,0.189,0.035,0.266,0.088c0.079-0.045,0.173-0.066,0.271-0.068l0.541,0.023c0.098,0.004,0.188,0.035,0.263,0.088
		c0.079-0.047,0.172-0.068,0.271-0.068l0.542,0.021c0.098,0.004,0.188,0.037,0.264,0.09c0.079-0.047,0.157-0.072,0.273-0.068
		l0.536,0.021c0.1,0.004,0.19,0.037,0.267,0.09c0.078-0.045,0.17-0.07,0.271-0.066l0.54,0.023c0.099,0.004,0.189,0.037,0.265,0.09
		c0.08-0.045,0.162-0.084,0.273-0.066l0.536,0.023c0.101,0.004,0.192,0.037,0.269,0.092c0.081-0.047,0.178-0.076,0.274-0.066
		l0.282,0.014c-0.233-6.617-0.871-19.535-1.74-33.439c-0.91-14.551-1.008-32.525-0.815-43.496
		c0.094-5.301,0.727-17.891,1.234-28.007c0.352-6.978,0.657-13.078,0.711-15.236c-0.018-0.021-0.043-0.032-0.057-0.057
		c-0.059-0.104-1.447-2.622-2.498-7.298c-1.054-4.687-0.257-9.576,0.505-12.186c-0.038-0.852-0.226-5.238-0.226-7.905
		c0-3.099,0.193-6.522,0.408-10.049c0.226-3.736,0.119-8.328,0.062-10.795l-0.004-0.172c-0.033-1.388,0.202-3.005,0.41-4.432
		c0.138-0.945,0.262-1.829,0.281-2.467c-0.312-0.037-0.632-0.064-0.963-0.07c-1.804-0.031-10.928-0.239-13.316-1.219
		c-0.466-0.191-0.895-0.379-1.311-0.56c0.207,0.815,0.471,2.28,0.399,4.31c-0.021,0.594-0.591,14.669-7.266,26.235
		c-5.766,9.991-13.028,18.948-18.07,22.288c-4.852,3.211-6.168,3.958-6.222,3.989c-0.076,0.043-0.16,0.064-0.245,0.064
		c-0.077,0-0.154-0.018-0.225-0.054c-0.064-0.032-6.457-3.282-11.447-8.111c-4.415-4.27-7.717-9.022-10.128-12.492
		c-0.334-0.481-0.651-0.937-0.95-1.362c-2.667-3.793-7.437-12.837-9.083-19.267c-1.491-5.821-2.253-12.863-0.594-15.474
		c0.04-0.063,0.086-0.112,0.129-0.17C62.99,9.366,53.775,10.627,52.9,10.845c-0.129,0.033-0.289,0.078-0.445,0.122l0.751,4.028
		c0.655,3.518,1.95,11.737,2.162,17.664c0.209,5.728-0.562,11.969-0.729,13.239c0.414,0.824,0.803,1.599,1.145,2.283
		c2.891,5.786-0.179,12.667-1.605,14.831c-1.077,1.636-1.715,2.112-2.125,2.25c0.829,6.726,3.75,35.293,4.046,43.285
		c0.192,5.162-0.958,19.873-1.972,32.852c-0.709,9.074-1.379,17.646-1.447,21.219c-0.063,3.389-0.077,6.691-0.09,9.885
		c-0.02,4.902-0.037,9.137-0.235,12.111c-0.022,0.336-0.047,0.648-0.073,0.955l0.067,0.006c0.098,0.008,0.187,0.045,0.26,0.102
		c0.082-0.043,0.178-0.062,0.273-0.055l0.537,0.045c0.098,0.008,0.187,0.043,0.259,0.1c0.081-0.045,0.175-0.064,0.274-0.057
		l0.533,0.039c0.098,0.008,0.188,0.043,0.261,0.098c0.081-0.043,0.169-0.066,0.272-0.059l0.538,0.035
		c0.098,0.008,0.187,0.041,0.261,0.096c0.08-0.045,0.172-0.07,0.272-0.061l0.535,0.031c0.099,0.006,0.188,0.041,0.263,0.094
		c0.08-0.045,0.173-0.072,0.272-0.062l0.531,0.025c0.1,0.006,0.192,0.039,0.268,0.092c0.079-0.045,0.173-0.064,0.27-0.064
		l0.537,0.023c0.098,0.004,0.189,0.037,0.264,0.09c0.079-0.047,0.18-0.072,0.271-0.068l0.535,0.02
		c0.099,0.004,0.19,0.035,0.266,0.086c0.079-0.047,0.173-0.068,0.269-0.068l0.538,0.014c0.097,0.004,0.188,0.033,0.263,0.084
		c0.078-0.047,0.163-0.08,0.27-0.074l0.537,0.01c0.097,0.002,0.188,0.031,0.264,0.08c0.078-0.049,0.212-0.096,0.267-0.076
		l0.535,0.002c0.099,0,0.191,0.029,0.269,0.078c0.077-0.049,0.168-0.076,0.266-0.078l0.535-0.004
		c0.089-0.008,0.189,0.025,0.267,0.074c0.077-0.053,0.169-0.082,0.268-0.084l0.536-0.01c0.092-0.004,0.194,0.025,0.273,0.076
		c0.079-0.051,0.172-0.082,0.273-0.082l0.542,0.002c0.098,0,0.19,0.029,0.267,0.08c0.079-0.049,0.168-0.076,0.271-0.076l0.51,0.008
		c0.105,0,0.205,0.035,0.287,0.092c0.082-0.053,0.172-0.076,0.284-0.08l0.542,0.014c0.099,0.004,0.189,0.035,0.266,0.088
		c0.08-0.049,0.169-0.076,0.272-0.07l0.537,0.018c0.101,0.004,0.194,0.037,0.271,0.09c0.08-0.047,0.176-0.068,0.273-0.066
		l0.537,0.023c0.099,0.004,0.19,0.037,0.266,0.09c0.081-0.045,0.17-0.074,0.274-0.064l0.537,0.025
		c0.1,0.006,0.191,0.039,0.266,0.092c0.081-0.045,0.177-0.07,0.274-0.062l0.536,0.029c0.1,0.004,0.191,0.039,0.266,0.094
		c0.081-0.047,0.171-0.074,0.274-0.062l0.536,0.031c0.275,0.018,0.486,0.254,0.469,0.529c-0.016,0.266-0.236,0.471-0.499,0.471
		c-0.01,0-0.02,0-0.03-0.002l-0.537-0.031c-0.098-0.006-0.188-0.041-0.263-0.094c-0.08,0.045-0.18,0.074-0.271,0.062l-0.537-0.029
		c-0.099-0.006-0.189-0.039-0.263-0.092c-0.081,0.045-0.174,0.07-0.271,0.062l-0.538-0.025c-0.098-0.006-0.188-0.037-0.262-0.09
		c-0.08,0.045-0.178,0.064-0.271,0.066l-0.538-0.025c-0.099-0.004-0.189-0.035-0.265-0.088c-0.079,0.045-0.177,0.064-0.268,0.066
		l-0.538-0.018c-0.098-0.004-0.189-0.035-0.265-0.088c-0.08,0.047-0.182,0.068-0.271,0.07l-0.532-0.014
		c-0.1-0.002-0.192-0.033-0.269-0.086c-0.075,0.049-0.161,0.07-0.265,0.074l-0.536-0.008c-0.099-0.002-0.19-0.031-0.267-0.08
		c-0.079,0.049-0.174,0.076-0.271,0.076l-0.532-0.002c-0.097,0-0.188-0.027-0.264-0.074c-0.076,0.049-0.167,0.078-0.265,0.08
		l-0.539,0.01c-0.086,0.016-0.191-0.025-0.269-0.074c-0.078,0.053-0.17,0.082-0.27,0.084l-0.54,0.004
		c-0.061,0.002-0.193-0.027-0.271-0.078c-0.078,0.051-0.17,0.078-0.269,0.078l-0.541-0.002c-0.099,0-0.191-0.029-0.269-0.08
		c-0.079,0.049-0.166,0.062-0.272,0.076l-0.537-0.01c-0.099-0.002-0.191-0.031-0.268-0.082c-0.08,0.049-0.174,0.076-0.275,0.072
		l-0.538-0.014c-0.1-0.004-0.192-0.035-0.269-0.088c-0.08,0.047-0.178,0.074-0.271,0.07l-0.541-0.02
		c-0.099-0.004-0.19-0.037-0.267-0.09c-0.08,0.047-0.175,0.066-0.273,0.068l-0.538-0.025c-0.1-0.004-0.191-0.037-0.267-0.09
		c-0.08,0.045-0.172,0.064-0.27,0.064l-0.543-0.027c-0.099-0.006-0.189-0.039-0.265-0.094c-0.08,0.045-0.177,0.074-0.274,0.062
		l-0.538-0.031c-0.099-0.006-0.19-0.041-0.265-0.096c-0.082,0.045-0.175,0.072-0.276,0.061l-0.536-0.035
		c-0.099-0.008-0.19-0.043-0.264-0.098c-0.082,0.045-0.172,0.068-0.275,0.059l-0.54-0.041c-0.099-0.008-0.188-0.045-0.262-0.1
		c-0.083,0.045-0.175,0.062-0.277,0.057l-0.536-0.045c-0.099-0.008-0.189-0.045-0.263-0.102c-0.083,0.043-0.179,0.059-0.276,0.055
		l-0.065-0.006c-0.004,0.043-0.008,0.092-0.012,0.135c-0.169,1.82-0.271,2.918,0.195,3.453c0.312,0.357,0.953,0.539,2.078,0.592
		c0.987,0.045,3.383,0.064,6.417,0.092c8.259,0.07,20.74,0.178,26.175,0.887c1.919,0.25,4.543,0.377,7.8,0.377
		c6.702,0,14.934-0.514,22.195-0.967l3.637-0.225c3.113-0.189,6.468-0.285,9.969-0.285c5.545,0,10.263,0.236,13.082,0.377
		l1.406,0.07c0.798,0.035,1.488,0.148,2.098,0.248c1.041,0.17,1.746,0.248,2.077-0.094c0.396-0.408,0.555-1.479,0.499-3.367
		c-0.005-0.17-0.012-0.369-0.018-0.551l-0.362-0.018C149.333,187.283,149.241,187.25,149.166,187.195z M74.861,187.42
		c-0.012,0-0.024,0-0.036,0l-0.523-0.033l0.035-0.674l-0.013,0.174l0.03-0.5l-0.017,0.326l0.025-0.326l0.534,0.035
		c0.275,0.02,0.483,0.258,0.463,0.533C75.341,187.219,75.122,187.42,74.861,187.42z M96.859,188.76
		c-0.101,0.008-0.193-0.025-0.272-0.074c-0.077,0.051-0.169,0.082-0.269,0.084l-0.532,0.006c-0.122-0.018-0.201-0.029-0.282-0.082
		c-0.075,0.055-0.167,0.086-0.27,0.086l-0.541-0.002c-0.1-0.002-0.193-0.031-0.271-0.082c-0.078,0.049-0.14,0.092-0.271,0.074
		l-0.542-0.012c-0.1-0.002-0.192-0.035-0.269-0.088c-0.08,0.049-0.173,0.072-0.275,0.07l-0.543-0.027
		c-0.102-0.006-0.195-0.041-0.271-0.098c-0.072,0.045-0.158,0.068-0.257,0.066l-0.551-0.039c-0.099-0.006-0.189-0.041-0.263-0.096
		c-0.081,0.045-0.173,0.074-0.278,0.059l-0.533-0.039c-0.1-0.006-0.19-0.043-0.264-0.098c-0.08,0.043-0.17,0.066-0.272,0.059
		l-0.518-0.039c-0.102-0.008-0.195-0.045-0.272-0.104c-0.083,0.047-0.183,0.08-0.284,0.062l-0.536-0.041
		c-0.099-0.008-0.189-0.043-0.263-0.1c-0.081,0.043-0.172,0.072-0.274,0.057l-0.535-0.039c-0.098-0.008-0.188-0.043-0.261-0.1
		c-0.082,0.045-0.176,0.066-0.274,0.059l-0.536-0.041c-0.099-0.008-0.189-0.043-0.263-0.1c-0.081,0.043-0.176,0.066-0.273,0.059
		l-0.536-0.041c-0.099-0.008-0.189-0.045-0.264-0.102c-0.081,0.045-0.178,0.066-0.274,0.059l-0.537-0.041
		c-0.099-0.008-0.189-0.043-0.263-0.1c-0.081,0.045-0.171,0.066-0.274,0.059l-0.537-0.041c-0.099-0.008-0.188-0.043-0.262-0.098
		c-0.082,0.043-0.177,0.072-0.275,0.057l-0.536-0.039c-0.099-0.008-0.189-0.045-0.263-0.1c-0.08,0.041-0.17,0.062-0.27,0.057
		l-0.538-0.039c-0.098-0.008-0.187-0.043-0.26-0.098c-0.082,0.043-0.176,0.064-0.275,0.059l-0.533-0.039
		c-0.099-0.008-0.189-0.043-0.263-0.098c-0.08,0.041-0.176,0.064-0.271,0.057l-0.537-0.037c-0.099-0.008-0.19-0.043-0.264-0.1
		c-0.081,0.043-0.175,0.062-0.27,0.059l-0.539-0.037c-0.098-0.006-0.188-0.041-0.261-0.096c-0.08,0.043-0.171,0.066-0.271,0.059
		l-0.537-0.035c-0.099-0.008-0.189-0.041-0.263-0.096c-0.082,0.043-0.18,0.068-0.276,0.061l-0.516-0.035l0.032-0.666l-0.017,0.166
		l0.033-0.5l-0.016,0.334l0.034-0.332l0.521,0.035c0.098,0.006,0.187,0.041,0.261,0.096c0.082-0.045,0.177-0.066,0.273-0.061
		l0.537,0.035c0.099,0.008,0.19,0.043,0.264,0.098c0.081-0.045,0.172-0.066,0.274-0.061l0.533,0.037
		c0.101,0.008,0.192,0.043,0.267,0.1c0.081-0.043,0.17-0.066,0.272-0.059l0.536,0.037c0.099,0.008,0.189,0.043,0.264,0.098
		c0.08-0.041,0.17-0.066,0.271-0.057l0.538,0.039c0.098,0.008,0.187,0.043,0.26,0.098c0.081-0.045,0.175-0.066,0.274-0.059
		l0.533,0.039c0.1,0.008,0.19,0.043,0.265,0.1c0.08-0.043,0.172-0.064,0.272-0.057l0.536,0.041c0.099,0.008,0.188,0.043,0.262,0.098
		c0.081-0.043,0.173-0.066,0.275-0.059l0.537,0.041c0.099,0.008,0.189,0.045,0.263,0.1c0.081-0.043,0.173-0.066,0.274-0.059
		l0.537,0.041c0.099,0.008,0.189,0.045,0.264,0.102c0.081-0.045,0.179-0.064,0.274-0.059l0.536,0.041
		c0.099,0.008,0.189,0.043,0.263,0.1c0.081-0.043,0.171-0.066,0.273-0.059l0.536,0.043c0.098,0.006,0.188,0.041,0.261,0.098
		c0.081-0.045,0.174-0.066,0.274-0.059l0.536,0.041c0.099,0.008,0.189,0.043,0.263,0.1c0.081-0.043,0.173-0.062,0.273-0.059
		l0.536,0.041c0.099,0.008,0.188,0.045,0.262,0.1c0.08-0.045,0.17-0.068,0.274-0.061l0.021,0.002l0.513,0.039
		c0.099,0.008,0.189,0.043,0.264,0.098c0.08-0.043,0.173-0.066,0.271-0.059l0.54,0.041c0.097,0.006,0.186,0.041,0.259,0.096
		c0.081-0.045,0.177-0.066,0.274-0.061l0.463,0.035c0.109,0.008,0.214,0.051,0.299,0.117c0.087-0.057,0.19-0.092,0.304-0.082
		l0.531,0.025c0.097,0.004,0.187,0.035,0.261,0.088c0.078-0.047,0.168-0.072,0.267-0.07l0.532,0.012
		c0.098,0.002,0.189,0.031,0.266,0.082c0.077-0.049,0.153-0.096,0.266-0.074l0.473,0.002c0.109,0,0.216,0.035,0.304,0.094
		c0.081-0.061,0.181-0.096,0.291-0.098l0.535-0.006c0.133,0.012,0.191,0.025,0.27,0.072c0.077-0.051,0.167-0.08,0.266-0.082
		l0.52-0.014l0.042,1L96.859,188.76z M97.939,188.729c-0.006,0-0.011,0-0.017,0c-0.269,0-0.49-0.213-0.499-0.482
		c-0.009-0.277,0.207-0.508,0.483-0.518l0.514-0.018l0.059,0.998L97.939,188.729z M100.096,188.635
		c-0.101,0.01-0.191-0.018-0.271-0.064c-0.075,0.055-0.166,0.088-0.265,0.092l-0.517,0.023c-0.007,0.002-0.015,0.002-0.022,0.002
		c-0.267,0-0.499-0.209-0.511-0.479c-0.012-0.275,0.19-0.508,0.466-0.521l0.535-0.023c0.094-0.014,0.191,0.02,0.271,0.064
		c0.075-0.053,0.166-0.086,0.265-0.092l0.505-0.027l0.083,0.998L100.096,188.635z M116.723,187.289l-0.535,0.047
		c-0.105,0.006-0.193-0.012-0.274-0.053c-0.072,0.055-0.16,0.092-0.258,0.1l-0.538,0.049c-0.104,0.004-0.192-0.014-0.274-0.055
		c-0.072,0.057-0.161,0.092-0.259,0.102l-0.536,0.049c-0.096,0.01-0.193-0.01-0.276-0.053c-0.072,0.055-0.162,0.092-0.261,0.102
		l-0.533,0.049c-0.097,0.006-0.193-0.012-0.275-0.055c-0.073,0.057-0.164,0.094-0.263,0.104l-0.533,0.049
		c-0.098,0.006-0.192-0.012-0.275-0.055c-0.072,0.057-0.161,0.094-0.259,0.102l-0.539,0.049c-0.106,0.006-0.195-0.012-0.276-0.057
		c-0.072,0.057-0.162,0.094-0.261,0.104l-0.538,0.049c-0.104,0.004-0.192-0.012-0.274-0.055c-0.073,0.057-0.163,0.094-0.262,0.102
		l-0.535,0.047c-0.104,0.004-0.194-0.012-0.275-0.055c-0.073,0.057-0.164,0.094-0.264,0.102l-0.534,0.045
		c-0.09,0.006-0.191-0.012-0.272-0.055c-0.073,0.057-0.163,0.092-0.262,0.1l-0.534,0.045c-0.092,0.006-0.192-0.012-0.273-0.057
		c-0.073,0.057-0.162,0.092-0.26,0.1l-0.539,0.043c-0.091,0.006-0.192-0.014-0.273-0.057c-0.073,0.055-0.164,0.092-0.263,0.1
		l-0.536,0.041c-0.09,0.008-0.193-0.016-0.275-0.059c-0.073,0.053-0.162,0.088-0.26,0.096l-0.54,0.039
		c-0.092,0.01-0.193-0.016-0.275-0.061c-0.074,0.057-0.164,0.092-0.263,0.098l-0.503,0.035c-0.103,0-0.207-0.02-0.295-0.07
		c-0.077,0.061-0.173,0.1-0.278,0.105l-0.536,0.033c-0.011,0-0.021,0-0.03,0c-0.262,0-0.482-0.203-0.499-0.469
		c-0.017-0.275,0.193-0.514,0.468-0.529l0.536-0.033c0.11-0.01,0.193,0.018,0.273,0.062c0.071-0.055,0.16-0.09,0.259-0.096
		l0.534-0.037c0.092-0.004,0.194,0.016,0.275,0.061c0.074-0.055,0.164-0.09,0.263-0.098l0.534-0.039
		c0.098-0.008,0.194,0.016,0.275,0.059c0.073-0.053,0.162-0.088,0.26-0.096l0.536-0.041c0.089-0.008,0.191,0.014,0.273,0.057
		c0.073-0.055,0.164-0.092,0.263-0.1l0.533-0.041c0.097-0.006,0.193,0.012,0.273,0.055c0.073-0.055,0.162-0.09,0.26-0.098
		l0.534-0.045c0.096-0.008,0.191,0.014,0.272,0.055c0.073-0.055,0.163-0.092,0.262-0.1l0.534-0.045
		c0.089-0.008,0.19,0.012,0.272,0.055c0.073-0.057,0.162-0.092,0.261-0.102l0.535-0.047c0.094-0.008,0.192,0.012,0.274,0.055
		c0.073-0.057,0.163-0.094,0.262-0.102l0.534-0.049c0.101-0.006,0.196,0.012,0.278,0.057c0.073-0.059,0.163-0.096,0.263-0.104
		l0.535-0.049c0.096-0.006,0.192,0.012,0.275,0.055c0.072-0.057,0.161-0.094,0.259-0.102l0.537-0.049
		c0.096-0.01,0.192,0.012,0.273,0.053c0.073-0.057,0.162-0.092,0.261-0.102l0.537-0.049c0.095-0.01,0.192,0.012,0.274,0.053
		c0.072-0.055,0.16-0.092,0.259-0.102l0.534-0.049c0.105-0.006,0.195,0.012,0.277,0.055c0.073-0.057,0.163-0.094,0.262-0.102
		l0.534-0.049c0.101-0.004,0.194,0.012,0.276,0.055c0.072-0.057,0.162-0.092,0.26-0.102l0.535-0.047
		c0.269-0.023,0.519,0.18,0.542,0.455C117.201,187.023,116.998,187.266,116.723,187.289z M119.933,187.023l-0.533,0.043
		c-0.104,0.008-0.193-0.012-0.274-0.057c-0.073,0.057-0.163,0.092-0.262,0.1l-0.535,0.045c-0.103,0.008-0.192-0.014-0.273-0.057
		c-0.074,0.057-0.165,0.094-0.266,0.102l-0.508,0.043l-0.086-0.996l0.518-0.043c0.092-0.012,0.189,0.012,0.271,0.055
		c0.074-0.057,0.164-0.092,0.263-0.1l0.535-0.045c0.09-0.008,0.193,0.012,0.274,0.057c0.073-0.057,0.163-0.092,0.262-0.1
		l0.498-0.039c0.272-0.027,0.536,0.184,0.557,0.457C120.394,186.764,120.208,187.004,119.933,187.023z M125.278,186.699
		l-0.535,0.021c-0.101-0.006-0.192-0.021-0.272-0.066c-0.073,0.053-0.162,0.086-0.261,0.09l-0.534,0.027
		c-0.11,0.012-0.196-0.02-0.277-0.064c-0.069,0.055-0.156,0.09-0.257,0.096l-0.534,0.033c-0.097,0.01-0.195-0.018-0.276-0.062
		c-0.071,0.055-0.16,0.09-0.26,0.098l-0.534,0.035c-0.091,0.006-0.191-0.014-0.272-0.059c-0.075,0.055-0.166,0.09-0.265,0.098
		l-0.513,0.037l-0.076-0.998l0.522-0.037c0.106-0.01,0.191,0.016,0.271,0.059c0.074-0.055,0.164-0.09,0.263-0.098l0.503-0.033
		c0.104-0.002,0.208,0.018,0.295,0.068c0.077-0.061,0.173-0.1,0.278-0.105l0.474-0.029c0.108-0.012,0.22,0.021,0.313,0.078
		c0.08-0.064,0.181-0.107,0.291-0.113l0.512-0.025c0.115,0,0.206,0.021,0.29,0.072c0.078-0.059,0.173-0.094,0.277-0.1l0.497-0.02
		c0.232,0.016,0.529,0.203,0.54,0.48C125.748,186.457,125.554,186.689,125.278,186.699z M129.555,186.67l-0.535-0.006
		c-0.099,0-0.19-0.029-0.268-0.08c-0.078,0.049-0.174,0.043-0.27,0.078l-0.538-0.004c-0.099,0-0.191-0.029-0.269-0.08
		c-0.076,0.051-0.167,0.08-0.267,0.08l-0.531,0.002c-0.103-0.018-0.189-0.027-0.267-0.074c-0.076,0.051-0.167,0.08-0.265,0.082
		l-0.505,0.014l-0.044-0.5l0.017-0.5l0.511-0.014c0.102,0.006,0.193,0.025,0.271,0.074c0.078-0.051,0.17-0.082,0.27-0.082
		l0.52-0.002c0.104,0,0.2,0.031,0.282,0.086c0.08-0.055,0.179-0.055,0.282-0.086l0.538,0.004c0.099,0,0.19,0.029,0.268,0.08
		c0.078-0.049,0.168-0.102,0.27-0.078l0.534,0.006c0.276,0.002,0.501,0.229,0.498,0.506
		C130.055,186.449,129.818,186.641,129.555,186.67z"/>
	<path fill="#016064" d="M125.43,10.94c-1.794,1.447-9.102,3.824-14.404,4.365c-1.576,0.161-4.143,0.253-7.04,0.253
		c-7.105,0-16.916-0.555-21.177-2.119c-2.913-1.068-4.66-2.184-6.064-3.08c-1.054-0.673-1.894-1.204-2.875-1.48
		c-0.087,0.043-0.185,0.069-0.29,0.052c-0.043-0.004-0.603-0.029-1.079,0.769c0.568,0.284,1.6,0.87,2.378,1.729
		c1.04,1.152,5.917,4.348,15.873,5.293c10.149,0.962,19.457,1.003,24.292,0.112c4.705-0.863,8.481-2.199,10.362-3.664
		c1.097-0.852,2.1-1.91,2.831-2.682c0.508-0.536,0.83-0.87,1.083-1.073c-0.022-0.755-0.102-1.277-0.239-1.476
		c-0.027-0.008-0.05-0.025-0.075-0.037c-0.52,0.224-1.207,0.874-1.878,1.512C126.616,9.9,126.037,10.451,125.43,10.94z"/>
	<path fill="#016064" d="M155.146,34.92c0.683-1.278,1.324-2.478,1.867-3.53c0.752-1.457,1.534-2.771,2.225-3.93
		c1.645-2.763,2.833-4.759,2.029-5.965c-0.065-0.099-0.143-0.21-0.223-0.327c-1.135,1.534-4.695,6.441-5.69,8.957
		c-0.53,1.336-1.757,4.022-3.056,6.866c-1.65,3.616-3.522,7.714-4.043,9.245c-0.051,0.148-0.103,0.31-0.154,0.481
		c0,0.09-0.027,0.171-0.069,0.244c-0.723,2.52-1.459,7.149-0.46,11.587c0.483,2.153,1.043,3.834,1.501,5.016
		c-0.056-0.832-0.133-1.774-0.217-2.793c-0.326-3.98-0.732-8.933-0.18-11.706C149.334,45.793,152.557,39.764,155.146,34.92z"/>
	<path fill="#016064" d="M154.425,29.757c1.121-2.833,5.138-8.278,6.01-9.445c-1.662-2.282-4.624-5.985-6.221-6.957l-0.217-0.133
		c-1.439-0.881-3.026-1.849-4.967-2.289c-0.034,0.669-0.152,1.501-0.289,2.44c-0.202,1.388-0.432,2.961-0.4,4.265l0.004,0.172
		c0.058,2.482,0.165,7.101-0.063,10.879c-0.214,3.512-0.406,6.918-0.406,9.989c0,1.581,0.066,3.775,0.128,5.471
		c0.821-1.952,2.116-4.792,3.387-7.572C152.683,33.744,153.904,31.069,154.425,29.757z"/>
	<path fill="#016064" d="M70.363,8.891c-0.36,0.068-0.657,0.292-0.906,0.686c-1.491,2.345-0.673,9.258,0.718,14.689
		c1.618,6.316,6.308,15.208,8.933,18.94c0.3,0.427,0.618,0.884,0.954,1.367c2.387,3.437,5.657,8.143,10.002,12.344
		c4.335,4.196,9.764,7.179,10.961,7.812c0.553-0.332,2.197-1.345,5.929-3.815c4.926-3.262,12.062-12.084,17.758-21.954
		c6.551-11.353,7.11-25.187,7.131-25.771c0.104-2.933-0.547-4.63-0.553-4.647c-0.018-0.044-0.019-0.088-0.023-0.133
		c-0.423-0.177-0.8-0.317-1.138-0.423c0.103,0.417,0.163,0.961,0.18,1.627c0.003,0.026,0.004,0.05,0.003,0.076
		c0.066,3.459-0.954,9.816-2.631,15.558c-2.626,8.994-9.213,19.948-14.574,26.813c-5.44,6.962-11.327,9.705-11.575,9.818
		c-0.065,0.03-0.137,0.045-0.208,0.045c-0.052,0-0.104-0.008-0.153-0.024c-9.417-3.033-20.43-19.645-26.157-29.276
		c-4.74-7.978-4.424-20.483-3.791-22.493c0.212-0.669,0.491-1.132,0.785-1.458c-0.388,0.005-0.849,0.025-1.372,0.056
		C70.565,8.807,70.475,8.87,70.363,8.891z"/>
</g>
</svg>
